<?xml version="1.0" encoding="utf-8"?>
<!-- Generator: Adobe Illustrator 28.0.0, SVG Export Plug-In . SVG Version: 6.00 Build 0)  -->
<svg version="1.1" id="Layer_1" xmlns="http://www.w3.org/2000/svg" xmlns:xlink="http://www.w3.org/1999/xlink" x="0px" y="0px"
	 viewBox="0 0 989 608" style="enable-background:new 0 0 989 608;" xml:space="preserve">
<style type="text/css">
	.st0{fill:#9E2F1F;}
	.st1{fill:#2D2A26;}
	.st2{enable-background:new    ;}
	.st3{clipPath:url(#SVGID_00000139998968740162646830000010146194292804089530_);}
	.st4{fill:#FFD234;}
	.st5{fill:#F0961E;}
	.st6{fill:#FFB001;}
	.st7{fill:#FFDA66;}
</style>
<g>
	<rect x="564.1" y="376" class="st0" width="69.1" height="89.6"/>
	<path class="st0" d="M549,265.4c6.1-2.9,11.2-5.6,15.1-8.2V281h69.1V177.5H590c-6.3,5-14,10-23.2,15.1s-18.3,9.6-27.5,13.5
		s-17.1,6.9-23.9,9l13,59.3C535.9,271.3,542.8,268.3,549,265.4z"/>
</g>
<g>
	<g>
		<path class="st1" d="M534,400H420.9v-23.6H534V400z M534,430.4H420.9v-23.6H534V430.4z"/>
	</g>
</g>
<g>
	<g class="st2">
		<path class="st1" d="M299.3,279.7l-13-59.3c6.8-2.1,14.8-5.1,23.9-9c9.2-3.9,18.3-8.4,27.5-13.5c9.2-5.1,16.9-10.1,23.2-15.1h43.2
			v288.1h-69.1V262.4c-3.9,2.6-9,5.4-15.1,8.2C313.8,273.6,306.9,276.6,299.3,279.7z"/>
	</g>
</g>
<g>
	<path class="st0" d="M583.9,341.2v26.1h-17.3v-71.1h17.3c5.1,0,9.5,0.6,13.2,1.7s6.5,3.3,8.5,6.3c2,3.1,3,7.5,3,13.2
		c0,3.1-0.3,6.1-0.9,8.9c-0.6,2.8-1.7,5.4-3.4,7.6c-1.6,2.2-4,4-6.9,5.3c-3,1.3-6.8,1.9-11.5,1.9h-2V341.2z M583.9,326.4h1.4
		c2.1,0,3.6-0.6,4.5-1.8c0.9-1.2,1.4-3.3,1.4-6.1c0-2.8-0.4-4.7-1.3-5.7c-0.9-1-2.1-1.5-3.5-1.5h-2.3v15.1H583.9z"/>
	<path class="st0" d="M633.9,368.4c-5.8,0-10.4-1.4-13.7-4.2c-3.3-2.8-5.6-6.9-6.9-12.4c-1.3-5.5-2-12.2-2-20.1
		c0-12.1,1.9-21.4,5.8-27.6c3.8-6.3,10-9.4,18.4-9.4c6,0,10.6,1.4,13.9,4.1c3.2,2.7,5.5,6.7,6.7,12c1.3,5.3,1.9,11.8,1.9,19.6
		c0,12.6-1.8,22.1-5.5,28.4C648.8,365.2,642.6,368.4,633.9,368.4z M634.6,354.2c1.2,0,2.2-0.6,3-1.8c0.8-1.2,1.4-3.5,1.7-6.8
		s0.6-8.2,0.6-14.5c0-5.9-0.2-10.5-0.5-13.5c-0.4-3.1-0.9-5.1-1.6-6.2c-0.7-1.1-1.7-1.6-2.9-1.6s-2.3,0.6-3.1,1.7s-1.5,3.3-1.8,6.4
		c-0.4,3.1-0.6,7.7-0.6,13.7c0,6.3,0.2,11.1,0.5,14.4s0.9,5.4,1.6,6.5C632.3,353.6,633.3,354.2,634.6,354.2z"/>
	<path class="st0" d="M684.9,308.8v45.8h6.2v12.7h-29.7v-12.7h6.2v-45.8h-6.1v-12.7H691v12.7H684.9z"/>
	<path class="st0" d="M742.5,367.2h-18.7l-11.5-37.6H712v37.6h-16.4v-71.1h19.9l10.4,37h0.4v-37h16.3v71.1H742.5z"/>
	<path class="st0" d="M757.2,367.2v-55.9h-12v-15.2h41.3v15.2h-12v55.9H757.2z"/>
	<path class="st0" d="M830.2,318.1l-16.8,1.6c0.1-4-0.3-6.8-1-8.2c-0.7-1.5-1.8-2.2-3.2-2.2c-1.2,0-2,0.4-2.5,1.1s-0.8,1.6-0.8,2.6
		c0,2.3,0.7,4.2,2.2,5.5c1.5,1.4,3.4,2.8,5.8,4.3c1.9,1.1,3.9,2.3,6,3.6c2.1,1.3,4,2.9,5.8,4.7c1.8,1.8,3.3,3.9,4.4,6.4
		c1.1,2.5,1.7,5.4,1.7,8.9c0,5-0.9,9.2-2.8,12.5c-1.8,3.3-4.4,5.7-7.6,7.3c-3.2,1.6-6.9,2.4-11,2.4c-7.9,0-13.6-2-17-6
		s-5.2-9.8-5.4-17.3l17.7-1.9c0.1,3.1,0.3,5.4,0.8,7s1.1,2.7,1.9,3.2c0.8,0.6,1.8,0.9,2.9,0.9c2.1,0,3.2-1.5,3.2-4.6
		c0-2.6-1-4.7-3-6.3c-2-1.5-4.4-3-7.2-4.5c-1.9-1.1-3.8-2.3-5.7-3.5s-3.7-2.7-5.3-4.4c-1.6-1.7-2.9-3.8-3.9-6.2
		c-1-2.4-1.5-5.3-1.5-8.7c0-6.9,2.1-12.2,6.3-15.9c4.2-3.7,9.7-5.5,16.4-5.5c6.8,0,11.7,1.9,14.9,5.8
		C828.7,304.4,830.3,310.2,830.2,318.1z"/>
</g>
<g>
	<path class="st1" d="M208,376.2h19.9l13.9,56.4h-16.5l-2.1-11.1h-10.4l-2.1,11.1h-15.8L208,376.2z M221,409.9l-2.8-18.6h-0.5
		l-2.9,18.6H221z"/>
	<path class="st1" d="M274.1,398.1v11.8h-14.8v10.7h18.1v12.1h-33.7v-56.4h32.1v12.1h-16.5v9.8h14.8V398.1z"/>
	<path class="st1" d="M295.8,432.7h-14.6v-56.4H296c6.6,0,11.7,1,15.4,3c3.7,2,6.3,5,7.9,9c1.5,4,2.3,9.1,2.3,15.2
		c0,6.5-0.8,11.9-2.3,16.2c-1.6,4.3-4.2,7.6-8,9.8C307.5,431.6,302.4,432.7,295.8,432.7z M296.7,421h1.3c1.8,0,3.2-0.5,4.3-1.4
		c1.1-0.9,1.9-2.7,2.4-5.1c0.5-2.5,0.8-5.9,0.8-10.5c0-3.5-0.2-6.4-0.5-8.5c-0.3-2.2-0.8-3.8-1.5-4.9c-0.6-1.1-1.4-1.8-2.3-2.2
		c-0.9-0.4-1.9-0.6-3.1-0.6h-1.4L296.7,421L296.7,421z"/>
</g>
<g>
	<g>
		<defs>
			<rect id="SVGID_1_" x="405.2" y="272.9" width="143.6" height="88.1"/>
		</defs>
		<clipPath id="SVGID_00000050630065743689440390000008707878658327342264_">
			<use xlink:href="#SVGID_1_"  style="overflow:visible;"/>
		</clipPath>
		<g style="clipPath:url(#SVGID_00000050630065743689440390000008707878658327342264_);">
			<g>
				<path class="st4" d="M501,292.3c0.3,0.1,0.5,0.3,0.7,0.4c20.3,10.7,31.1,32.4,28.8,54c-0.4,3.8-1.2,7.5-2.4,11.2
					c-0.8,2.6-1.9,5.1-3.1,7.6c-2.2,4.4-4.9,8.3-8,11.7c-9,10.1-21.3,16.3-34.4,17.7c-6.3,0.7-12.7,0.4-19.1-1.2
					c-4-1-7.9-2.4-11.7-4.3c-3-1.5-5.8-3.3-8.4-5.3c-12.8-9.7-20.4-24.5-21.3-40.1c-0.4-7.3,0.6-14.8,3.3-22.1
					c0.7-2,1.6-3.9,2.5-5.8c2-3.9,4.4-7.5,7.1-10.7c8.8-10.3,20.9-16.8,33.9-18.6c7.3-1,14.9-0.6,22.2,1.5
					C494.4,289.4,497.8,290.6,501,292.3z"/>
				<path class="st5" d="M497,300.2c11.5,5.8,19.4,15.8,23,27.2c3.4,10.9,2.7,23.1-2.9,34.1c-11.4,22.5-38.8,31.4-61.3,20.1
					c-11-5.6-18.8-15-22.5-25.8c-3.9-11.3-3.4-24,2.4-35.5C447.1,297.8,474.5,288.8,497,300.2z"/>
				<path class="st6" d="M497.5,301.6c11,5.6,18.8,15,22.5,25.8c3.4,10.9,2.7,23.1-2.9,34.1c-11.4,22.5-38.8,31.4-61.3,20.1
					c-11-5.6-18.8-15-22.5-25.8c-3.4-10.9-2.7-23.1,2.9-34.1C447.5,299.2,475,290.2,497.5,301.6z"/>
				<g>
					
						<image style="overflow:visible;opacity:0.49;enable-background:new    ;" width="292" height="274" xlink:href="C64030E8.png"  transform="matrix(0.24 0 0 0.24 441.9237 306.7235)">
					</image>
					<g>
						<g>
							<polygon class="st7" points="455.4,367.5 475.4,354 475.5,354.1 494.8,368.4 476.3,308.7 468.4,331.1 463.3,345.2 							"/>
							<polygon class="st7" points="444.1,330.8 461.4,343.6 465.8,331.2 							"/>
							<polygon class="st7" points="507.7,332.1 485.9,331.6 489.8,344.2 							"/>
						</g>
					</g>
				</g>
			</g>
		</g>
	</g>
</g>
<g>
	<path class="st0" d="M730.1,281c0.1-2.5,0.3-4.9,0.4-7.1c0.8-11.9,2-20.9,3.5-26.9c1.6-6,3.5-10.1,5.7-12.2
		c2.2-2.1,4.8-3.1,7.7-3.1s5.3,1,7.3,2.9c2,2,3.5,5.8,4.7,11.6s2,14.5,2.6,26.3c0.1,2.6,0.2,5.5,0.3,8.5h70.4
		c-1.1-15.6-2.9-29.7-5.5-42.2c-4.5-21.5-12.7-37.9-24.7-49.3s-29.6-17.1-52.6-17.1c-32.7,0-56.1,12.7-70.3,38.1
		c-9.9,17.7-16.3,41.2-19.3,70.5H730.1z"/>
	<path class="st0" d="M761.5,376c-0.5,8.5-1.2,15.3-2.2,20.2c-1.2,6.3-2.8,10.5-4.9,12.8c-2.1,2.2-4.8,3.3-8.2,3.3s-6.2-1-8.4-3.1
		s-3.9-6.3-5.1-12.6c-0.9-5-1.7-11.9-2.2-20.6H661c1.1,10,2.6,19.3,4.4,27.8c4.7,22.1,13.3,38.8,25.9,50
		c12.6,11.3,30.4,16.9,53.4,16.9c33,0,56.1-12.9,69.3-38.7c7.5-14.6,12.9-33.3,16.1-56.1h-68.6V376z"/>
</g>
</svg>
