<?xml version="1.0" encoding="UTF-8"?>
<svg id="Layer_1" data-name="Layer 1" xmlns="http://www.w3.org/2000/svg" viewBox="0 0 627 615">
  <defs>
    <style>
      .cls-1 {
        fill: #fff;
      }

      .cls-2 {
        fill: #2d2a26;
      }

      .cls-3 {
        opacity: .3;
      }
    </style>
  </defs>
  <rect class="cls-2" x="-23" y="-25" width="689" height="664"/>
  <g class="cls-3">
    <polygon class="cls-1" points="223.23 17.36 223.23 17.36 164.25 121.24 206.42 102.34 238.17 135.91 223.23 17.36"/>
    <polygon class="cls-1" points="195.33 56.06 195.33 56.06 155.2 48.16 183.07 77.64 195.33 56.06"/>
    <polygon class="cls-1" points="234.29 63.77 234.29 63.77 237.41 88.45 274.57 71.79 234.29 63.77"/>
    <path class="cls-1" d="M155.55,342.14c66.95,10.97,128.73-5.79,159.76-39.09L16.61,254.12c18.79,41.47,71.99,77.05,138.94,88.02"/>
    <path class="cls-1" d="M216.37,250.44h0L40.88,154.12c2.58,30,27.92,63.91,67.25,85.5,39.34,21.59,81.56,24.75,108.24,10.81"/>
    <path class="cls-1" d="M529.21,278.74c-.38,6.06-1.72,11.66-3.3,17.08-1,3.44-2.21,6.76-3.51,10.03,10.9,6.32,16.4,17.92,12.73,27.6,11.12,13.87,16.51,35.53,.66,68.76-34.27,71.84-116.36,109.59-192.88,87.68-26.79-7.67-49.77-21.21-68.24-38.65-5.72-5.4-.83-14.88,6.89-13.36,59.45,11.65,121.12-18.87,146.55-76.63,1.4-3.18,2.65-6.38,3.77-9.61,1.39-3.98,2.91-7.93,4.9-11.64,16.07-29.8,39.71-32.04,51.97-30.87,5.26-6.56,15.09-9.21,25.05-6.76,.45-2.89,.82-5.78,1.02-8.64,.35-5.03,.43-10.05-.31-14.65-.68-4.59-2.03-8.81-4.01-11.85-2.77-4.22-1.59-9.89,2.64-12.66,4.23-2.77,9.89-1.58,12.65,2.64,.4,.6,.71,1.23,.95,1.88l.15,.43c2.41,6.72,2.7,13.21,2.32,19.23m37.75-74.3c-14.34-9.35-29.14-14.01-41.34-16.27-.16-.03-.31-.06-.47-.09-3.71-.7-4.43-5.73-1.06-7.42,7.78-3.89,17.4-13.11,19.2-35.02,2.79-33.83-39.06-45.6-46.02-63.51-.39-1.14-.7-2.31-.91-3.54-.02-.11-.04-.22-.05-.34-.02-.1-.04-.21-.05-.33-.38-2.77,.24-5.59,1.76-7.93l23.94-36.85c.89-1.37-.4-3.12-1.97-2.67-10.65,3.09-37.11,10.74-48.45,13.88-1.29,.36-2.67,.05-3.66-.84-.83-.74-1.76-1.37-2.73-1.95,0,0,0-.01-.01-.03-16.73-26.19-115.85-5.1-142.55,1.13-1.79,.42-1.79,2.93-.03,3.42l44.19,12.22c3.59,.99,4.07,5.89,.73,7.54-12.8,6.36-35.28,17.5-46.33,22.86-1.65,.8-1.13,3.28,.71,3.36l54.53,2.36c2.61,.11,4.12,3,2.73,5.21l-19.32,30.81c-.8,1.27,.25,2.95,1.73,2.73,11.64-1.72,23.93-5.69,35.9-12.13,4.07-2.2,7.94-4.59,11.58-7.12,4.65-3.24,10.98,.12,10.81,5.78-.12,4.03-.36,8.37-.78,12.91-.01,.1,0,.13,0,.16-.1,4.7-.24,9.28-.4,13.75-3.9,55.05-19.38,163.15-78.1,206.08-.08,.05-.16,.1-.24,.15-7.59,4.34-15.44,8.21-23.36,11.63-2.79,1.2-5.59,2.35-8.41,3.44-.08,.03-.16,.05-.24,.08-62.74,16.89-156.03,9.34-219.48,.82l-65.88-10.79c-1.42-.23-2.56,1.24-1.93,2.53,23.28,47.94,79.93,89.78,152.85,110.05,2,.56,1.6,3.48-.48,3.44l-75.65-1.31c-1.44-.02-2.35,1.6-1.53,2.78,24.77,35.96,76.01,62.9,137.76,70.1,1.93,.23,2.19,2.9,.32,3.44l-33.65,9.85c-1.53,.45-1.79,2.51-.36,3.25,27.23,14.1,113.68,53.32,213.93,23.73,111.73-32.98,191.81-137.02,200.41-239.97,2.37-28.45-1.08-52.38-4.61-68.7-.01-.04-.02-.08-.03-.11l-5.8-20.7c-5.93-21.14-18.82-39.94-37.21-51.93"/>
    <path class="cls-1" d="M508.91,399.62c-1.63,.47-3.44,.27-4.99-.7-2.92-1.82-3.82-5.66-2-8.58,2.2-3.54,4.29-7.22,6.2-10.92,1.58-3.06,5.35-4.25,8.39-2.67,3.05,1.59,4.25,5.35,2.67,8.4-2.07,3.99-4.32,7.95-6.69,11.77-.85,1.37-2.15,2.3-3.58,2.7"/>
    <path class="cls-1" d="M413.2,471.76c-5.92,1.68-11.98,3.07-17.99,4.1-3.39,.58-6.61-1.69-7.2-5.08-.59-3.39,1.77-6.61,5.08-7.2,5.58-.97,11.2-2.25,16.7-3.82,30.26-8.6,57.04-25.7,77.46-49.44,2.25-2.6,6.18-2.9,8.79-.66,2.6,2.24,2.9,6.17,.66,8.79-22.01,25.59-50.88,44.03-83.5,53.3"/>
  </g>
</svg>