<svg width="25" height="25" viewBox="0 0 25 25" fill="none" xmlns="http://www.w3.org/2000/svg">
<path d="M23.5562 7.47825C22.3163 4.54187 19.9796 2.20516 17.0432 0.965251C15.5329 0.318124 13.9053 -0.0103921 12.2622 0.00025055C10.6289 -0.0103799 9.01105 0.318221 7.51125 0.965251C6.05528 1.58536 4.72915 2.47419 3.60225 3.58525C2.48078 4.70064 1.58538 6.02218 0.965251 7.47725C0.318124 8.98757 -0.0103921 10.6152 0.00025055 12.2583C-0.0103799 13.8916 0.318221 15.5094 0.965251 17.0093C2.21649 19.9565 4.56297 22.303 7.51025 23.5542C9.01064 24.1994 10.628 24.5279 12.2612 24.5192C13.9041 24.5278 15.5313 24.1994 17.0422 23.5542C18.4963 22.9357 19.8169 22.0416 20.9312 20.9212C22.0434 19.7953 22.9324 18.4689 23.5512 17.0122C24.1964 15.5119 24.5249 13.8944 24.5163 12.2613C24.5267 10.618 24.2 8.99016 23.5562 7.47825ZM20.8442 13.1783H13.1823V20.8403H11.3422V13.1802H3.68025V11.3403H11.3422V3.67825H13.1823V11.3403H20.8442V13.1783Z" fill="#F6B318"/>
</svg>
