<svg width="25" height="25" viewBox="0 0 25 25" fill="none" xmlns="http://www.w3.org/2000/svg">
<path d="M23.7593 7.54126C22.5085 4.58 20.1517 2.22358 17.1903 0.973263C15.6666 0.32059 14.0247 -0.0106521 12.3673 0.000261147C10.7198 -0.0106177 9.08801 0.320711 7.57526 0.973263C6.10588 1.59927 4.76806 2.49736 3.63226 3.62026C2.50132 4.74544 1.59844 6.07854 0.973258 7.54626C0.320638 9.06954 -0.0106029 10.7111 0.000258724 12.3683C-0.0104816 14.0154 0.320842 15.6468 0.973258 17.1593C2.23617 20.1305 4.60199 22.4963 7.57326 23.7593C9.08663 24.4098 10.718 24.7411 12.3653 24.7323C14.0225 24.7411 15.664 24.4099 17.1883 23.7593C18.6564 23.1348 19.9896 22.2318 21.1143 21.1003C22.2357 19.9652 23.1324 18.6284 23.7573 17.1603C24.4078 15.6472 24.739 14.0162 24.7303 12.3693C24.7405 10.7104 24.41 9.06715 23.7593 7.54126ZM21.0233 13.2893H3.71126V11.4343H21.0233V13.2893Z" fill="#9A3324"/>
</svg>
