<?xml version="1.0" encoding="UTF-8"?>
<svg id="Layer_2" data-name="Layer 2" xmlns="http://www.w3.org/2000/svg" viewBox="0 0 694.71 213.55">
  <defs>
    <style>
      .cls-1 {
        fill: #9e2f1f;
      }

      .cls-2 {
        fill: #2d2a26;
      }
    </style>
  </defs>
  <g id="Layer_1-2" data-name="Layer 1">
    <g>
      <path class="cls-2" d="M30.22,121.7H2.92V2.44H30.54c12.24,0,21.82,2.09,28.76,6.25,6.93,4.17,11.83,10.48,14.7,18.93,2.87,8.45,4.31,19.17,4.31,32.17,0,13.65-1.46,25.05-4.39,34.2-2.92,9.15-7.88,16.06-14.87,20.72-6.99,4.66-16.6,6.99-28.84,6.99Zm1.62-24.69h2.44c3.36,0,6.04-1,8.04-3.01,2-2,3.49-5.61,4.47-10.8s1.46-12.56,1.46-22.1c0-7.47-.33-13.48-.98-18.03-.65-4.55-1.57-7.99-2.76-10.32-1.19-2.33-2.63-3.9-4.31-4.71-1.68-.81-3.6-1.22-5.77-1.22h-2.6V97Z"/>
      <path class="cls-2" d="M133.33,122.85c-9.59,1.76-17.52,.85-23.79-2.74-6.27-3.58-11.33-9.67-15.16-18.28-3.84-8.6-6.96-19.45-9.36-32.56-3.67-20.03-3.29-35.79,1.15-47.29,4.44-11.49,13.59-18.52,27.44-21.06,9.91-1.82,17.93-.98,24.08,2.52,6.15,3.5,11.06,9.42,14.74,17.78,3.68,8.36,6.69,18.92,9.04,31.71,3.81,20.77,3.67,36.96-.42,48.56-4.09,11.6-13.33,18.72-27.71,21.36Zm-3.19-23.7c2.02-.37,3.49-1.66,4.41-3.87,.92-2.21,1.19-6.11,.82-11.71-.37-5.6-1.51-13.62-3.42-24.07-1.8-9.8-3.46-17.18-4.97-22.13-1.51-4.95-3.05-8.2-4.59-9.73-1.55-1.53-3.28-2.12-5.2-1.77-2.03,.37-3.56,1.62-4.6,3.73-1.04,2.12-1.41,5.82-1.1,11.1,.31,5.29,1.37,12.88,3.19,22.79,1.92,10.44,3.63,18.3,5.15,23.58,1.52,5.28,3.08,8.71,4.7,10.29,1.61,1.58,3.48,2.17,5.61,1.78Z"/>
      <path class="cls-2" d="M278.14,121.7h-37.86l-9.42-77.17h-.81l-7.96,77.17h-38.02L163.93,2.44h31.52l6.82,87.9h.97L214.46,2.44h32.98l11.86,87.25h.65l6.01-87.25h30.54l-18.36,119.25Z"/>
      <path class="cls-2" d="M379.52,121.7h-31.36l-19.33-63.04h-.49v71.98h-27.46V2.44h33.31l17.38,62.06h.65V2.44h27.29V121.7Z"/>
      <path class="cls-2" d="M417.54,2.44V96.19h28.11v25.51h-57.03V2.44h28.92Z"/>
      <path class="cls-2" d="M496.09,123.05c-9.62,1.55-17.53,.47-23.73-3.26-6.19-3.72-11.12-9.92-14.76-18.6-3.65-8.68-6.53-19.6-8.65-32.75-3.24-20.1-2.51-35.85,2.18-47.25,4.69-11.4,13.99-18.21,27.89-20.45,9.95-1.6,17.95-.59,24.02,3.04,6.07,3.63,10.85,9.66,14.35,18.09,3.5,8.43,6.28,19.07,8.34,31.9,3.36,20.85,2.86,37.03-1.48,48.54-4.35,11.51-13.74,18.42-28.17,20.75Zm-2.67-23.76c2.03-.33,3.53-1.58,4.49-3.77,.96-2.18,1.33-6.08,1.08-11.69-.24-5.61-1.21-13.65-2.9-24.14-1.58-9.84-3.08-17.25-4.49-22.23-1.41-4.98-2.87-8.26-4.38-9.83-1.51-1.57-3.23-2.19-5.16-1.88-2.03,.33-3.59,1.54-4.68,3.63-1.09,2.1-1.54,5.79-1.34,11.08,.19,5.29,1.09,12.91,2.69,22.85,1.69,10.48,3.23,18.38,4.64,23.69,1.4,5.31,2.89,8.78,4.47,10.39,1.58,1.61,3.43,2.24,5.57,1.9Z"/>
      <path class="cls-2" d="M549.46,2.44h37.21l30.06,131.72h-30.87l-7.97-36.03h-19.33l-3.9,23.56h-29.57L549.46,2.44Zm24.37,71.16l-5.2-39.32h-.98l-5.36,39.32h11.54Z"/>
      <path class="cls-2" d="M643.7,121.7h-27.29V2.44h27.62c12.24,0,21.82,2.09,28.76,6.25,6.93,4.17,11.83,10.48,14.7,18.93,2.87,8.45,4.31,19.17,4.31,32.17,0,13.65-1.46,25.05-4.39,34.2-2.92,9.15-7.88,16.06-14.87,20.72-6.99,4.66-16.6,6.99-28.84,6.99Zm1.62-24.69h2.44c3.36,0,6.04-1,8.04-3.01,2-2,3.49-5.61,4.47-10.8s1.46-12.56,1.46-22.1c0-7.47-.33-13.48-.98-18.03-.65-4.55-1.57-7.99-2.76-10.32-1.19-2.33-2.63-3.9-4.31-4.71-1.68-.81-3.6-1.22-5.77-1.22h-2.6V97Z"/>
    </g>
    <g>
      <path class="cls-1" d="M30.34,159.14c.04,1.64,.08,2.38,.08,2.38-.05,.49-.38,.53-.88,.57-4.12,.35-5.29-.36-7.8-.21-1.26,.09-1.22,.44-1.13,1.65,.08,.96-.09,1.82-.02,2.61,.1,1.52,.32,2.2,.21,3.75-.15,2.41,.21,3.88,.12,5.85-.03,.93-.08,1.5-.1,2.44,.62,.38,1.17,1.08,1.79,1.57,.44,.33,1.24,.67,1.55,1.11,.21,.25,.22,.57-.07,.8,.18-.15-2.24,1.8-3.32,2.53-.22,3.07-.11,5.67,.03,8.78,.16,5.07-.25,10.08,.09,15.09,.05,1.39,.43,5.28-.94,5.47-1.23,.19-2.53-.25-3.78-.16-.64,.09-1.3-.05-1.9-.07-1.24-.04-2.99,.64-3.73-.44-.62-.85-.46-2.86-.47-3.96-.01-1.37-.07-23.82-.11-24.96-.17-.08-.35-.19-.48-.31-.53-.51-2.93-1.82-3.08-1.97-.25-.24-.28-.6,.4-1.06,1.09-.69,3.19-2.14,3.19-2.14,.07-2.95-.03-2.94,0-5.57,.01-1.44,.13-2.88,.14-4.31,0-1.57-.28-3.65-.27-4.31,0-1.45,.29-1.97-1.36-2.07-1.31-.07-4.18-.39-5.36-.2-3.57,.65-3.17,.38-3.09-8.46,0-.4-.01-1.77,.3-2.02,.65-.52,3.88-.18,4.76-.24,1.52-.06,10.38,.21,13.18,.04,4.9-.28,5.48,0,8.79,0,2.16,0,3.48-.48,3.36,1.69-.18,3.12,.04,2.18-.04,5.35-.03,.8-.05,1.14-.08,.35,0,.44,0,.99,0,1.04,0-.19,.02-.38,.03-.59Z"/>
      <path class="cls-1" d="M68.28,160.96c-.1,.73-.8,1.43-2.34,1.4-3.3-.11-9.31-.51-13.81-.24-1.05,.1-.87,1.01-.75,2.08,.05,.49-.04,11.52-.02,11.96,0,0,0,0,0,0h0c0,.12,.06,.37,.09,.5,0,0,0,.04,0,.05,0,0,0-.01,0-.01,0,.02,.01,.07,.01,.07,0-.02,0-.04-.01-.06,.17,.39,.56,.34,1.34,.4,1.67,.12,3.17,.2,4.8,.02,.35-.05,2.44-.28,3.68-.11,1.66,.26,2.13,1.09,2.2,2.54,0,.26,.15,7.27,.14,7.52-.02,.34-.11,.63-.39,.82-.52,.34-5.56,.55-6.18,.58-.5,0-.99-.03-1.48-.05-.9-.03-2.7-.4-3.49-.01-.54,.24-.42,.41-.44,.99,0,.34-.05,12.52,.03,12.85,.08,.37,.44,.51,.86,.51,1.1-.06,13.7-.74,14.39,.12,.17,.21,.22,.44,.25,.65,.03,.38,0,7.98-.02,8.34-.04,.72-.21,1.41-.9,1.64-.39,.13-20.46-.39-20.92-.35-1.34,.09-2.84,.31-4.08-.13-.5-.28-.88-.54-.91-2.01-.09-14.06-.06-7.03-.11-27.57-1.51-.8-4.4-2.01-3.11-3.13,.25-.22,.57-.36,.85-.54,.32-.2,.65-.41,.95-.64,.45-.34,.83-.75,1.29-1.08,0-1.13-.1-24.64,.21-25.73,.23-.89,1.03-.75,1.89-.76,1.19,.02,23.58-.44,24.82-.08,1.18,.34,1.06,1.37,1.01,2.52-.11,1.92-.09,3.76,.05,5.51,.04,.39,.12,1.05,.06,1.42Z"/>
      <path class="cls-1" d="M108.53,213.45c-.11,.03-.17,.03-.23,.04-.12,.01-.24,.01-.36,0-1.77-.19-3.51,0-5.3,.05-.9,0-1.78-.08-2.66-.12-1.09-.09-2.65,.36-3.28-.6-.03-.05-5.68-16.11-5.7-16.16-.1-.3-.27-.32-.35-.22-.26,.91-3.01,8.87-4.53,12.82-1.82,4.69-1.72,4.14-7.01,4.06-1.88-.03-3.29-.09-5.02,.03-.94,.07-1.3-.3-1.34-.73,0-.1,11.61-29.07,11.65-29.16-.85-.51-3.8-1.58-3.78-2.58,.08-.41,.48-.72,.82-.97,.5-.37,1.63-1.07,2.07-1.59-1.5-4.39-1.09-3.19-3.21-8.04,0,0-1.72-4.94-5.88-15.28-.4-1-1.23-2.4-1.14-3.35,.26-.49,10.13-.29,10.69-.29,.78,0,1,.16,1.25,.91,.09,.26,5.2,15.54,5.47,15.55,0,0,5.44-14.35,5.44-14.35,.16-.56,.36-1.53,.79-1.9,.43-.38,8.25-.02,8.82,0,.32,.01,2.54,.08,2.7,.34,.2,.46-.95,2.72-1.12,3.21-1,3.3-6.51,17.37-9.6,22.94,.31,.26,2.65,2.33,2.53,2.72-.08,.26-2.79,2.6-2.98,2.76,.68,1.36,7.39,18.88,7.93,20.3,1,2.74,3.02,6.41,3.58,9.51-.11,.06-.25,.1-.25,.11Z"/>
      <path class="cls-1" d="M141.45,213.16c-.92,.02-3.05,.4-3.75,.18-1.32-.36-1.24-3.28-1.41-4.64-.17-1.23-.75-5.4-.9-6.44-.11-.76-.16-1.7-.86-2.01-.74-.35-4.99-.36-5.8-.35-3.1,.06-1.59-.28-3.69,9.2-.27,1.39-.23,3.39-1.54,4.01-.71,.31-1.43,.16-2.06,.19-1.59,.12-2.66,.26-4.01,.14-2.54-.2-1.2,.03-2.96,.12-1.88,.07-1.16-1.48-.78-3.42,.21-1,.53-1.91,.74-2.9,.16-.74,.15-1.37,.28-1.97,.21-1.01,3.43-18.37,3.97-21.55-.39-.2-1.56-.94-1.93-1.17-.75-.45-1.72-.61-2-1.39-.18-.48,.36-.71,.81-.98,.34-.22,.67-.41,.99-.65,.42-.32,1.07-.76,1.59-.77,.04,0,.07,0,.1,.02,0,0,.04-.02,.04-.02,0-.25,.29-.45,.51-.48,.43-.06,.55-.29,.88-.53,.33-1.97,4.14-24.65,5.57-26.05,.31-.24,9.7-.52,11.24-.04,1.93,.58,1.55,2.14,1.79,4,0,0,3.38,17.23,4.31,22.35,.33,.16,1.66,.7,1.72,1.06,0,0,.03,.01,.04,.02,.03-.02,.07-.04,.12-.06,.16-.05,.42,.04,.54,.18,.26,.27,1.62,.75,2.09,1.03,.72,.45,.88,1.01,.21,1.49-.23,.15-.75,.32-1.23,.63,0,0-2.48,1.5-2.49,1.5,.1,.6,3.97,26.53,3.78,25.9,.3,1.16,.35,1.41,.14,.45,1.17,4.14-.62,2.88-6.08,2.96Zm-8.26-24.43c.03-.07,.03-.02,.07-.16-.02,.03-.04,.07-.06,.1,.06-.44-.09-1.06-.05-.87,0-2.17-.42-4.42-.69-6.58-.29-2.3-.62-4.59-.99-6.88-.02-.14-.05-.29-.17-.38-.33,.77-.55,1.59-.74,2.41-.42,1.83-.72,3.68-1.02,5.53-.13,.79-.26,1.58-.39,2.37-.14,.87-.33,1.7-.52,2.56-.14,.62-.4,1.59-.02,2.18,.05,.07,2.3,.13,2.38,.14,.7,.02,1.68,.16,2.11-.39,.09-.14,.1-.11,.09-.03h0Z"/>
      <path class="cls-1" d="M186.54,203.85c-3.71,10.88-16.87,10.6-21.81,8.66-5.43-2.11-9.64-11.94-9.83-16.47,.87-.26,1.42-.42,3.11-.69,9.43-1.52,5.49-2,8.41,4.41,2.08,4.7,8.99,5.3,9.86,.08,.35-2.33-.8-5.59-.25-3.6-.51-1.55-1.32-3-2.3-4.33-1.1-1.47-5.39-6.04-6.28-6.89-.34,.04-1.68,.19-2.02,.23-.95,.12-2.55,.71-3.13-.04-.62-.81,.96-3.16,1.38-4.09-15.42-13.55-5.95-31.46,8.36-31.26,4.31,.06,6.29,.32,9.35,3.18,4.37,4.13,5.88,11.51,5.13,12.42-.82,.97-6.78,1.6-8.05,1.7-.44,0-.78,.13-1.02-.24-.18-.28-.22-.64-.24-.98-.09-2.28-.19-3.91-2.36-5.57-4.66-3.54-10.26,1.2-8.44,7.31,1.1,3.69,2.97,5.47,5.37,7.59,.38-.05,.76-.06,1.11-.11,.72-.12,2.45-.5,3.1-.24,1.39,.53-.36,2.42-.74,3.8,5.1,5.18,7.96,7.07,10.65,13.95,1.25,3.26,2.23,6.47,.63,11.18Z"/>
      <path class="cls-1" d="M249.8,171.58c-.12,.89-4.29,.84-5.19,.8-1.75-.08-4.64,.61-4.64-1.16,0,.38,.12-4.42,.05-6.15-.12-2.96-.44-2.92-1.14-3.73-.74-.86-1.31-1.36-3.08-1.29-5.91,.3-4.81,3.27-4.75,17.8,1.18,.52,.38,.27,1.32,.76,1.38,.73,3.31,1.36,2.18,2.44-.11,.1-3.31,2.07-3.5,2.18,0,17.42-.5,19.1,3.7,20.43,2.06,.66,3.68-.03,4.36-1.14,1.22-1.97,.75-8.15,.74-11.79,0-.32,.06-.64,.37-.76,.3-.11,8.7-.08,9,.03,1,.36,.41,11.3,.31,12.37-1.14,11.85-13.34,11.89-18.03,10.69-4.41-1.13-8.43-4.9-9.75-7.98-1.84-4.05-1.39-17.36-1.33-21.79-1.16-.75-1.21-.53-2.47-1.32-2.7-1.72-.22-2.36,2.54-4.04,.12-8.33-1.92-24.25,11.39-26.78,6.19-1.2,16.67,.43,17.64,9.7,.27,2.56,.32,10.52,.28,10.75Z"/>
      <path class="cls-1" d="M293.21,182.85c-.88,.56-1.96,1.03-2.11,1.13,.04,21.82,.03,17.85,.05,25.17,0,1.65,.15,3.62-1.46,4.17-1.1,.37-6.34,.2-7.6,.09-1.11-.11-1.85-.07-1.82-1.18,.21-8.53-.25-14.05-.37-23.31-.03-.49,.07-1.06-.18-1.34-.25-.27-.84-.17-1.32-.18-5.36,0-5.64,0-7.69,0-.3-.07-.05,13.14-.04,13.46,.02,2.15,.66,9.74-.15,11.67-.53,1.24-6.94,.83-8.26,.68-.29-.03-1.87-.22-2.12-.36-.54-.35-.1-4.04,0-4.68,.02-.12,.13-9.22,.1-10.06-.32-9.73-.05-4.84,.15-13.83-.23-.12-.64-.35-.79-.43-.4-.2-.73-.52-1.08-.78-.84-.62-1.02-.58-1.61-.98-.84-.61-.34-1.46,.55-1.79,1.13-.39,1.92-1.24,3-1.81,0-1.38,0-2.75,0-4.13-.07-7.49-.31-13.83-.1-20.3,.13-3.3-.25-2.65,6.34-2.65,1.65-.01,3.76-.2,4.14,1.39,.12,.54,.17,4.53,.07,2.98,0,1.67-.02,2.11,.02,.37,.04,1.12-.36,18.4,0,19.33,.06,.12,.14,.18,.28,.21,.25,.04,3.85,.15,7.48,.02,1.2-.05,1.99,.11,1.92-1.02-.4-5.88-.13-16.83,.13-20.13,.06-.82-.04-1.84,.47-2.5,.57-.75,1.52-.69,2.44-.68,1.94,0,2.53-.1,4.9,0,3.3,0,2.48-.46,2.53,26.72,.44,.21,1.18,.7,1.45,.92,.4,.31,.68,.68,1.11,.92,2.35,1.26,1.39,1.73-.45,2.89Z"/>
      <path class="cls-1" d="M316.81,184.62c.06,13.14,.29,25.71-.13,27.77-.1,.47-.35,.79-.81,.92-.39,.11-3.16,.12-1.87,.02-.12,0-.65,0-.79,.01,.14,0,.29,.01,.44,.02-.67,.04-6.59,.33-7.24,.09-.64-.25-.72-.87-.73-1.55,0-2.21,.3-6.49,.24-8.1-.04-1.25-.11-2.48-.06-3.68,.11-2.33,.11-2.36,.03-3.48-.09-1.14-.22-2.27-.17-3.42,.15-3.61,.43-.11,.09-9.08-.83-.53-2.5-1.29-3.19-2.02-.97-1.03,2.36-2.12,3.44-3.04,.16-1.61,.16-2.49-.04-4.46-.47-4.69-.34-14.98-.26-19.69,.03-1.08,.07-2.31,.87-3.02,.95-.77,1.92-.46,3.11-.19,2.05,.54,7.37-1.18,7.35,.94-.81,9.05-.06,10.31-.24,16.71-.02,1.73-.1,7.7-.09,9.32,.62,.38,3.88,1.94,3.8,2.66-.06,.79-3.1,2.83-3.76,3.24Z"/>
      <path class="cls-1" d="M361.06,171.58c-.12,.89-4.29,.84-5.19,.8-1.75-.08-4.64,.61-4.64-1.16,0,.38,.12-4.42,.05-6.15-.12-2.96-.44-2.92-1.14-3.73-.74-.86-1.31-1.36-3.08-1.29-5.91,.3-4.81,3.27-4.75,17.8,1.18,.52,.38,.27,1.32,.76,1.38,.73,3.31,1.36,2.18,2.44-.11,.1-3.31,2.07-3.5,2.18,0,17.42-.5,19.1,3.7,20.43,2.06,.66,3.68-.03,4.36-1.14,1.22-1.97,.75-8.15,.74-11.79,0-.32,.06-.64,.37-.76,.3-.11,8.7-.08,9,.03,1,.36,.41,11.3,.31,12.37-1.14,11.85-13.34,11.89-18.03,10.69-4.41-1.13-8.43-4.9-9.75-7.98-1.84-4.05-1.39-17.36-1.33-21.79-1.16-.75-1.21-.53-2.47-1.32-2.7-1.72-.22-2.36,2.54-4.04,.12-8.33-1.92-24.25,11.39-26.78,6.19-1.2,16.67,.43,17.64,9.7,.27,2.56,.32,10.52,.28,10.75Z"/>
      <path class="cls-1" d="M404.3,213.53c-3.3-.29-2.33-.67-7.95-.05-.64,.07-1.18,.06-1.6-.44-.75-.86-11.75-22.83-12.25-23.85-.4-.56-.27,21.1-.27,21.79,0,.67,.12,1.72-.44,2.03-.65,.37-8.74,.03-9.48-.02-.72-.08-.98-.57-1.03-1.29,0-.67,.14-21.69,.12-22.36-.07-1.93-.28-3.18-.26-5.13-.98-.65-1.71-1.48-2.33-1.99-.29-.22-.63-.41-.87-.69-.56-.71,.05-1.03,.82-1.42,.91-.48,1.67-1.26,2.58-1.76,.11-1.71,.05,1.35,.14-2.44-.02,.41-.03,.82-.05,1.27-.05-2.26,0-9.62-.02-7.93,.14-18.06-1.05-17.82,3.09-17.88,8.2,.01,8.04-.98,7.86,3.36-.37,7.8-.04,12.71-.04,12.71-.15,1.73-.18,4.43,.65,2.9,3.13-6.26,5.54-10.28,9.75-17.73,.47-.83,.68-1.39,1.62-1.39,9.47,.17,7.05,.07,9.11,.2,.46,.05,.98,.08,1.04,.56,.1,.68-.92,2.32-1.28,2.91-7.54,12.06-5.08,10.02-12.52,22.76,1.76,1.21,.55,.36,2.15,1.36,.32,.2,1.39,1.04,1.73,1.3,.36,.27,.63,.49,.33,.87-.11,.14-2.63,2.21-2.93,2.52,1.77,3.57,3.64,7.38,5.27,10.99,7.62,16.53,10.95,19.16,7.04,18.85Z"/>
      <path class="cls-1" d="M444.15,160.96c-.1,.73-.8,1.43-2.34,1.4-3.3-.11-9.31-.51-13.81-.24-1.05,.1-.87,1.01-.75,2.08,.05,.49-.04,11.52-.02,11.96,0,0,0,0,0,0h0c0,.12,.06,.37,.09,.5,0,0,0,.04,0,.05,0,0,0-.01,0-.01,0,.02,.01,.07,.01,.07,0-.02,0-.04-.01-.06,.17,.39,.56,.34,1.34,.4,1.67,.12,3.17,.2,4.8,.02,.35-.05,2.44-.28,3.68-.11,1.66,.26,2.13,1.09,2.2,2.54,0,.26,.15,7.27,.14,7.52-.02,.34-.11,.63-.39,.82-.52,.34-5.56,.55-6.18,.58-.5,0-.99-.03-1.48-.05-.9-.03-2.7-.4-3.49-.01-.54,.24-.42,.41-.44,.99,0,.34-.05,12.52,.03,12.85,.08,.37,.44,.51,.86,.51,1.1-.06,13.7-.74,14.39,.12,.17,.21,.22,.44,.25,.65,.03,.38,0,7.98-.02,8.34-.04,.72-.21,1.41-.9,1.64-.39,.13-20.46-.39-20.92-.35-1.34,.09-2.84,.31-4.08-.13-.5-.28-.88-.54-.91-2.01-.09-14.06-.06-7.03-.11-27.57-1.51-.8-4.4-2.01-3.11-3.13,.25-.22,.57-.36,.85-.54,.32-.2,.65-.41,.95-.64,.45-.34,.83-.75,1.29-1.08,0-1.13-.1-24.64,.21-25.73,.23-.89,1.03-.75,1.89-.76,1.19,.02,23.58-.44,24.82-.08,1.18,.34,1.06,1.37,1.01,2.52-.11,1.92-.09,3.76,.05,5.51,.04,.39,.12,1.05,.06,1.42Z"/>
      <path class="cls-1" d="M492.6,181.63c-.27,.66-3.09,2.42-3.7,2.75-.14,23.9-.11,18.5-.17,27.67,0,.4,.06,.93-.21,1.2-.38,.38-5.77,.12-6.36,.14-5.7,.22-4.67,.88-6.46-3.99-10.02-27.2-5.6-15.27-8.57-23.07-.31-.84-.82-.89-.96,1.12-.07,1,.04,2.01,.09,3.03,.25,4.66,.17,8.91,.04,21.76-.02,1.52-1.3,1.22-2.83,1.25-.86,0-7,.17-7.65-.39-.28-.24-.32-.58-.34-.87-.12-8.96,.05-17.82,.09-27.44-.83-.34-2.43-1.55-3.16-2.15-1.26-1.04-1.82-.9-.36-2.18,.24-.19,.51-.36,.78-.48,1.25-.55,1.75-.82,2.73-1.57-.12-20.14-.12-22.26,.08-25.93,.17-1.3,1.81-1.01,3.16-1,10.93,.15,7.17-2.35,11.38,8.69-.59-1.56,6.52,19.77,7.76,20.89,.17,.07,.21-.59,.23-.77,0,0-.39-10.97-.43-21.89-.08-8.98-1.08-6.92,9.41-6.78,1.09,.03,1.89-.11,1.94,1,0,.46-.29,10.6-.15,21.7,0,1.35,0,2.7-.02,4.06,1.63,.93,1.46,1.2,3.01,2.22,.41,.27,.85,.55,.65,1.02Z"/>
      <path class="cls-1" d="M515.76,157.4c.02,.96,.05,1.38,.05,1.38-.03,.29-.22,.31-.51,.33-2.4,.2-3.09-.21-4.55-.13-.73,.05-.71,.25-.66,.96,.05,.56-.05,1.06-.01,1.52,.06,.89,.19,1.28,.12,2.18-.09,1.41,.13,2.26,.07,3.41-.02,.54-.05,.88-.06,1.42,.36,.22,.68,.63,1.04,.91,.26,.19,.72,.39,.91,.65,.12,.15,.13,.33-.04,.47,.11-.09-1.3,1.05-1.93,1.48-.13,1.79-.06,3.31,.02,5.12,.09,2.96-.15,5.88,.05,8.8,.03,.81,.25,3.08-.55,3.19-.72,.11-1.48-.15-2.2-.09-.37,.05-.76-.03-1.11-.04-.72-.02-1.74,.37-2.17-.25-.36-.49-.27-1.67-.28-2.31,0-.8-.04-13.89-.07-14.55-.1-.04-.21-.11-.28-.18-.31-.3-1.71-1.06-1.79-1.15-.14-.14-.16-.35,.23-.62,.64-.4,1.86-1.25,1.86-1.25,.04-1.72-.02-1.71,0-3.25,0-.84,.08-1.68,.08-2.51,0-.91-.16-2.13-.16-2.51,0-.85,.17-1.15-.79-1.21-.76-.04-2.43-.23-3.12-.12-2.08,.38-1.85,.22-1.8-4.93,0-.24,0-1.04,.18-1.18,.38-.3,2.26-.1,2.77-.14,.89-.03,6.05,.12,7.69,.02,2.86-.17,3.2,0,5.12,0,1.26,0,2.03-.28,1.96,.99-.11,1.82,.02,1.27-.03,3.12-.02,.47-.03,.67-.04,.2,0,.26,0,.58,0,.61,0-.11,.01-.22,.02-.34Z"/>
      <path class="cls-1" d="M549.17,170.21c-.33,.62-1.53,1.36-2.08,1.75,.01,.94,.3,16.49-.49,17-.29,.18-3,.09-3.32,.08-1.61-.09-.76-.05-1.6,.07-.24,.04-.44-.01-.59-.2-.56-.8,.07-12.34,.03-13.33-.19-5.84-1.65,6.01-4.1,13.13-.07,.18-.21,.3-.45,.33,.6-.06-2.91-.06-3.51-.05-.31-.01-.63,.06-.77-.22-.06-.11-.19-.62-.22-.74-.32-1.14-1.3-5.27-2.09-8.29-3.22-12.3-1.75-4.98-1.97,6.96,0-.03-.03,1.81-.03,1.84-.02,.31-.14,.47-.46,.47-1.28-.03-2.39-.1-3.67-.04-.52,.04-1.44,.22-1.86-.08-.34-.28-.25-1.39-.25-1.85-.04-4.94,.13-11.26,.1-14.81-.37-.16-1.02-.69-1.35-.93-1.1-.75-1.97-.71,1.32-2.71,0-1.4,0-4.17,.03-2.78,0-.68,0,.11,0-1.16,0,.25-.02,.51-.02,.78-.04-1.74,.1-7.39,.07-6.09,.05-2.3,.06-3.68,.02-5.67-.03-1.06,.99-.78,1.96-.75,.44,.02,2.73-.21,4.4-.21,.28,0,.84-.03,1.09,.05,1.1,.33,4.64,19.24,4.82,20.36,.08,.47-.04,1.15,.47,1.2,.59-2.44,4.42-21.12,4.43-21.13,.25-.62,5.35-.45,6.03-.45,.85,0,1.72-.16,1.95,.61,.16,.62-.02,14.04,0,15.04,.26,.17,2.13,1.49,2.12,1.79Z"/>
      <path class="cls-1" d="M604.87,213.16c-.92,.02-3.05,.4-3.75,.18-1.32-.36-1.24-3.28-1.41-4.64-.17-1.23-.75-5.4-.9-6.44-.11-.76-.16-1.7-.86-2.01-.74-.35-4.99-.36-5.8-.35-3.1,.06-1.59-.28-3.69,9.2-.27,1.39-.23,3.39-1.54,4.01-.71,.31-1.43,.16-2.06,.19-1.59,.12-2.66,.26-4.01,.14-2.54-.2-1.2,.03-2.96,.12-1.88,.07-1.16-1.48-.78-3.42,.21-1,.53-1.91,.74-2.9,.16-.74,.15-1.37,.28-1.97,.21-1.01,3.43-18.37,3.97-21.55-.39-.2-1.56-.94-1.93-1.17-.75-.45-1.72-.61-2-1.39-.18-.48,.36-.71,.81-.98,.34-.22,.67-.41,.99-.65,.42-.32,1.07-.76,1.59-.77,.04,0,.07,0,.1,.02,0,0,.04-.02,.04-.02,0-.25,.29-.45,.51-.48,.43-.06,.55-.29,.88-.53,.33-1.97,4.14-24.65,5.57-26.05,.31-.24,9.7-.52,11.24-.04,1.93,.58,1.55,2.14,1.79,4,0,0,3.38,17.23,4.31,22.35,.33,.16,1.66,.7,1.72,1.06,0,0,.03,.01,.04,.02,.03-.02,.07-.04,.12-.06,.16-.05,.42,.04,.54,.18,.26,.27,1.62,.75,2.09,1.03,.72,.45,.88,1.01,.21,1.49-.23,.15-.75,.32-1.23,.63,0,0-2.48,1.5-2.49,1.5,.1,.6,3.97,26.53,3.78,25.9,.3,1.16,.35,1.41,.14,.45,1.17,4.14-.62,2.88-6.08,2.96Zm-8.26-24.43c.03-.07,.03-.02,.07-.16-.02,.03-.04,.07-.06,.1,.06-.44-.09-1.06-.05-.87,0-2.17-.42-4.42-.69-6.58-.29-2.3-.62-4.59-.99-6.88-.02-.14-.05-.29-.17-.38-.33,.77-.55,1.59-.74,2.41-.42,1.83-.72,3.68-1.02,5.53-.13,.79-.26,1.58-.39,2.37-.14,.87-.33,1.7-.52,2.56-.14,.62-.4,1.59-.02,2.18,.05,.07,2.3,.13,2.38,.14,.7,.02,1.68,.16,2.11-.39,.09-.14,.1-.11,.09-.03h0Z"/>
      <path class="cls-1" d="M651.21,184.1c-2.1,4.37-7.46,6.26-12.27,6.03-1.25-.05-4.48-.3-5.66,.12-.09,0,.03,4.55,.03,4.64,.25,3.31-.31,1.62,.09,5.41,.03,.31,.06,.63,.04,.95-.09,1.86-.23,1.66,0,4.61,.34,4.39,.1,1.93,.14,5.54,0,.72,.01,1.5-.63,1.81-1.02,.48-6.28,.34-7.42,.21-5.15-.59-2.34,3.03-3.24-29.16-.78-.6-2.66-2.04-3.51-2.52-.23-.13-.46-.31-.47-.58,0-.38,.48-.59,.75-.79,.81-.57,2.32-1.66,3.11-2.08,.59-10.19,.1-15.83,.37-23.39,.15-3.92-.7-3.34,5.63-3.53,.35,0,6.24,0,7.4,.06,2.32,.19,2.2,.16,4.28,.37l.03,.05c2.99,.28,5.74,1.12,8.24,3,6.08,4.69,5.31,24.66,3.1,29.24Zm-8.73-12.21c.11-1.78-.29-6.8-1.29-8.08-1.11-1.47-6.02-2.19-7.21-1.05-.95,.91-.53,3.7-.69,5.04-.2,2.18-.12,4.41-.02,6.61,.04,.72,.07,1.5-.12,2.24-.13,.65-.15,1.23-.08,1.76,.03,.26,.03,1.84,.23,2.01,.4,.37,5.06,.3,5.6,.21,4.09-.68,3.35-4.59,3.57-8.73h0Z"/>
      <path class="cls-1" d="M693.09,184.1c-2.1,4.37-7.46,6.26-12.27,6.03-1.25-.05-4.48-.3-5.66,.12-.09,0,.03,4.55,.03,4.64,.25,3.31-.31,1.62,.09,5.41,.03,.31,.06,.63,.04,.95-.09,1.86-.23,1.66,0,4.61,.34,4.39,.1,1.93,.14,5.54,0,.72,.01,1.5-.63,1.81-1.02,.48-6.28,.34-7.42,.21-5.15-.59-2.34,3.03-3.24-29.16-.78-.6-2.66-2.04-3.51-2.52-.23-.13-.46-.31-.47-.58,0-.38,.48-.59,.75-.79,.81-.57,2.32-1.66,3.11-2.08,.59-10.19,.1-15.83,.37-23.39,.15-3.92-.7-3.34,5.63-3.53,.35,0,6.24,0,7.4,.06,2.32,.19,2.2,.16,4.28,.37l.03,.05c2.99,.28,5.74,1.12,8.24,3,6.08,4.69,5.31,24.66,3.1,29.24Zm-8.73-12.21c.11-1.78-.29-6.8-1.29-8.08-1.11-1.47-6.02-2.19-7.21-1.05-.95,.91-.53,3.7-.69,5.04-.2,2.18-.12,4.41-.02,6.61,.04,.72,.07,1.5-.12,2.24-.13,.65-.15,1.23-.08,1.76,.03,.26,.03,1.84,.23,2.01,.4,.37,5.06,.3,5.6,.21,4.09-.68,3.35-4.59,3.57-8.73h0Z"/>
    </g>
  </g>
</svg>