<?xml version="1.0" encoding="UTF-8"?>
<svg id="Layer_2" data-name="Layer 2" xmlns="http://www.w3.org/2000/svg" xmlns:xlink="http://www.w3.org/1999/xlink" viewBox="0 0 425 425">
  <defs>
    <style>
      .cls-1 {
        fill: #ffad01;
      }

      .cls-2 {
        opacity: .5;
      }

      .cls-3 {
        filter: url(#drop-shadow-1);
      }

      .cls-4 {
        fill: #ffda57;
      }

      .cls-5 {
        fill: #db8616;
      }

      .cls-6 {
        fill: #2d2a26;
      }

      .cls-7 {
        fill: #f4a025;
      }

      .cls-8 {
        fill: #ffeb88;
      }
    </style>
    <filter id="drop-shadow-1" filterUnits="userSpaceOnUse">
      <feOffset dx="1" dy="1"/>
      <feGaussianBlur result="blur" stdDeviation="1"/>
      <feFlood flood-color="#000" flood-opacity=".49"/>
      <feComposite in2="blur" operator="in"/>
      <feComposite in="SourceGraphic"/>
    </filter>
  </defs>
  <g id="Layer_1-2" data-name="Layer 1">
    <g>
      <circle class="cls-6" cx="212.5" cy="212.5" r="212.5"/>
      <g>
        <path class="cls-1" d="M343.09,273.84v20c0,11.78-35.29,21.33-78.83,21.33s-78.83-9.55-78.83-21.33v-20h157.65Z"/>
        <path class="cls-7" d="M264.26,310.01c-43.53,0-78.83-9.55-78.83-21.33v5.16c0,11.78,35.29,21.33,78.83,21.33s78.83-9.55,78.83-21.33v-5.16c0,11.78-35.29,21.33-78.83,21.33Z"/>
        <ellipse class="cls-4" cx="264.26" cy="273.84" rx="78.83" ry="21.33"/>
        <path class="cls-8" d="M264.26,293.36c-42.42,0-77-9.07-78.75-20.43-.05,.3-.08,.6-.08,.9,0,11.78,35.29,21.33,78.83,21.33s78.83-9.55,78.83-21.33c0-.3-.03-.6-.08-.9-1.75,11.36-36.33,20.43-78.75,20.43Z"/>
        <path class="cls-1" d="M264.26,259.79c19.77,0,56.91,2.56,72.8,12.4,.77,.48,1.45,.96,2.03,1.43-.15-1.35-1.72-3.06-4.35-4.74-15.38-9.84-51.34-12.4-70.49-12.4s-55.12,2.57-70.49,12.4c-2.63,1.68-4.19,3.39-4.35,4.74,.59-.47,1.26-.95,2.03-1.43,15.87-9.83,52.95-12.4,72.8-12.4Z"/>
      </g>
      <g>
        <path class="cls-1" d="M331,244.23v20c0,11.78-35.29,21.33-78.83,21.33s-78.83-9.55-78.83-21.33v-20h157.65Z"/>
        <path class="cls-7" d="M252.17,280.4c-43.53,0-78.83-9.55-78.83-21.33v5.16c0,11.78,35.29,21.33,78.83,21.33s78.83-9.55,78.83-21.33v-5.16c0,11.78-35.29,21.33-78.83,21.33Z"/>
        <ellipse class="cls-4" cx="252.17" cy="244.23" rx="78.83" ry="21.33"/>
        <path class="cls-8" d="M252.17,263.75c-42.42,0-77-9.07-78.75-20.43-.05,.3-.08,.6-.08,.9,0,11.78,35.29,21.33,78.83,21.33s78.83-9.55,78.83-21.33c0-.3-.03-.6-.08-.9-1.75,11.36-36.33,20.43-78.75,20.43Z"/>
        <path class="cls-1" d="M252.17,230.19c19.77,0,56.91,2.56,72.8,12.4,.77,.48,1.45,.96,2.03,1.43-.15-1.35-1.72-3.06-4.35-4.74-15.38-9.84-51.34-12.4-70.49-12.4s-55.12,2.57-70.49,12.4c-2.63,1.68-4.19,3.39-4.35,4.74,.59-.47,1.26-.95,2.03-1.43,15.87-9.83,52.95-12.4,72.8-12.4Z"/>
      </g>
      <g>
        <path class="cls-1" d="M338.98,214.62v20c0,11.78-35.29,21.33-78.83,21.33s-78.83-9.55-78.83-21.33v-20h157.65Z"/>
        <path class="cls-7" d="M260.15,250.79c-43.53,0-78.83-9.55-78.83-21.33v5.16c0,11.78,35.29,21.33,78.83,21.33s78.83-9.55,78.83-21.33v-5.16c0,11.78-35.29,21.33-78.83,21.33Z"/>
        <ellipse class="cls-4" cx="260.15" cy="214.62" rx="78.83" ry="21.33"/>
        <path class="cls-8" d="M260.15,234.14c-42.42,0-77-9.07-78.75-20.43-.05,.3-.08,.6-.08,.9,0,11.78,35.29,21.33,78.83,21.33s78.83-9.55,78.83-21.33c0-.3-.03-.6-.08-.9-1.75,11.36-36.33,20.43-78.75,20.43Z"/>
        <path class="cls-1" d="M260.15,200.58c19.77,0,56.91,2.56,72.8,12.4,.77,.48,1.45,.96,2.03,1.43-.15-1.35-1.72-3.06-4.35-4.74-15.38-9.84-51.34-12.4-70.49-12.4s-55.12,2.57-70.49,12.4c-2.63,1.68-4.19,3.39-4.35,4.74,.59-.47,1.26-.95,2.03-1.43,15.87-9.83,52.95-12.4,72.8-12.4Z"/>
      </g>
      <g>
        <path class="cls-1" d="M320.88,185.01v20c0,11.78-35.29,21.33-78.83,21.33s-78.83-9.55-78.83-21.33v-20h157.65Z"/>
        <path class="cls-7" d="M242.05,221.18c-43.53,0-78.83-9.55-78.83-21.33v5.16c0,11.78,35.29,21.33,78.83,21.33s78.83-9.55,78.83-21.33v-5.16c0,11.78-35.29,21.33-78.83,21.33Z"/>
        <ellipse class="cls-4" cx="242.05" cy="185.01" rx="78.83" ry="21.33"/>
        <path class="cls-8" d="M242.05,204.53c-42.42,0-77-9.07-78.75-20.43-.05,.3-.08,.6-.08,.9,0,11.78,35.29,21.33,78.83,21.33s78.83-9.55,78.83-21.33c0-.3-.03-.6-.08-.9-1.75,11.36-36.33,20.43-78.75,20.43Z"/>
        <path class="cls-1" d="M242.05,170.97c19.77,0,56.91,2.56,72.8,12.4,.77,.48,1.45,.96,2.03,1.43-.15-1.35-1.72-3.06-4.35-4.74-15.38-9.84-51.34-12.4-70.49-12.4s-55.12,2.57-70.49,12.4c-2.63,1.68-4.19,3.39-4.35,4.74,.59-.47,1.26-.95,2.03-1.43,15.87-9.83,52.95-12.4,72.8-12.4Z"/>
      </g>
      <g>
        <path class="cls-1" d="M353.96,155.4v20c0,11.78-35.29,21.33-78.83,21.33s-78.83-9.55-78.83-21.33v-20h157.65Z"/>
        <path class="cls-7" d="M275.13,191.57c-43.53,0-78.83-9.55-78.83-21.33v5.16c0,11.78,35.29,21.33,78.83,21.33s78.83-9.55,78.83-21.33v-5.16c0,11.78-35.29,21.33-78.83,21.33Z"/>
        <ellipse class="cls-4" cx="275.13" cy="155.4" rx="78.83" ry="21.33"/>
        <path class="cls-8" d="M275.13,174.93c-42.42,0-77-9.07-78.75-20.43-.05,.3-.08,.6-.08,.9,0,11.78,35.29,21.33,78.83,21.33s78.83-9.55,78.83-21.33c0-.3-.03-.6-.08-.9-1.75,11.36-36.33,20.43-78.75,20.43Z"/>
        <path class="cls-1" d="M275.13,141.36c19.77,0,56.91,2.56,72.8,12.4,.77,.48,1.45,.96,2.03,1.43-.15-1.35-1.72-3.06-4.35-4.74-15.38-9.84-51.34-12.4-70.49-12.4s-55.12,2.57-70.49,12.4c-2.63,1.68-4.19,3.39-4.35,4.74,.59-.47,1.26-.95,2.03-1.43,15.87-9.83,52.95-12.4,72.8-12.4Z"/>
      </g>
      <path class="cls-1" d="M324.87,125.79v20c0,11.78-35.29,21.33-78.83,21.33s-78.83-9.55-78.83-21.33v-20h157.65Z"/>
      <path class="cls-7" d="M246.04,161.96c-43.53,0-78.83-9.55-78.83-21.33v5.16c0,11.78,35.29,21.33,78.83,21.33s78.83-9.55,78.83-21.33v-5.16c0,11.78-35.29,21.33-78.83,21.33Z"/>
      <ellipse class="cls-4" cx="246.04" cy="125.79" rx="78.83" ry="21.33"/>
      <path class="cls-8" d="M246.04,145.32c-42.42,0-77-9.07-78.75-20.43-.05,.3-.08,.6-.08,.9,0,11.78,35.29,21.33,78.83,21.33s78.83-9.55,78.83-21.33c0-.3-.03-.6-.08-.9-1.75,11.36-36.33,20.43-78.75,20.43Z"/>
      <path class="cls-1" d="M246.04,111.75c19.77,0,56.91,2.56,72.8,12.4,.77,.48,1.45,.96,2.03,1.43-.15-1.35-1.72-3.06-4.35-4.74-15.38-9.84-51.34-12.4-70.49-12.4s-55.12,2.57-70.49,12.4c-2.63,1.68-4.19,3.39-4.35,4.74,.59-.47,1.26-.95,2.03-1.43,15.87-9.83,52.95-12.4,72.8-12.4Z"/>
      <g class="cls-2">
        <path class="cls-5" d="M253.5,244.23c0-36.63-24.98-67.41-58.83-76.26-18.26,3.72-30.35,9.55-31.36,16.14h0c-.02,.15-.04,.29-.05,.44-.01,.15-.02,.31-.02,.46v20c0,5.17,6.8,9.91,18.1,13.6v16.01c0,.08,0,.16,.01,.24-4.65,2.57-7.45,5.44-7.92,8.46h0c-.02,.15-.04,.29-.05,.44-.01,.15-.02,.31-.02,.46v20c0,4.17,4.43,8.07,12.09,11.35v18.26c0,6.96,12.31,13.13,31.35,17.03,22.06-13.97,36.71-38.59,36.71-66.64Z"/>
      </g>
      <g>
        <path class="cls-1" d="M242.05,236.35c0,43.53-35.29,78.83-78.83,78.83h-12.66V157.52h12.66c43.53,0,78.83,35.29,78.83,78.83Z"/>
        <path class="cls-7" d="M163.23,157.52h-4.59c43.53,0,78.83,35.29,78.83,78.83s-35.29,78.83-78.83,78.83h4.59c43.53,0,78.83-35.29,78.83-78.83s-35.29-78.83-78.83-78.83Z"/>
        <g>
          <circle class="cls-4" cx="150.56" cy="236.35" r="78.83"/>
          <path class="cls-1" d="M83.65,236.35c0-38.51,30.64-69.81,68.9-70.85-.66-.02-1.32-.03-1.98-.03-39.17,0-70.88,31.7-70.88,70.88s31.7,70.88,70.88,70.88c.66,0,1.32-.01,1.98-.03-38.18-1.04-68.9-32.27-68.9-70.85Z"/>
          <path class="cls-8" d="M217.48,236.35c0-38.51-30.64-69.81-68.9-70.85,.66-.02,1.32-.03,1.98-.03,39.17,0,70.88,31.7,70.88,70.88s-31.7,70.88-70.88,70.88c-.66,0-1.32-.01-1.98-.03,38.18-1.04,68.9-32.27,68.9-70.85Z"/>
        </g>
      </g>
      <g class="cls-3">
        <polygon class="cls-1" points="119.17 280.16 147.9 260.81 148.03 260.94 172.63 285.11 154.31 190.08 141.01 224.36 132.51 245.98 119.17 280.16"/>
        <polygon class="cls-1" points="108 221.6 130.06 243.27 137.48 224.26 108 221.6"/>
        <polygon class="cls-1" points="194.3 229.52 164.68 226.75 168.57 246.85 194.3 229.52"/>
      </g>
    </g>
  </g>
</svg>