<svg width="83" height="82" viewBox="0 0 83 82" fill="none" xmlns="http://www.w3.org/2000/svg">
<g clipPath="url(#clip0_4555_37647)">
<path d="M41.7852 82C64.4288 82 82.7852 63.6437 82.7852 41C82.7852 18.3563 64.4288 0 41.7852 0C19.1415 0 0.785156 18.3563 0.785156 41C0.785156 63.6437 19.1415 82 41.7852 82Z" fill="#2D2A26"/>
<path d="M66.9816 52.835V56.6938C66.9816 58.9666 60.1727 60.8092 51.7721 60.8092C43.3714 60.8092 36.5625 58.9666 36.5625 56.6938V52.835H66.9797H66.9816Z" fill="#FFAD01"/>
<path d="M51.7721 59.8137C43.3733 59.8137 36.5625 57.9711 36.5625 55.6982V56.6938C36.5625 58.9667 43.3714 60.8093 51.7721 60.8093C60.1727 60.8093 66.9816 58.9667 66.9816 56.6938V55.6982C66.9816 57.9711 60.1727 59.8137 51.7721 59.8137Z" fill="#F4A025"/>
<path d="M51.7721 56.9506C60.1721 56.9506 66.9816 55.1081 66.9816 52.8352C66.9816 50.5623 60.1721 48.7197 51.7721 48.7197C43.3721 48.7197 36.5625 50.5623 36.5625 52.8352C36.5625 55.1081 43.3721 56.9506 51.7721 56.9506Z" fill="#FFDA57"/>
<path d="M51.7721 56.601C43.5875 56.601 36.9156 54.851 36.5779 52.6592C36.5683 52.7171 36.5625 52.7749 36.5625 52.8328C36.5625 55.1057 43.3714 56.9483 51.7721 56.9483C60.1727 56.9483 66.9816 55.1057 66.9816 52.8328C66.9816 52.7749 66.9758 52.7171 66.9662 52.6592C66.6285 54.851 59.9566 56.601 51.7721 56.601Z" fill="#FFEB88"/>
<path d="M51.7717 50.124C55.5862 50.124 62.752 50.6179 65.8178 52.5165C65.9664 52.6091 66.0976 52.7017 66.2095 52.7924C66.1806 52.5319 65.8777 52.202 65.3702 51.8778C62.4028 49.9793 55.4646 49.4854 51.7698 49.4854C48.075 49.4854 41.1349 49.9812 38.1694 51.8778C37.6619 52.202 37.3609 52.5319 37.3301 52.7924C37.4439 52.7017 37.5732 52.6091 37.7217 52.5165C40.7837 50.6198 47.938 50.124 51.7679 50.124H51.7717Z" fill="#FFAD01"/>
<path d="M64.6496 47.1221V50.9809C64.6496 53.2537 57.8407 55.0963 49.44 55.0963C41.0394 55.0963 34.2305 53.2537 34.2305 50.9809V47.1221H64.6476H64.6496Z" fill="#FFAD01"/>
<path d="M49.44 54.1008C41.0413 54.1008 34.2305 52.2582 34.2305 49.9854V50.9809C34.2305 53.2538 41.0394 55.0964 49.44 55.0964C57.8407 55.0964 64.6496 53.2538 64.6496 50.9809V49.9854C64.6496 52.2582 57.8407 54.1008 49.44 54.1008Z" fill="#F4A025"/>
<path d="M49.44 51.2377C57.84 51.2377 64.6496 49.3952 64.6496 47.1223C64.6496 44.8494 57.84 43.0068 49.44 43.0068C41.04 43.0068 34.2305 44.8494 34.2305 47.1223C34.2305 49.3952 41.04 51.2377 49.44 51.2377Z" fill="#FFDA57"/>
<path d="M49.44 50.8881C41.2555 50.8881 34.5836 49.1381 34.2459 46.9463C34.2363 47.0042 34.2305 47.0621 34.2305 47.1199C34.2305 49.3928 41.0394 51.2354 49.44 51.2354C57.8407 51.2354 64.6496 49.3928 64.6496 47.1199C64.6496 47.0621 64.6438 47.0042 64.6341 46.9463C64.2965 49.1381 57.6246 50.8881 49.44 50.8881Z" fill="#FFEB88"/>
<path d="M49.4397 44.413C53.2541 44.413 60.42 44.907 63.4858 46.8055C63.6344 46.8981 63.7656 46.9907 63.8775 47.0814C63.8485 46.821 63.5456 46.491 63.0382 46.1669C60.0707 44.2683 53.1326 43.7744 49.4378 43.7744C45.7429 43.7744 38.8028 44.2703 35.8373 46.1669C35.3299 46.491 35.0289 46.821 34.998 47.0814C35.1119 46.9907 35.2412 46.8981 35.3897 46.8055C38.4517 44.9089 45.606 44.413 49.4358 44.413H49.4397Z" fill="#FFAD01"/>
<path d="M66.1886 41.4092V45.268C66.1886 47.5409 59.3797 49.3834 50.9791 49.3834C42.5784 49.3834 35.7695 47.5409 35.7695 45.268V41.4092H66.1867H66.1886Z" fill="#FFAD01"/>
<path d="M50.9791 48.3879C42.5804 48.3879 35.7695 46.5453 35.7695 44.2725V45.268C35.7695 47.5409 42.5784 49.3835 50.9791 49.3835C59.3797 49.3835 66.1886 47.5409 66.1886 45.268V44.2725C66.1886 46.5453 59.3797 48.3879 50.9791 48.3879Z" fill="#F4A025"/>
<path d="M50.9791 45.5248C59.3791 45.5248 66.1886 43.6823 66.1886 41.4094C66.1886 39.1365 59.3791 37.2939 50.9791 37.2939C42.5791 37.2939 35.7695 39.1365 35.7695 41.4094C35.7695 43.6823 42.5791 45.5248 50.9791 45.5248Z" fill="#FFDA57"/>
<path d="M50.9791 45.1752C42.7945 45.1752 36.1226 43.4252 35.785 41.2334C35.7753 41.2913 35.7695 41.3492 35.7695 41.407C35.7695 43.6799 42.5784 45.5225 50.9791 45.5225C59.3797 45.5225 66.1886 43.6799 66.1886 41.407C66.1886 41.3492 66.1828 41.2913 66.1732 41.2334C65.8356 43.4252 59.1636 45.1752 50.9791 45.1752Z" fill="#FFEB88"/>
<path d="M50.9788 38.7002C54.7932 38.7002 61.959 39.1941 65.0249 41.0926C65.1734 41.1852 65.3046 41.2779 65.4165 41.3685C65.3876 41.1081 65.0847 40.7781 64.5773 40.454C61.6098 38.5555 54.6717 38.0615 50.9768 38.0615C47.282 38.0615 40.3419 38.5574 37.3764 40.454C36.869 40.7781 36.568 41.1081 36.5371 41.3685C36.6509 41.2779 36.7802 41.1852 36.9288 41.0926C39.9908 39.196 47.145 38.7002 50.9749 38.7002H50.9788Z" fill="#FFAD01"/>
<path d="M62.6965 35.6963V39.5551C62.6965 41.828 55.8876 43.6705 47.4869 43.6705C39.0862 43.6705 32.2773 41.828 32.2773 39.5551V35.6963H62.6945H62.6965Z" fill="#FFAD01"/>
<path d="M47.4869 42.675C39.0882 42.675 32.2773 40.8324 32.2773 38.5596V39.5551C32.2773 41.828 39.0862 43.6706 47.4869 43.6706C55.8876 43.6706 62.6965 41.828 62.6965 39.5551V38.5596C62.6965 40.8324 55.8876 42.675 47.4869 42.675Z" fill="#F4A025"/>
<path d="M47.4869 39.8119C55.8869 39.8119 62.6965 37.9694 62.6965 35.6965C62.6965 33.4236 55.8869 31.5811 47.4869 31.5811C39.0869 31.5811 32.2773 33.4236 32.2773 35.6965C32.2773 37.9694 39.0869 39.8119 47.4869 39.8119Z" fill="#FFDA57"/>
<path d="M47.4869 39.4623C39.3023 39.4623 32.6304 37.7123 32.2928 35.5205C32.2831 35.5784 32.2773 35.6363 32.2773 35.6942C32.2773 37.967 39.0862 39.8096 47.4869 39.8096C55.8876 39.8096 62.6965 37.967 62.6965 35.6942C62.6965 35.6363 62.6907 35.5784 62.681 35.5205C62.3434 37.7123 55.6715 39.4623 47.4869 39.4623Z" fill="#FFEB88"/>
<path d="M47.4866 32.9873C51.301 32.9873 58.4669 33.4812 61.5327 35.3797C61.6813 35.4723 61.8125 35.565 61.9244 35.6556C61.8954 35.3952 61.5925 35.0652 61.0851 34.7411C58.1176 32.8426 51.1795 32.3486 47.4846 32.3486C43.7898 32.3486 36.8497 32.8445 33.8842 34.7411C33.3768 35.0652 33.0758 35.3952 33.0449 35.6556C33.1588 35.565 33.288 35.4723 33.4366 35.3797C36.4986 33.4831 43.6528 32.9873 47.4827 32.9873H47.4866Z" fill="#FFAD01"/>
<path d="M69.0793 29.9824V33.8412C69.0793 36.1141 62.2704 37.9567 53.8697 37.9567C45.4691 37.9567 38.6602 36.1141 38.6602 33.8412V29.9824H69.0773H69.0793Z" fill="#FFAD01"/>
<path d="M53.8697 36.9611C45.471 36.9611 38.6602 35.1186 38.6602 32.8457V33.8413C38.6602 36.1141 45.4691 37.9567 53.8697 37.9567C62.2704 37.9567 69.0793 36.1141 69.0793 33.8413V32.8457C69.0793 35.1186 62.2704 36.9611 53.8697 36.9611Z" fill="#F4A025"/>
<path d="M53.8697 34.0981C62.2697 34.0981 69.0793 32.2555 69.0793 29.9826C69.0793 27.7097 62.2697 25.8672 53.8697 25.8672C45.4697 25.8672 38.6602 27.7097 38.6602 29.9826C38.6602 32.2555 45.4697 34.0981 53.8697 34.0981Z" fill="#FFDA57"/>
<path d="M53.8697 33.7504C45.6851 33.7504 39.0132 32.0004 38.6756 29.8086C38.6659 29.8665 38.6602 29.9244 38.6602 29.9822C38.6602 32.2551 45.4691 34.0977 53.8697 34.0977C62.2704 34.0977 69.0793 32.2551 69.0793 29.9822C69.0793 29.9244 69.0735 29.8665 69.0638 29.8086C68.7262 32.0004 62.0543 33.7504 53.8697 33.7504Z" fill="#FFEB88"/>
<path d="M53.8694 27.2734C57.6838 27.2734 64.8497 27.7673 67.9155 29.6659C68.0641 29.7585 68.1953 29.8511 68.3072 29.9418C68.2782 29.6813 67.9753 29.3514 67.4679 29.0272C64.5004 27.1287 57.5623 26.6348 53.8675 26.6348C50.1726 26.6348 43.2325 27.1306 40.267 29.0272C39.7596 29.3514 39.4586 29.6813 39.4277 29.9418C39.5416 29.8511 39.6708 29.7585 39.8194 29.6659C42.8814 27.7693 50.0356 27.2734 53.8655 27.2734H53.8694Z" fill="#FFAD01"/>
<path d="M63.466 24.2705V28.1293C63.466 30.4022 56.6571 32.2448 48.2564 32.2448C39.8558 32.2448 33.0469 30.4022 33.0469 28.1293V24.2705H63.464H63.466Z" fill="#FFAD01"/>
<path d="M48.2564 31.2492C39.8577 31.2492 33.0469 29.4066 33.0469 27.1338V28.1294C33.0469 30.4022 39.8558 32.2448 48.2564 32.2448C56.6571 32.2448 63.466 30.4022 63.466 28.1294V27.1338C63.466 29.4066 56.6571 31.2492 48.2564 31.2492Z" fill="#F4A025"/>
<path d="M48.2564 28.3852C56.6564 28.3852 63.466 26.5426 63.466 24.2697C63.466 21.9968 56.6564 20.1543 48.2564 20.1543C39.8564 20.1543 33.0469 21.9968 33.0469 24.2697C33.0469 26.5426 39.8564 28.3852 48.2564 28.3852Z" fill="#FFDA57"/>
<path d="M48.2564 28.0385C40.0719 28.0385 33.4 26.2885 33.0623 24.0967C33.0527 24.1546 33.0469 24.2124 33.0469 24.2703C33.0469 26.5432 39.8558 28.3858 48.2564 28.3858C56.6571 28.3858 63.466 26.5432 63.466 24.2703C63.466 24.2124 63.4602 24.1546 63.4505 24.0967C63.1129 26.2885 56.441 28.0385 48.2564 28.0385Z" fill="#FFEB88"/>
<path d="M48.2561 21.5615C52.0705 21.5615 59.2364 22.0554 62.3022 23.954C62.4508 24.0466 62.582 24.1392 62.6939 24.2299C62.6649 23.9694 62.362 23.6395 61.8546 23.3153C58.8872 21.4168 51.949 20.9229 48.2542 20.9229C44.5593 20.9229 37.6193 21.4187 34.6537 23.3153C34.1463 23.6395 33.8453 23.9694 33.8145 24.2299C33.9283 24.1392 34.0576 24.0466 34.2061 23.954C37.2681 22.0573 44.4224 21.5615 48.2522 21.5615H48.2561Z" fill="#FFAD01"/>
<g opacity="0.5">
<path d="M49.6961 47.1219C49.6961 40.0545 44.8764 34.1157 38.3454 32.4082C34.8223 33.1259 32.4896 34.2508 32.2948 35.5223C32.2909 35.5512 32.287 35.5782 32.2851 35.6072C32.2832 35.6361 32.2812 35.667 32.2812 35.6959V39.5547C32.2812 40.5522 33.5932 41.4668 35.7735 42.1787V45.2677C35.7735 45.2832 35.7735 45.2986 35.7754 45.314C34.8782 45.8099 34.338 46.3636 34.2473 46.9463C34.2435 46.9753 34.2396 47.0023 34.2377 47.0312C34.2357 47.0602 34.2338 47.091 34.2338 47.12V50.9788C34.2338 51.7834 35.0885 52.5358 36.5665 53.1687V56.6918C36.5665 58.0346 38.9416 59.2251 42.6152 59.9776C46.8715 57.2822 49.698 52.532 49.698 47.12L49.6961 47.1219Z" fill="#DB8616"/>
</g>
<path d="M47.4862 45.6021C47.4862 54.0009 40.6773 60.8117 32.2766 60.8117H29.834V30.3926H32.2766C40.6753 30.3926 47.4862 37.2015 47.4862 45.6021Z" fill="#FFAD01"/>
<path d="M32.2782 30.3926H31.3926C39.7913 30.3926 46.6021 37.2015 46.6021 45.6021C46.6021 54.0028 39.7932 60.8117 31.3926 60.8117H32.2782C40.6769 60.8117 47.4877 54.0028 47.4877 45.6021C47.4877 37.2015 40.6788 30.3926 32.2782 30.3926Z" fill="#F4A025"/>
<path d="M29.8346 60.8117C38.2346 60.8117 45.0441 54.0021 45.0441 45.6021C45.0441 37.2021 38.2346 30.3926 29.8346 30.3926C21.4345 30.3926 14.625 37.2021 14.625 45.6021C14.625 54.0021 21.4345 60.8117 29.8346 60.8117Z" fill="#FFDA57"/>
<path d="M16.9242 45.6024C16.9242 38.1723 22.8359 32.1332 30.2179 31.9325C30.0905 31.9287 29.9632 31.9268 29.8358 31.9268C22.2783 31.9268 16.1602 38.043 16.1602 45.6024C16.1602 53.1619 22.2764 59.2781 29.8358 59.2781C29.9632 59.2781 30.0905 59.2762 30.2179 59.2723C22.8514 59.0717 16.9242 53.0461 16.9242 45.6024Z" fill="#FFAD01"/>
<path d="M42.7468 45.6024C42.7468 38.1723 36.8351 32.1332 29.4531 31.9325C29.5805 31.9287 29.7078 31.9268 29.8351 31.9268C37.3927 31.9268 43.5108 38.043 43.5108 45.6024C43.5108 53.1619 37.3946 59.2781 29.8351 59.2781C29.7078 59.2781 29.5805 59.2762 29.4531 59.2723C36.8196 59.0717 42.7468 53.0461 42.7468 45.6024Z" fill="#FFEB88"/>
<g filter="url(#filter0_d_4555_37647)">
<path d="M23.7773 54.054L29.3205 50.3206L29.3456 50.3456L34.092 55.009L30.5573 36.6738L27.9912 43.2879L26.3512 47.4592L23.7773 54.054Z" fill="#FFAD01"/>
<path d="M21.623 42.7549L25.8793 46.9359L27.311 43.2681L21.623 42.7549Z" fill="#FFAD01"/>
<path d="M38.2735 44.2835L32.5586 43.749L33.3091 47.6271L38.2735 44.2835Z" fill="#FFAD01"/>
</g>
</g>
<defs>
<filter id="filter0_d_4555_37647" x="20.623" y="35.6738" width="20.6504" height="22.335" filterUnits="userSpaceOnUse" color-interpolation-filters="sRGB">
<feFlood flood-opacity="0" result="BackgroundImageFix"/>
<feColorMatrix in="SourceAlpha" type="matrix" values="0 0 0 0 0 0 0 0 0 0 0 0 0 0 0 0 0 0 127 0" result="hardAlpha"/>
<feOffset dx="1" dy="1"/>
<feGaussianBlur stdDeviation="1"/>
<feColorMatrix type="matrix" values="0 0 0 0 0 0 0 0 0 0 0 0 0 0 0 0 0 0 0.49 0"/>
<feBlend mode="normal" in2="BackgroundImageFix" result="effect1_dropShadow_4555_37647"/>
<feBlend mode="normal" in="SourceGraphic" in2="effect1_dropShadow_4555_37647" result="shape"/>
</filter>
<clipPath id="clip0_4555_37647">
<rect width="82" height="82" fill="white" transform="translate(0.785156)"/>
</clipPath>
</defs>
</svg>
