<svg width="390" height="260" viewBox="0 0 390 260" fill="none" xmlns="http://www.w3.org/2000/svg">
<path d="M193.8 201.4C182.067 201.4 173 198.533 166.6 192.8C160.2 187.067 155.8 178.6 153.4 167.4C151 156.067 149.8 142.2 149.8 125.8C149.8 100.733 153.4 81.7333 160.6 68.8C167.8 55.8667 179.733 49.4 196.4 49.4C208.133 49.4 217.067 52.3333 223.2 58.2C229.333 63.9333 233.533 72.2667 235.8 83.2C238.067 94.1333 239.2 107.4 239.2 123C239.2 149 235.8 168.6 229 181.8C222.333 194.867 210.6 201.4 193.8 201.4ZM194.6 171.6C196.333 171.6 197.733 171.067 198.8 170C199.867 168.8 200.667 166.6 201.2 163.4C201.867 160.2 202.333 155.467 202.6 149.2C202.867 142.933 203 134.667 203 124.4C203 114.4 202.867 106.4 202.6 100.4C202.333 94.4 201.867 89.9333 201.2 87C200.667 84.0667 199.867 82.1333 198.8 81.2C197.867 80.1333 196.667 79.6 195.2 79.6C193.733 79.6 192.4 80.1333 191.2 81.2C190.133 82.2667 189.2 84.3333 188.4 87.4C187.6 90.4667 187 95.0667 186.6 101.2C186.2 107.2 186 115.2 186 125.2C186 135.333 186.133 143.467 186.4 149.6C186.667 155.733 187.067 160.4 187.6 163.6C188.267 166.8 189.133 168.933 190.2 170C191.4 171.067 192.867 171.6 194.6 171.6Z" fill="black"/>
<path d="M33 150.8H48.2V98.2H47.4L33 150.8ZM81.6 57.2V150.8H93.4V181H81.6V204H48.2V181H1.6V159.8L37.4 57.2H81.6Z" fill="black"/>
<path d="M326 150.8H341.2V98.2H340.4L326 150.8ZM374.6 57.2V150.8H386.4V181H374.6V204H341.2V181H294.6V159.8L330.4 57.2H374.6Z" fill="black"/>
<path d="M168.667 157.519C165.328 155.467 160.041 154.17 157.014 157.202C153.758 160.457 154.764 166.776 157.785 169.803C159.655 171.673 161.546 172.689 163.781 172.829C164.062 177.315 168.193 181.201 173.205 181.581C180.857 182.165 183.472 174.918 179.508 168.365C186.259 161.525 193.432 153.269 200.642 149.33C195.245 146.658 190.182 142.162 187.254 136.969C183.295 143.949 175.33 150.935 168.662 157.519H168.667ZM204.736 147.377C209.8 145.241 215.061 143.954 220.422 142.647C232.361 139.73 244.775 136.693 257.256 124.206C273.786 107.677 264.706 78.4215 241.462 72.061C240.545 71.8109 239.592 72.3527 239.342 73.2695C237.617 79.4425 231.523 83.313 225.209 82.3337C224.245 82.1826 223.802 82.7452 223.276 83.2766C219.432 87.1523 213.524 88.0535 208.711 85.652C207.914 85.2561 206.956 85.5322 206.481 86.2615C204.075 89.559 202.163 92.9138 200.538 96.3467C196.766 104.306 195.089 110.594 192.469 120.335C191.229 124.935 189.978 129.603 189.004 132.702C189.01 132.708 189.01 132.713 189.015 132.718C191.927 139.396 197.652 144.533 204.413 147.205C204.528 147.252 204.637 147.309 204.736 147.377Z" fill="#E16101"/>
<path d="M194.8 201.4C183.067 201.4 174 198.533 167.6 192.8C161.2 187.067 156.8 178.6 154.4 167.4C152 156.067 150.8 142.2 150.8 125.8C150.8 100.733 154.4 81.7333 161.6 68.8C168.8 55.8667 180.733 49.4 197.4 49.4C209.133 49.4 218.067 52.3333 224.2 58.2C230.333 63.9333 234.533 72.2667 236.8 83.2C239.067 94.1333 240.2 107.4 240.2 123C240.2 149 236.8 168.6 230 181.8C223.333 194.867 211.6 201.4 194.8 201.4ZM195.6 171.6C197.333 171.6 198.733 171.067 199.8 170C200.867 168.8 201.667 166.6 202.2 163.4C202.867 160.2 203.333 155.467 203.6 149.2C203.867 142.933 204 134.667 204 124.4C204 114.4 203.867 106.4 203.6 100.4C203.333 94.4 202.867 89.9333 202.2 87C201.667 84.0667 200.867 82.1333 199.8 81.2C198.867 80.1333 197.667 79.6 196.2 79.6C194.733 79.6 193.4 80.1333 192.2 81.2C191.133 82.2667 190.2 84.3333 189.4 87.4C188.6 90.4667 188 95.0667 187.6 101.2C187.2 107.2 187 115.2 187 125.2C187 135.333 187.133 143.467 187.4 149.6C187.667 155.733 188.067 160.4 188.6 163.6C189.267 166.8 190.133 168.933 191.2 170C192.4 171.067 193.867 171.6 195.6 171.6Z" fill="url(#paint0_linear_2174_15519)"/>
<defs>
<linearGradient id="paint0_linear_2174_15519" x1="189" y1="220" x2="206.5" y2="219" gradientUnits="userSpaceOnUse">
<stop offset="0.9999"/>
<stop offset="1" stop-color="white" stop-opacity="0"/>
</linearGradient>
</defs>
</svg>
