<svg width="391" height="260" viewBox="0 0 391 260" fill="none" xmlns="http://www.w3.org/2000/svg">
<path d="M193.8 201.4C182.067 201.4 173 198.533 166.6 192.8C160.2 187.067 155.8 178.6 153.4 167.4C151 156.067 149.8 142.2 149.8 125.8C149.8 100.733 153.4 81.7333 160.6 68.8C167.8 55.8667 179.733 49.4 196.4 49.4C208.133 49.4 217.067 52.3333 223.2 58.2C229.333 63.9333 233.533 72.2667 235.8 83.2C238.067 94.1333 239.2 107.4 239.2 123C239.2 149 235.8 168.6 229 181.8C222.333 194.867 210.6 201.4 193.8 201.4ZM194.6 171.6C196.333 171.6 197.733 171.067 198.8 170C199.867 168.8 200.667 166.6 201.2 163.4C201.867 160.2 202.333 155.467 202.6 149.2C202.867 142.933 203 134.667 203 124.4C203 114.4 202.867 106.4 202.6 100.4C202.333 94.4 201.867 89.9333 201.2 87C200.667 84.0667 199.867 82.1333 198.8 81.2C197.867 80.1333 196.667 79.6 195.2 79.6C193.733 79.6 192.4 80.1333 191.2 81.2C190.133 82.2667 189.2 84.3333 188.4 87.4C187.6 90.4667 187 95.0667 186.6 101.2C186.2 107.2 186 115.2 186 125.2C186 135.333 186.133 143.467 186.4 149.6C186.667 155.733 187.067 160.4 187.6 163.6C188.267 166.8 189.133 168.933 190.2 170C191.4 171.067 192.867 171.6 194.6 171.6Z" fill="black"/>
<path d="M41.8 134.8C38.0667 134.8 35.8 138.267 35 145.2L6.2 142.8L10.6 57.2H77.6V88.8H39L35 117.6C36.8667 114.667 39.6667 112.067 43.4 109.8C47.2667 107.4 51.6667 106.2 56.6 106.2C60.0667 106.2 63.4 106.867 66.6 108.2C69.9333 109.4 72.8667 111.733 75.4 115.2C77.9333 118.533 79.9333 123.4 81.4 129.8C82.8667 136.067 83.6 144.2 83.6 154.2C83.6 167.533 82 178 78.8 185.6C75.6 193.2 71 198.6 65 201.8C59 204.867 51.6667 206.4 43 206.4C30.2 206.4 20.2667 202.8 13.2 195.6C6.13333 188.4 2.73333 176.267 3 159.2L37.8 157.4C37.6667 164.733 38 169.667 38.8 172.2C39.7333 174.6 41.2 175.8 43.2 175.8C45.6 175.8 47 174.067 47.4 170.6C47.8 167.133 48 162.133 48 155.6C48 149.2 47.6667 144.533 47 141.6C46.4667 138.667 45.7333 136.8 44.8 136C43.8667 135.2 42.8667 134.8 41.8 134.8Z" fill="black"/>
<path d="M340.8 206.4C329.067 206.4 320 203.533 313.6 197.8C307.2 192.067 302.8 183.6 300.4 172.4C298 161.067 296.8 147.2 296.8 130.8C296.8 105.733 300.4 86.7333 307.6 73.8C314.8 60.8667 326.733 54.4 343.4 54.4C355.133 54.4 364.067 57.3333 370.2 63.2C376.333 68.9333 380.533 77.2667 382.8 88.2C385.067 99.1333 386.2 112.4 386.2 128C386.2 154 382.8 173.6 376 186.8C369.333 199.867 357.6 206.4 340.8 206.4ZM341.6 176.6C343.333 176.6 344.733 176.067 345.8 175C346.867 173.8 347.667 171.6 348.2 168.4C348.867 165.2 349.333 160.467 349.6 154.2C349.867 147.933 350 139.667 350 129.4C350 119.4 349.867 111.4 349.6 105.4C349.333 99.4 348.867 94.9333 348.2 92C347.667 89.0667 346.867 87.1333 345.8 86.2C344.867 85.1333 343.667 84.6 342.2 84.6C340.733 84.6 339.4 85.1333 338.2 86.2C337.133 87.2667 336.2 89.3333 335.4 92.4C334.6 95.4667 334 100.067 333.6 106.2C333.2 112.2 333 120.2 333 130.2C333 140.333 333.133 148.467 333.4 154.6C333.667 160.733 334.067 165.4 334.6 168.6C335.267 171.8 336.133 173.933 337.2 175C338.4 176.067 339.867 176.6 341.6 176.6Z" fill="black"/>
<path d="M233.318 122H181.682C176.325 122 172 127.073 172 133.357C172 139.641 176.325 144.714 181.682 144.714H212.244L216.665 136.272C218.699 132.184 222.636 129.571 226.864 129.571C231.091 129.571 235.029 132.184 237.159 136.424L238.5 141C240.404 138.956 243 136.651 243 133.357C243 127.073 238.675 122 233.318 122ZM181.682 137.143C179.907 137.143 178.455 135.439 178.455 133.357C178.455 131.275 179.907 129.571 181.682 129.571C183.457 129.571 184.909 131.275 184.909 133.357C184.909 135.439 183.457 137.143 181.682 137.143ZM194.591 137.143C192.816 137.143 191.364 135.439 191.364 133.357C191.364 131.275 192.816 129.571 194.591 129.571C196.366 129.571 197.818 131.275 197.818 133.357C197.818 135.439 196.366 137.143 194.591 137.143ZM181.682 152.286C176.325 152.286 172 157.359 172 163.643C172 169.927 176.325 175 181.682 175H197.883C198.012 172.615 198.69 170.381 199.819 168.413L208.275 152.286H181.682ZM181.682 167.429C179.907 167.429 178.455 165.725 178.455 163.643C178.455 161.561 179.907 159.857 181.682 159.857C183.457 159.857 184.909 161.561 184.909 163.643C184.909 165.725 183.457 167.429 181.682 167.429ZM194.591 167.429C192.816 167.429 191.364 165.725 191.364 163.643C191.364 161.561 192.816 159.857 194.591 159.857C196.366 159.857 197.818 161.561 197.818 163.643C197.818 165.725 196.366 167.429 194.591 167.429Z" fill="#E16101"/>
<path d="M250.115 171.272L231.855 139.101C230.814 137.189 228.877 136 226.792 136C224.706 136 222.77 137.189 221.756 139.056L203.527 171.175C201.02 175.199 203.721 181 208.504 181H245.079C249.918 181 252.511 175.097 250.115 171.272ZM226.792 175.375C225.874 175.375 224.995 174.98 224.346 174.277C223.698 173.573 223.333 172.62 223.333 171.625C223.333 170.63 223.698 169.677 224.346 168.973C224.995 168.27 225.874 167.875 226.792 167.875C227.709 167.875 228.589 168.27 229.237 168.973C229.886 169.677 230.25 170.63 230.25 171.625C230.25 172.62 229.886 173.573 229.237 174.277C228.589 174.98 227.709 175.375 226.792 175.375ZM230.25 160.375C230.25 161.37 229.886 162.323 229.237 163.027C228.589 163.73 227.709 164.125 226.792 164.125C225.874 164.125 224.995 163.73 224.346 163.027C223.698 162.323 223.333 161.37 223.333 160.375V149.125C223.333 148.13 223.698 147.177 224.346 146.473C224.995 145.77 225.874 145.375 226.792 145.375C227.709 145.375 228.589 145.77 229.237 146.473C229.886 147.177 230.25 148.13 230.25 149.125V160.375ZM233.708 91H178.375C175.623 91 172.984 92.1853 171.039 94.295C169.093 96.4048 168 99.2663 168 102.25C168 105.234 169.093 108.095 171.039 110.205C172.984 112.315 175.623 113.5 178.375 113.5H233.708C236.46 113.5 239.099 112.315 241.045 110.205C242.99 108.095 244.083 105.234 244.083 102.25C244.083 99.2663 242.99 96.4048 241.045 94.295C239.099 92.1853 236.46 91 233.708 91ZM178.375 106C177.458 106 176.578 105.605 175.93 104.902C175.281 104.198 174.917 103.245 174.917 102.25C174.917 101.255 175.281 100.302 175.93 99.5983C176.578 98.8951 177.458 98.5 178.375 98.5C179.292 98.5 180.172 98.8951 180.82 99.5983C181.469 100.302 181.833 101.255 181.833 102.25C181.833 103.245 181.469 104.198 180.82 104.902C180.172 105.605 179.292 106 178.375 106ZM192.208 106C191.291 106 190.411 105.605 189.763 104.902C189.114 104.198 188.75 103.245 188.75 102.25C188.75 101.255 189.114 100.302 189.763 99.5983C190.411 98.8951 191.291 98.5 192.208 98.5C193.126 98.5 194.005 98.8951 194.654 99.5983C195.302 100.302 195.667 101.255 195.667 102.25C195.667 103.245 195.302 104.198 194.654 104.902C194.005 105.605 193.126 106 192.208 106Z" fill="#E16101"/>
</svg>
