<svg width="90" height="22" viewBox="0 0 90 22" fill="none" xmlns="http://www.w3.org/2000/svg">
<path d="M4.58168 13.1297V21.6241H0.357422V0.416813H4.70063C5.77713 0.389218 6.85046 0.569405 7.88068 0.950614C8.71838 1.26341 9.44025 1.92228 9.92182 2.81364C10.4486 3.95711 10.6955 5.26028 10.6333 6.56919C10.6408 7.65077 10.4962 8.72597 10.2059 9.74817C9.92774 10.7208 9.38329 11.5473 8.66388 12.0888L11.3218 21.6241H6.83648L4.84396 13.1297H4.58168ZM4.58168 8.96899H4.9629C5.33628 8.99216 5.70233 8.83664 5.98288 8.53573C6.12937 8.31457 6.23829 8.06019 6.30333 7.78732C6.36836 7.51445 6.38822 7.22853 6.36173 6.94624C6.36173 6.0995 6.23138 5.5574 5.97072 5.31984C5.73866 5.09168 5.45055 4.96465 5.15233 4.95904H4.58287L4.58168 8.96899Z" fill="#2D2A26"/>
<path d="M20.7167 8.65124V13.0722H16.6831V17.088H21.6225V21.6243H12.4395V0.416992H21.1939V4.95326H16.6868V8.64971L20.7167 8.65124Z" fill="#2D2A26"/>
<path d="M70.66 21.6243H66.6738V0.417062H70.7075C72.1641 0.323611 73.6145 0.708106 74.9074 1.53042C75.9357 2.29707 76.699 3.49418 77.0542 4.8972C77.514 6.75128 77.7263 8.68322 77.6831 10.6193C77.7241 12.6743 77.5079 14.7249 77.0421 16.7006C76.6924 18.1986 75.9245 19.5011 74.871 20.3838C73.5975 21.2909 72.1332 21.7222 70.66 21.6243ZM70.903 17.2329H71.2587C71.4742 17.2456 71.6895 17.2047 71.8916 17.1127C72.0937 17.0207 72.2783 16.8794 72.4341 16.6977C72.798 16.1461 73.0243 15.479 73.0861 14.7755C73.2511 13.4761 73.3226 12.1616 73.2998 10.847C73.312 9.77529 73.2644 8.70382 73.1577 7.63993C73.1027 7.00644 72.9668 6.38728 72.7547 5.80498C72.6261 5.44917 72.4051 5.15469 72.1256 4.96669C71.8623 4.81778 71.5745 4.74395 71.2842 4.75082H70.903V17.2329Z" fill="#2D2A26"/>
<path d="M89.2812 6.97566L85.1771 7.4666C85.2325 6.6364 85.1498 5.80114 84.9342 5.01066C84.875 4.81571 84.7683 4.64751 84.6283 4.52857C84.4883 4.40964 84.3218 4.34565 84.1512 4.34528C84.0348 4.33255 83.9177 4.35491 83.8101 4.41035C83.7025 4.46579 83.6078 4.55265 83.5343 4.66322C83.4038 4.8913 83.3374 5.16459 83.3448 5.4424C83.3322 5.74735 83.3733 6.05211 83.4652 6.33618C83.5571 6.62026 83.6977 6.87711 83.8778 7.08955C84.3141 7.56732 84.7871 7.9931 85.2901 8.36111C85.7644 8.68935 86.2549 9.05012 86.7616 9.44342C87.2738 9.84494 87.7507 10.3098 88.1847 10.8304C88.6793 11.4213 89.0677 12.131 89.3251 12.9145C89.5824 13.698 89.7031 14.538 89.6795 15.3814C89.7203 16.6687 89.4874 17.9472 89.0031 19.0926C88.5814 20.0324 87.9305 20.7898 87.1404 21.2602C86.2955 21.7467 85.3698 21.9891 84.4353 21.9685C83.6756 22.0612 82.9083 21.9487 82.1884 21.639C81.4685 21.3292 80.8137 20.8299 80.2705 20.1765C79.3589 18.6853 78.8944 16.8589 78.9543 15.0014L83.2976 14.4233C83.2914 15.1284 83.355 15.8319 83.487 16.5185C83.5498 16.8978 83.7173 17.2396 83.9617 17.4869C84.1708 17.662 84.4195 17.7531 84.6732 17.7472C85.1953 17.7472 85.4564 17.2947 85.4564 16.3898C85.467 16.0297 85.4055 15.6719 85.277 15.3473C85.1486 15.0227 84.9572 14.7411 84.7193 14.5268C84.1634 14.0242 83.5765 13.5748 82.9636 13.1827C82.5046 12.8555 82.0379 12.5105 81.5635 12.1478C81.0848 11.7783 80.6463 11.3366 80.2583 10.8333C79.8487 10.2959 79.5265 9.66873 79.3088 8.98506C79.0565 8.15835 78.9359 7.28078 78.9531 6.39909C78.9076 5.52074 79.0222 4.64097 79.2888 3.82295C79.5554 3.00492 79.9672 2.26889 80.495 1.66762C81.6157 0.530222 83.0445 -0.0571435 84.502 0.0204626C85.1767 -0.0513285 85.856 0.0663579 86.4875 0.364477C87.1191 0.662597 87.6859 1.13324 88.1446 1.74009C89.0056 3.27477 89.407 5.12334 89.2812 6.97566Z" fill="#2D2A26"/>
<path d="M47.0654 0.391602L44.7511 8.42171L43.3038 13.3617L40.9785 21.3771L46.8225 16.5288L52.5075 21.6462L47.5098 2.11709L47.0654 0.391602Z" fill="#9A3324"/>
<path d="M37.6484 8.27051L42.8295 12.9355L44.1433 8.40804L37.6484 8.27051Z" fill="#9A3324"/>
<path d="M56.2635 8.69191L49.7383 8.53516L50.9148 13.1305L56.2635 8.69191Z" fill="#9A3324"/>
<path d="M62.8786 12.0901C63.5981 11.5486 64.1426 10.7221 64.4207 9.74952C64.7111 8.72734 64.8557 7.65222 64.8482 6.57063C64.9104 5.26171 64.6635 3.9584 64.1366 2.81499C63.655 1.92363 62.9333 1.26476 62.0956 0.951963C61.0654 0.570254 59.9921 0.389602 58.9155 0.416719H54.5723V7.24043L56.2855 7.28177C56.5311 7.28809 56.7686 7.38926 56.9639 7.57055C57.1593 7.75184 57.3022 8.0039 57.3723 8.29053C57.4424 8.57715 57.436 8.8835 57.3539 9.16537C57.2718 9.44724 57.1183 9.69014 56.9156 9.85899L54.5735 11.8033V21.6255H58.7977V13.131H59.0587L61.0512 21.6255H65.5353L62.8786 12.0901ZM60.1976 8.54159C59.917 8.84237 59.5511 8.99777 59.1777 8.97477H58.7977V4.9501H59.3672C59.6654 4.95571 59.9536 5.08266 60.1856 5.31081C60.4463 5.55231 60.5765 6.09451 60.5765 6.9373C60.6031 7.2197 60.5832 7.50574 60.5179 7.77866C60.4527 8.05158 60.3434 8.30592 60.1965 8.52679L60.1976 8.54159Z" fill="#2D2A26"/>
<path d="M37.6468 6.86301H37.6674L40.8244 6.92952L41.6477 0.423828H37.1878L36.7969 7.33318C36.9048 7.18678 37.0367 7.06956 37.1842 6.98908C37.3316 6.9086 37.4913 6.86668 37.6528 6.86598L37.6468 6.86301Z" fill="#2D2A26"/>
<path d="M36.9592 9.40482C36.8552 9.31044 36.7648 9.19551 36.692 9.06478L36.3035 15.9313H36.2076L34.4749 0.415039H29.6581L28.0213 16.0466H27.8793L26.8824 0.415039H22.2793L25.2214 21.6223H30.774L31.9372 7.89818H32.0586L33.4343 21.6223H38.9578L40.1404 12.2703L36.9592 9.40482Z" fill="#2D2A26"/>
</svg>
