<svg width="160" height="180" viewBox="0 0 160 180" fill="none" xmlns="http://www.w3.org/2000/svg">
<path d="M140.326 20.8057L160.001 64.5161V179.623H120.638V64.5161L140.326 20.8057Z" fill="#D9D9D9"/>
<path d="M133.013 0.405762H27.3761C25.4437 0.405762 23.5904 1.17342 22.2239 2.53986C20.8575 3.9063 20.0898 5.75959 20.0898 7.69203V20.8059H140.299V7.69203C140.299 5.75959 139.531 3.9063 138.165 2.53986C136.798 1.17342 134.945 0.405762 133.013 0.405762Z" fill="#F2F2F2"/>
<path d="M0.431641 64.5161V179.616H120.627V64.5161L140.301 20.8057H20.0989L0.431641 64.5161Z" fill="#FBFBFB"/>
<path d="M25.7544 103.863C31.148 89.673 44.8722 79.5881 60.9542 79.5881C73.2321 79.5881 84.1355 85.4676 91.0083 94.5635L99.3833 93.3696C91.3996 80.5412 77.1752 72 60.9542 72C40.1924 72 22.7 85.9893 17.3809 105.057L25.7544 103.863Z" fill="#F5AF2D"/>
<path d="M90.062 141.115C83.1577 149.523 72.6829 154.888 60.9539 154.888C49.2249 154.888 39.4252 149.864 32.5237 141.918L23.875 143.151C32.0536 154.835 45.6115 162.476 60.9539 162.476C77.7769 162.476 92.4528 153.291 100.246 139.663L90.062 141.115Z" fill="#F5AF2D"/>
<path d="M59.5375 84.9216L48.0049 96.2564L54.1969 95.3606L57.0836 100.909L59.5375 84.9216Z" fill="#F5AF2D"/>
<path d="M54.4707 88.9234L49.54 86.4065L52.0742 91.2784L54.4707 88.9234Z" fill="#F5AF2D"/>
<path d="M59.2568 91.3745L58.7451 94.7027L64.2018 93.9129L59.2568 91.3745Z" fill="#F5AF2D"/>
<path d="M14.4362 138.687L13.9446 138.686L13.9417 140.564H13.4873L13.4916 138.686L13 138.684V138.313L14.4362 138.315V138.687Z" fill="#2D2A26"/>
<path d="M15.3147 138.318L15.6329 139.906H15.6401L15.9669 138.318L16.6377 138.319L16.6334 140.569L16.2177 140.568L16.222 138.772H16.2148L15.812 140.568L15.4595 140.566L15.0624 138.771H15.0567L15.0524 140.566L14.6367 140.565L14.641 138.316L15.3147 138.318Z" fill="#2D2A26"/>
<path d="M102.764 118.024L101.338 118.228L101.148 118.017L89.8787 104.316L95.9259 103.455L100.875 96.5044L81.4235 99.2765L82.305 105.463L92.9088 119.183C92.9274 119.312 92.8371 119.431 92.7095 119.449L83.5864 120.749C83.4574 120.768 83.3384 120.678 83.3198 120.55L81.6843 109.078L75.4981 109.959L77.1335 121.431C77.1521 121.56 77.0618 121.679 76.9343 121.698L75.4221 121.913C75.2931 121.932 75.1741 121.841 75.1555 121.714L73.8956 112.874L67.7093 113.756L68.9707 122.605C68.9893 122.734 68.899 122.853 68.7714 122.872L67.2593 123.087C67.1303 123.106 67.0113 123.015 66.9927 122.888L65.3572 111.407L59.171 112.288L60.8064 123.769C60.825 123.898 60.7347 124.017 60.6072 124.036L59.095 124.251C58.966 124.269 58.847 124.179 58.8284 124.052L55.8184 102.929L48.6904 103.945L52.6522 131.747L110.104 123.56L107.516 105.398L101.33 106.28L102.965 117.761C102.984 117.89 102.893 118.009 102.766 118.027L102.764 118.024Z" fill="#2D2A26"/>
<path d="M41.8978 114.747L43.5332 126.228C43.5518 126.357 43.4615 126.475 43.334 126.494L41.8218 126.709C41.6928 126.728 41.5738 126.637 41.5552 126.51L40.2939 117.66L34.1076 118.542L35.3689 127.391C35.3876 127.52 35.2973 127.639 35.1697 127.658L33.6575 127.873C33.5285 127.892 33.4096 127.801 33.3909 127.674L31.7555 116.193L25.5692 117.074L27.6848 131.916C27.8669 133.194 26.9782 134.377 25.7011 134.559C24.424 134.742 23.2186 133.702 22.8631 131.205L20.4422 114.213L13.3486 115.224C13.9463 119.418 14.5096 123.375 15.179 128.064C15.8469 132.752 17.1541 139.365 22.5377 140.515C24.5831 140.951 26.7259 140.677 28.7297 140.079C31.5548 139.236 33.9858 137.468 34.3455 134.355L50.6741 132.028L48.0855 113.866L41.8992 114.748L41.8978 114.747Z" fill="#2D2A26"/>
<path d="M106.56 98.1523L104.034 101.518L107.378 104.028L109.904 100.662L106.56 98.1523Z" fill="#2D2A26"/>
<path d="M100.669 98.9913L98.1592 102.335L101.525 104.861L104.035 101.517L100.669 98.9913Z" fill="#2D2A26"/>
<path d="M67.4702 140.144C67.0316 140.207 66.8352 140.489 66.9026 140.961C66.97 141.429 67.2366 141.643 67.6752 141.581C68.1138 141.518 68.3101 141.239 68.2428 140.77C68.1754 140.298 67.9088 140.082 67.4702 140.144Z" fill="#2D2A26"/>
<path d="M100.184 133.851L100.16 133.836C99.7372 133.55 99.3158 132.669 98.9431 131.446C98.6636 130.532 98.2895 129.877 97.8423 129.566C97.3922 129.253 96.816 129.144 96.1295 129.242L96.065 129.248C95.5045 129.328 94.9885 129.473 94.5112 129.675L94.7549 131.388L95.7453 131.247L95.6995 130.475C95.7812 130.442 95.9847 130.361 96.2699 130.321C96.6813 130.262 97.0095 130.343 97.246 130.559C97.4883 130.783 97.719 131.228 97.9312 131.886C98.2465 132.875 98.5862 133.699 98.913 134.033L72.3763 137.815L71.5492 132.008L72.1555 131.895L72.0452 131.117L69.6572 131.456L69.7662 132.227L70.3796 132.166L71.3299 138.829L100.305 134.7L101.244 134.565L101.129 133.761L100.183 133.849L100.184 133.851Z" fill="#2D2A26"/>
<path d="M67.9727 139.308L68.9115 139.173L68.7969 138.369L67.8509 138.457L67.8265 138.441C67.4037 138.156 66.9823 137.274 66.6096 136.052C66.3301 135.137 65.956 134.482 65.5088 134.171C65.0587 133.859 64.4825 133.75 63.796 133.847L63.7315 133.853C63.171 133.933 62.655 134.078 62.1777 134.28L62.4214 135.993L63.4118 135.852L63.366 135.08C63.4477 135.047 63.6512 134.966 63.9364 134.926C64.3478 134.868 64.676 134.948 64.9125 135.164C65.1548 135.388 65.3855 135.834 65.5977 136.492C65.913 137.481 66.2527 138.305 66.5795 138.639L64.4797 138.938C62.8686 139.168 62.1261 139.811 62.3239 141.199C62.4214 141.887 62.6952 142.408 63.1381 142.751C63.581 143.093 64.16 143.217 64.8595 143.116C65.4715 143.029 66.0047 142.835 66.4433 142.54L66.4906 142.509L66.0678 141.654L66.009 141.683C65.5876 141.884 65.1705 142.016 64.7692 142.073C64.4424 142.119 64.1744 142.054 63.9508 141.874C63.7286 141.693 63.5896 141.425 63.5394 141.074C63.4348 140.339 63.7845 139.907 64.6115 139.788L67.9698 139.309L67.9727 139.308Z" fill="#2D2A26"/>
<path d="M97.2588 135.898C96.8202 135.961 96.6253 136.244 96.6912 136.715C96.7572 137.187 97.0252 137.397 97.4624 137.336C97.901 137.273 98.0973 136.993 98.03 136.525C97.9626 136.053 97.696 135.837 97.2574 135.898H97.2588Z" fill="#2D2A26"/>
<path d="M109.416 132.536C108.537 129.788 107.216 128.092 105.516 127.691L105.454 127.677L105.172 128.743L105.232 128.762C106.528 129.151 107.54 130.417 108.269 132.699L104.414 133.248L104.276 132.53L103.44 132.649L103.665 134.221L104.511 134.099L109.538 133.383L109.416 132.534V132.536Z" fill="#2D2A26"/>
</svg>
