<svg width="20" height="23" viewBox="0 0 20 23" fill="none" xmlns="http://www.w3.org/2000/svg">
<path d="M17.5341 2.55688L20 8.03547V22.4628H15.0663V8.03547L17.5341 2.55688Z" fill="#D9D9D9"/>
<path d="M16.6174 0H3.37711C3.1349 0 2.90262 0.0962169 2.73135 0.267484C2.56008 0.438751 2.46387 0.671038 2.46387 0.913246V2.55691H17.5306V0.913246C17.5306 0.671038 17.4344 0.438751 17.2632 0.267484C17.0919 0.0962169 16.8596 0 16.6174 0Z" fill="#F2F2F2"/>
<path d="M0 8.03547V22.4619H15.065V8.03547L17.5309 2.55688H2.46505L0 8.03547Z" fill="#FBFBFB"/>
<path d="M2.74314 12.9565C3.06082 12.1211 3.59655 11.3861 4.29459 10.828C4.99264 10.2699 5.8275 9.90896 6.71231 9.78286C7.59712 9.65676 8.49956 9.77006 9.32574 10.111C10.1519 10.4519 10.8716 11.008 11.4101 11.7213L12.5222 11.5626C11.9068 10.5716 11.0163 9.78123 9.95927 9.28779C8.90228 8.79435 7.72453 8.61921 6.5697 8.78374C5.41488 8.94827 4.3329 9.44536 3.45577 10.2144C2.57865 10.9833 1.94431 11.991 1.63013 13.1144L2.74314 12.9565Z" fill="#F6B318"/>
<path d="M11.2857 17.9055C10.824 18.4683 10.2451 18.9235 9.58929 19.2394C8.93349 19.5552 8.21663 19.7241 7.48879 19.7343C6.76094 19.7444 6.03967 19.5954 5.37535 19.2979C4.71103 19.0004 4.11967 18.5614 3.64259 18.0116L2.4939 18.1757C3.07442 19.0064 3.85559 19.6767 4.76475 20.1244C5.67392 20.5721 6.68154 20.7826 7.6939 20.7364C8.70627 20.6901 9.69048 20.3885 10.555 19.8597C11.4195 19.331 12.1363 18.5921 12.6386 17.7119L11.2857 17.9055Z" fill="#F6B318"/>
<path d="M8.05719 17.5345L8.03043 17.3963C8.00822 17.3935 7.98576 17.3935 7.96355 17.3963C7.84226 17.4141 7.78517 17.4641 7.82442 17.7245C7.85652 17.9537 7.92253 17.9876 8.05809 17.968C8.112 17.9598 8.16453 17.9442 8.21416 17.9216L8.24894 18.0357C8.18513 18.0623 8.11835 18.0812 8.05006 18.0919C7.82174 18.124 7.70759 18.0652 7.66211 17.7513C7.61306 17.4088 7.72543 17.3098 7.95195 17.2786C8.01116 17.271 8.07111 17.271 8.13032 17.2786L8.16243 17.522L8.05719 17.5345Z" fill="#2D2A26"/>
<path d="M8.54509 17.9064L8.63428 17.8886L8.55222 17.3134L8.4577 17.3223L8.44342 17.2197L8.78499 17.1707L8.79927 17.2732L8.71008 17.2893L8.7413 17.5051L9.04452 17.4623L9.0142 17.2465L8.92501 17.2554L8.91075 17.1528L9.25143 17.1047L9.26659 17.2072L9.17294 17.2251L9.255 17.8003L9.34954 17.7914L9.3638 17.8939L9.02311 17.9421L9.00885 17.8395L9.09803 17.8235L9.06414 17.5854L8.76002 17.6291L8.79392 17.8672L8.88309 17.8583L8.89737 17.9608L8.5558 18.0099L8.54509 17.9064Z" fill="#2D2A26"/>
<path d="M9.66252 17.744L9.75171 17.7261L9.66965 17.1509L9.57513 17.1598L9.56085 17.0573L9.90957 17.0073L9.92383 17.1099L9.83464 17.1277L9.9167 17.7039L10.0112 17.6949L10.0255 17.7975L9.6768 17.8474L9.66252 17.744Z" fill="#2D2A26"/>
<path d="M10.6958 17.1635L10.669 17.0253C10.6468 17.0225 10.6244 17.0225 10.6022 17.0253C10.4809 17.0431 10.4238 17.0931 10.463 17.3535C10.4951 17.5827 10.5611 17.6166 10.6967 17.597C10.7506 17.5888 10.8031 17.5732 10.8528 17.5506L10.8875 17.6647C10.8237 17.6913 10.757 17.7102 10.6887 17.7209C10.4604 17.753 10.3462 17.6942 10.3007 17.3802C10.2517 17.0378 10.364 16.9388 10.5906 16.9076C10.6498 16.8999 10.7097 16.8999 10.7689 16.9076L10.801 17.151L10.6958 17.1635Z" fill="#2D2A26"/>
<path d="M11.1838 17.5299L11.273 17.5121L11.1909 16.9369L11.0964 16.9458L11.0821 16.8432L11.4058 16.7969L11.4201 16.8959L11.3506 16.9083L11.3889 17.1759L11.5904 16.878L11.5164 16.8851L11.5022 16.7862L11.8259 16.7398L11.8402 16.8423L11.776 16.8548L11.5655 17.1607L11.8714 17.4283L11.9383 17.4211L11.9525 17.5237L11.6163 17.571L11.602 17.4729L11.6761 17.4595L11.3996 17.2107L11.4406 17.4969L11.5102 17.4889L11.5244 17.5879L11.2007 17.6343L11.1838 17.5299Z" fill="#2D2A26"/>
<path d="M12.6288 17.1385L12.6136 17.0734L12.4415 17.0984L12.4745 17.3338L12.7019 17.3017L12.6939 17.2054L12.8036 17.1893L12.8339 17.3989L12.2355 17.4881L12.2212 17.3855L12.3104 17.3677L12.2284 16.7916L12.1338 16.8005L12.1196 16.6979L12.718 16.6087L12.7465 16.8112L12.6368 16.8272L12.6181 16.7381L12.3907 16.7702L12.4219 16.9904L12.594 16.9655V16.9004L12.693 16.8861L12.726 17.1215L12.6288 17.1385Z" fill="#2D2A26"/>
<path d="M13.1547 17.3534L13.1404 17.2509L13.2296 17.233L13.1476 16.6578L13.053 16.6667L13.0388 16.5641L13.3446 16.5204L13.6327 16.9022C13.6827 16.9694 13.7288 17.0393 13.771 17.1117C13.7514 17.035 13.7335 16.9512 13.7237 16.8888L13.68 16.5784L13.5908 16.5873L13.5765 16.4866L13.8896 16.442L13.9038 16.5445L13.82 16.5597L13.9172 17.2428L13.7076 17.2732L13.4187 16.8914C13.3687 16.8242 13.3226 16.7542 13.2804 16.6819H13.276C13.2956 16.7586 13.3143 16.8424 13.3233 16.9048L13.367 17.2143L13.4561 17.2054L13.4704 17.3062L13.1547 17.3534Z" fill="#2D2A26"/>
<path d="M12.1803 12.722C12.2099 12.7165 12.2403 12.7172 12.2697 12.7241C12.299 12.731 12.3266 12.744 12.3506 12.7622C12.4478 12.8362 12.5103 13.003 12.5531 13.3044L13.4761 13.077C13.4575 12.6907 13.2873 12.3273 13.0025 12.0656C12.8789 11.9828 12.7398 11.9259 12.5935 11.8985C12.4473 11.871 12.297 11.8736 12.1517 11.906C11.8012 11.9399 11.4761 12.1037 11.2403 12.3653C11.1342 12.503 11.0586 12.6617 11.0186 12.8308C10.9786 13 10.9751 13.1757 11.0084 13.3463C11.1225 14.1374 11.6737 14.3514 12.1606 14.5396H12.166C12.5227 14.6734 12.8385 14.7893 12.8866 15.1211C12.9038 15.1999 12.8964 15.2821 12.8652 15.3565C12.8492 15.3856 12.8263 15.4102 12.7984 15.4281C12.7705 15.446 12.7386 15.4566 12.7056 15.4591C12.4514 15.4957 12.3194 15.3244 12.2409 14.8491L11.2866 15.0943C11.2786 15.0964 11.2701 15.0955 11.2627 15.0917C11.2553 15.0879 11.2495 15.0816 11.2465 15.0738L10.2191 12.3466L8.94557 12.5303L8.72706 16.1333C8.72655 16.1406 8.72371 16.1475 8.71896 16.153C8.71422 16.1585 8.70782 16.1624 8.70071 16.164C8.6936 16.1656 8.68617 16.1649 8.67951 16.1619C8.67285 16.159 8.66732 16.1539 8.66374 16.1476L7.91638 14.7287C7.91365 14.7212 7.91365 14.713 7.91638 14.7055L8.46486 12.0843L7.37949 12.2369L7.11729 14.0607C7.11622 14.0679 7.11287 14.0745 7.10773 14.0797C7.1026 14.0848 7.09594 14.0881 7.08875 14.0892H7.05932C7.05205 14.0902 7.04464 14.0889 7.03821 14.0854C7.03178 14.0818 7.02667 14.0763 7.02365 14.0696L6.46892 12.8727L0.98053 13.6487L1.10182 14.4914L1.79657 14.3924C1.8052 14.3912 1.81398 14.3933 1.821 14.3985C1.82802 14.4037 1.8327 14.4115 1.83402 14.4201L2.29778 17.7199L3.25205 17.5861L2.78829 14.2863C2.78701 14.2775 2.78925 14.2685 2.79453 14.2613C2.79711 14.2577 2.80043 14.2546 2.80427 14.2523C2.80811 14.25 2.81239 14.2485 2.81683 14.248L3.41258 14.1641C3.41692 14.1635 3.42134 14.1637 3.42558 14.1648C3.42983 14.1659 3.43381 14.1679 3.4373 14.1705C3.44079 14.1732 3.4437 14.1765 3.44589 14.1803C3.44808 14.1841 3.44949 14.1883 3.45004 14.1927L3.9138 17.4925L5.91687 17.2107H5.92133C5.92634 17.2105 5.9313 17.2116 5.93585 17.2136C5.9404 17.2157 5.94442 17.2188 5.9476 17.2227C5.95078 17.2266 5.95304 17.2311 5.9542 17.236C5.95537 17.2408 5.95541 17.2459 5.95433 17.2508L5.75277 18.2969L6.94873 18.1373L7.22966 15.6312C7.23069 15.6239 7.234 15.6171 7.23913 15.6118C7.24426 15.6066 7.25094 15.603 7.2582 15.6018H7.28138C7.28865 15.6007 7.29606 15.6021 7.3025 15.6056C7.30893 15.6092 7.31404 15.6147 7.31706 15.6214L7.89587 16.9378L9.67955 16.6863L9.69382 15.8328C9.69413 15.8249 9.69715 15.8175 9.70235 15.8116C9.70755 15.8058 9.71463 15.8019 9.72236 15.8007L10.4126 15.7017C10.4205 15.7005 10.4285 15.7022 10.4353 15.7064C10.442 15.7107 10.4469 15.7172 10.4492 15.7248L10.7043 16.5436L11.737 16.3973L11.6032 16.0218C11.6014 16.0157 11.6014 16.0092 11.6031 16.003C11.6049 15.9969 11.6083 15.9913 11.6131 15.9871C11.619 15.9822 11.6264 15.9795 11.634 15.9795C11.6417 15.9795 11.6491 15.9822 11.655 15.9871C11.8043 16.1164 11.9827 16.2077 12.175 16.2532C12.3672 16.2987 12.5676 16.297 12.7591 16.2484C12.9325 16.2388 13.1017 16.1907 13.2541 16.1074C13.4066 16.0242 13.5385 15.9079 13.6403 15.7672C13.7421 15.6264 13.8112 15.4647 13.8425 15.2938C13.8738 15.1229 13.8665 14.9472 13.8213 14.7795C13.7107 14.0107 13.1078 13.7708 12.6307 13.5773L12.5655 13.5514C12.2418 13.4123 12.0304 13.299 11.985 13.0083C11.9731 12.9454 11.9829 12.8804 12.0126 12.8237C12.0308 12.795 12.0554 12.7708 12.0845 12.7532C12.1136 12.7355 12.1464 12.7249 12.1803 12.722ZM6.44573 14.9588L6.16302 16.2787C6.16151 16.2853 6.15807 16.2912 6.15314 16.2958C6.14822 16.3004 6.14203 16.3035 6.13537 16.3046L4.77086 16.4954H4.76639C4.75898 16.4952 4.75181 16.4927 4.74588 16.4883C4.74226 16.4856 4.7392 16.4823 4.7369 16.4785C4.7346 16.4747 4.73311 16.4704 4.73251 16.466L4.62103 15.6687C4.62029 15.6643 4.62046 15.6598 4.62154 15.6555C4.62261 15.6512 4.62456 15.6472 4.62727 15.6437C4.62988 15.6401 4.63321 15.637 4.63704 15.6347C4.64088 15.6324 4.64514 15.6309 4.64956 15.6303L5.6074 15.4921L5.48968 14.6716L4.53452 14.8089C4.53015 14.8097 4.52568 14.8095 4.52138 14.8084C4.51708 14.8074 4.51305 14.8054 4.50955 14.8027C4.50592 14.8001 4.50286 14.7967 4.50057 14.7929C4.49827 14.7891 4.49677 14.7848 4.49617 14.7804L4.39539 14.0669C4.39465 14.0626 4.39482 14.0581 4.3959 14.0538C4.39697 14.0495 4.39893 14.0455 4.40163 14.0419C4.40425 14.0383 4.40758 14.0353 4.41141 14.033C4.41524 14.0307 4.4195 14.0292 4.42393 14.0286L5.79469 13.8359C5.80139 13.8349 5.80824 13.836 5.81431 13.8391C5.82037 13.8421 5.82535 13.8469 5.82858 13.8529L6.44217 14.9347C6.44592 14.9421 6.44776 14.9507 6.44573 14.9588ZM10.1718 14.8999C10.1693 14.9039 10.1659 14.9073 10.1619 14.91C10.1579 14.9126 10.1534 14.9143 10.1487 14.9151L9.73752 14.9739H9.73306C9.72519 14.9739 9.71761 14.971 9.71166 14.9659C9.70809 14.9628 9.7052 14.9589 9.70321 14.9546C9.70121 14.9503 9.70014 14.9457 9.70006 14.9409L9.68936 13.514C9.68947 13.506 9.69239 13.4983 9.69761 13.4923C9.70284 13.4862 9.71002 13.4822 9.7179 13.481L9.75268 13.4765C9.76078 13.4753 9.76903 13.4771 9.77592 13.4815C9.7828 13.486 9.78786 13.4927 9.79014 13.5006L10.1781 14.8776C10.1785 14.8855 10.1763 14.8933 10.1718 14.8999Z" fill="#2D2A26"/>
<path d="M13.4509 11.947L13.3866 11.9559L13.4223 12.203L13.3626 12.2119L13.3269 11.9648L13.2627 11.9738L13.2556 11.9247L13.4446 11.8971L13.4509 11.947Z" fill="#2D2A26"/>
<path d="M13.5589 11.881L13.6311 12.0834L13.6436 11.8685L13.7328 11.856L13.7756 12.1521L13.7212 12.1601L13.6864 11.9247L13.6677 12.1681L13.6213 12.1753L13.5322 11.947L13.5669 12.1824L13.5125 12.1904L13.4697 11.8943L13.5589 11.881Z" fill="#2D2A26"/>
<path d="M7.23006 10.4417L5.69788 11.9471L6.52016 11.8276L6.90365 12.5651L7.23006 10.4417Z" fill="#F6B318"/>
<path d="M6.55787 10.9731L5.90326 10.6387L6.23948 11.2862L6.55787 10.9731Z" fill="#F6B318"/>
<path d="M7.19297 11.2988L7.12518 11.7447L7.85025 11.6395L7.19297 11.2988Z" fill="#F6B318"/>
</svg>
