<svg width="23" height="26" viewBox="0 0 23 26" fill="none" xmlns="http://www.w3.org/2000/svg">
<path d="M19.5914 2.85693L22.3468 8.97861V25.0994H16.834V8.97861L19.5914 2.85693Z" fill="#D9D9D9"/>
<path d="M18.5688 0H3.77435C3.50371 0 3.24416 0.107511 3.05279 0.298882C2.86142 0.490252 2.75391 0.749806 2.75391 1.02045V2.85705H19.5893V1.02045C19.5893 0.749806 19.4817 0.490252 19.2904 0.298882C19.099 0.107511 18.8394 0 18.5688 0Z" fill="#F2F2F2"/>
<path d="M0 8.97861V25.0984H16.8334V8.97861L19.5888 2.85693H2.7544L0 8.97861Z" fill="#FBFBFB"/>
<path d="M3.06397 14.4773C3.41894 13.5438 4.01756 12.7226 4.79754 12.0989C5.57753 11.4752 6.51038 11.072 7.49905 10.9311C8.48772 10.7902 9.4961 10.9168 10.4193 11.2977C11.3424 11.6786 12.1466 12.3 12.7482 13.0971L13.9909 12.9197C13.3033 11.8125 12.3082 10.9293 11.1272 10.3779C9.9461 9.82654 8.6301 9.63085 7.33971 9.81469C6.04932 9.99853 4.84034 10.554 3.86026 11.4132C2.88017 12.2725 2.17137 13.3984 1.82031 14.6537L3.06397 14.4773Z" fill="#F6B318"/>
<path d="M12.6089 20.0073C12.0931 20.6361 11.4462 21.1448 10.7134 21.4977C9.98064 21.8507 9.17964 22.0394 8.36636 22.0507C7.55308 22.062 6.74715 21.8956 6.00484 21.5631C5.26254 21.2307 4.60177 20.7401 4.06869 20.1258L2.78516 20.3092C3.43382 21.2374 4.30669 21.9864 5.32257 22.4867C6.33846 22.987 7.46436 23.2222 8.59556 23.1704C9.72675 23.1187 10.8265 22.7818 11.7925 22.1909C12.7585 21.6001 13.5594 20.7745 14.1207 19.791L12.6089 20.0073Z" fill="#F6B318"/>
<path d="M9.00297 19.5927L8.97307 19.4382C8.94826 19.4351 8.92315 19.4351 8.89834 19.4382C8.76281 19.4582 8.69902 19.514 8.74287 19.8049C8.77875 20.0611 8.8525 20.0989 9.00397 20.077C9.06422 20.0679 9.12291 20.0504 9.17837 20.0252L9.21723 20.1527C9.14593 20.1825 9.07131 20.2035 8.995 20.2155C8.73989 20.2514 8.61233 20.1856 8.56151 19.8348C8.5067 19.4522 8.63226 19.3416 8.88538 19.3067C8.95154 19.2982 9.01852 19.2982 9.08468 19.3067L9.12057 19.5787L9.00297 19.5927Z" fill="#2D2A26"/>
<path d="M9.5472 20.0082L9.64686 19.9883L9.55516 19.3455L9.44954 19.3555L9.43359 19.2409L9.81526 19.186L9.83121 19.3006L9.73155 19.3186L9.76643 19.5597L10.1052 19.5119L10.0714 19.2707L9.97171 19.2807L9.95578 19.1661L10.3365 19.1123L10.3534 19.2269L10.2487 19.2468L10.3404 19.8896L10.4461 19.8796L10.462 19.9942L10.0813 20.048L10.0654 19.9334L10.165 19.9155L10.1272 19.6494L9.78736 19.6983L9.82523 19.9643L9.92488 19.9544L9.94083 20.069L9.55916 20.1238L9.5472 20.0082Z" fill="#2D2A26"/>
<path d="M10.7972 19.8268L10.8969 19.8069L10.8052 19.1641L10.6995 19.1741L10.6836 19.0595L11.0732 19.0037L11.0892 19.1183L10.9895 19.1382L11.0812 19.782L11.1868 19.772L11.2028 19.8866L10.8131 19.9424L10.7972 19.8268Z" fill="#2D2A26"/>
<path d="M11.9522 19.1781L11.9223 19.0237C11.8975 19.0205 11.8724 19.0205 11.8476 19.0237C11.712 19.0436 11.6482 19.0994 11.6921 19.3904C11.728 19.6465 11.8017 19.6844 11.9532 19.6624C12.0134 19.6533 12.0721 19.6359 12.1276 19.6106L12.1664 19.7382C12.0951 19.7679 12.0205 19.789 11.9442 19.801C11.6891 19.8368 11.5616 19.7711 11.5107 19.4203C11.4559 19.0376 11.5815 18.927 11.8346 18.8921C11.9008 18.8836 11.9677 18.8836 12.0339 18.8921L12.0698 19.1642L11.9522 19.1781Z" fill="#2D2A26"/>
<path d="M12.4964 19.5875L12.5961 19.5676L12.5044 18.9248L12.3988 18.9348L12.3828 18.8202L12.7446 18.7684L12.7605 18.879L12.6828 18.8929L12.7256 19.1919L12.9508 18.8591L12.8681 18.867L12.8522 18.7564L13.2139 18.7046L13.2299 18.8192L13.1581 18.8331L12.923 19.175L13.2647 19.4739L13.3395 19.4659L13.3554 19.5805L12.9797 19.6334L12.9638 19.5237L13.0465 19.5088L12.7376 19.2308L12.7834 19.5506L12.8612 19.5417L12.8771 19.6523L12.5154 19.7041L12.4964 19.5875Z" fill="#2D2A26"/>
<path d="M14.11 19.15L14.0931 19.0773L13.9008 19.1052L13.9376 19.3683L14.1917 19.3324L14.1828 19.2248L14.3054 19.2068L14.3392 19.441L13.6706 19.5407L13.6546 19.4261L13.7543 19.4061L13.6626 18.7624L13.557 18.7724L13.541 18.6577L14.2097 18.5581L14.2416 18.7843L14.119 18.8023L14.0981 18.7026L13.8439 18.7385L13.8788 18.9846L14.0712 18.9567V18.884L14.1818 18.868L14.2186 19.1311L14.11 19.15Z" fill="#2D2A26"/>
<path d="M14.6979 19.3903L14.682 19.2757L14.7816 19.2558L14.6899 18.613L14.5843 18.623L14.5684 18.5084L14.9102 18.4595L15.2321 18.886C15.2879 18.9612 15.3395 19.0393 15.3865 19.1202C15.3646 19.0345 15.3447 18.9409 15.3337 18.8711L15.2849 18.5243L15.1852 18.5343L15.1693 18.4217L15.5191 18.3718L15.535 18.4864L15.4413 18.5034L15.55 19.2667L15.3158 19.3006L14.9929 18.8741C14.9371 18.799 14.8855 18.7208 14.8384 18.6399H14.8334C14.8554 18.7256 14.8763 18.8193 14.8863 18.889L14.9351 19.2348L15.0347 19.2249L15.0507 19.3375L14.6979 19.3903Z" fill="#2D2A26"/>
<path d="M13.6101 14.2154C13.6432 14.2093 13.6772 14.2101 13.71 14.2178C13.7428 14.2255 13.7736 14.24 13.8004 14.2603C13.9091 14.343 13.9788 14.5293 14.0267 14.8662L15.0581 14.6121C15.0372 14.1804 14.8471 13.7744 14.5289 13.482C14.3908 13.3894 14.2353 13.3259 14.0719 13.2952C13.9084 13.2646 13.7405 13.2674 13.5782 13.3036C13.1866 13.3415 12.8232 13.5246 12.5598 13.8168C12.4412 13.9706 12.3568 14.148 12.3121 14.337C12.2674 14.526 12.2635 14.7224 12.3007 14.913C12.4282 15.7969 13.0441 16.0361 13.5882 16.2464H13.5942C13.9928 16.3958 14.3455 16.5254 14.3994 16.8961C14.4186 16.9842 14.4103 17.076 14.3754 17.1592C14.3576 17.1916 14.3319 17.2191 14.3008 17.2391C14.2696 17.2591 14.234 17.2711 14.1971 17.2738C13.913 17.3146 13.7656 17.1233 13.6779 16.5922L12.6116 16.8662C12.6026 16.8685 12.5931 16.8675 12.5848 16.8633C12.5765 16.859 12.5701 16.8519 12.5667 16.8433L11.4187 13.7959L9.9957 14.0012L9.75154 18.0272C9.75097 18.0353 9.7478 18.043 9.7425 18.0492C9.73719 18.0553 9.73004 18.0596 9.7221 18.0614C9.71416 18.0632 9.70585 18.0624 9.69841 18.0591C9.69097 18.0558 9.68479 18.0502 9.68079 18.0431L8.8457 16.4576C8.84266 16.4493 8.84266 16.4401 8.8457 16.4317L9.45857 13.5029L8.24579 13.6733L7.95281 15.7112C7.95162 15.7193 7.94788 15.7267 7.94214 15.7324C7.93639 15.7382 7.92896 15.7419 7.92092 15.7431H7.88804C7.87992 15.7443 7.87164 15.7428 7.86445 15.7388C7.85726 15.7348 7.85155 15.7287 7.84818 15.7212L7.22834 14.3838L1.0957 15.2508L1.23123 16.1925L2.00753 16.0819C2.01717 16.0805 2.02699 16.0829 2.03483 16.0887C2.04267 16.0945 2.04791 16.1032 2.04938 16.1128L2.56757 19.8L3.63386 19.6505L3.11567 15.9633C3.11423 15.9535 3.11673 15.9435 3.12264 15.9354C3.12552 15.9314 3.12923 15.9279 3.13352 15.9253C3.13781 15.9228 3.14259 15.9211 3.14755 15.9205L3.81323 15.8268C3.81808 15.8261 3.82302 15.8264 3.82776 15.8276C3.8325 15.8289 3.83696 15.831 3.84085 15.834C3.84475 15.837 3.84801 15.8407 3.85046 15.8449C3.8529 15.8492 3.85448 15.8539 3.85509 15.8587L4.37329 19.5459L6.61148 19.231H6.61647C6.62206 19.2308 6.62761 19.232 6.63269 19.2343C6.63778 19.2366 6.64227 19.2401 6.64582 19.2444C6.64938 19.2487 6.6519 19.2538 6.6532 19.2592C6.6545 19.2647 6.65455 19.2704 6.65334 19.2758L6.42812 20.4447L7.76447 20.2664L8.07837 17.4661C8.07952 17.458 8.08322 17.4504 8.08896 17.4445C8.09469 17.4386 8.10215 17.4346 8.11027 17.4332H8.13617C8.14429 17.4321 8.15257 17.4336 8.15976 17.4375C8.16695 17.4415 8.17266 17.4477 8.17603 17.4551L8.82278 18.926L10.8158 18.645L10.8318 17.6913C10.8321 17.6826 10.8355 17.6742 10.8413 17.6677C10.8471 17.6612 10.855 17.6568 10.8637 17.6555L11.635 17.5448C11.6438 17.5435 11.6527 17.5454 11.6603 17.5502C11.6678 17.5549 11.6733 17.5622 11.6758 17.5707L11.9608 18.4856L13.1148 18.3221L12.9653 17.9026C12.9633 17.8957 12.9633 17.8885 12.9652 17.8816C12.9672 17.8747 12.971 17.8685 12.9763 17.8637C12.9829 17.8583 12.9912 17.8553 12.9997 17.8553C13.0083 17.8553 13.0166 17.8583 13.0232 17.8637C13.19 18.0082 13.3894 18.1103 13.6042 18.1611C13.819 18.2119 14.0429 18.2101 14.2569 18.1557C14.4507 18.1451 14.6397 18.0912 14.81 17.9982C14.9804 17.9052 15.1278 17.7753 15.2416 17.618C15.3553 17.4607 15.4325 17.28 15.4674 17.0891C15.5024 16.8982 15.4943 16.7018 15.4437 16.5144C15.3201 15.6554 14.6465 15.3874 14.1133 15.1711L14.0406 15.1422C13.6789 14.9867 13.4427 14.8602 13.3919 14.5353C13.3787 14.465 13.3895 14.3924 13.4228 14.329C13.4431 14.2969 13.4706 14.27 13.5031 14.2502C13.5356 14.2305 13.5722 14.2186 13.6101 14.2154ZM7.20243 16.7147L6.88653 18.1896C6.88484 18.1969 6.881 18.2036 6.87549 18.2088C6.86999 18.2139 6.86308 18.2173 6.85564 18.2185L5.33095 18.4318H5.32596C5.31768 18.4315 5.30967 18.4287 5.30305 18.4238C5.299 18.4208 5.29558 18.4171 5.29301 18.4129C5.29044 18.4086 5.28877 18.4038 5.2881 18.3989L5.16353 17.508C5.16271 17.5031 5.1629 17.4981 5.1641 17.4933C5.1653 17.4885 5.16748 17.484 5.1705 17.4801C5.17343 17.476 5.17715 17.4726 5.18143 17.47C5.18571 17.4675 5.19047 17.4658 5.19542 17.4651L6.26569 17.3107L6.13415 16.3938L5.06687 16.5473C5.06199 16.5481 5.05699 16.5479 5.05219 16.5467C5.04739 16.5455 5.04288 16.5434 5.03897 16.5403C5.03492 16.5374 5.0315 16.5337 5.02893 16.5294C5.02636 16.5251 5.02469 16.5204 5.02402 16.5154L4.9114 15.7182C4.91058 15.7133 4.91077 15.7083 4.91197 15.7035C4.91318 15.6987 4.91536 15.6942 4.91838 15.6903C4.92131 15.6862 4.92503 15.6828 4.92931 15.6803C4.93359 15.6777 4.93835 15.676 4.9433 15.6753L6.47496 15.4601C6.48245 15.459 6.49011 15.4602 6.49688 15.4636C6.50366 15.467 6.50922 15.4724 6.51283 15.479L7.19844 16.6878C7.20263 16.6961 7.20469 16.7057 7.20243 16.7147ZM11.3659 16.649C11.363 16.6535 11.3592 16.6573 11.3548 16.6602C11.3503 16.6631 11.3453 16.6651 11.34 16.6659L10.8806 16.7317H10.8756C10.8668 16.7316 10.8584 16.7284 10.8517 16.7227C10.8477 16.7192 10.8445 16.7149 10.8423 16.7101C10.84 16.7053 10.8388 16.7001 10.8388 16.6948L10.8268 15.1004C10.8269 15.0914 10.8302 15.0828 10.836 15.0761C10.8419 15.0694 10.8499 15.0649 10.8587 15.0635L10.8976 15.0585C10.9066 15.0572 10.9158 15.0592 10.9235 15.0641C10.9312 15.0691 10.9369 15.0766 10.9394 15.0854L11.3729 16.624C11.3733 16.6329 11.3709 16.6416 11.3659 16.649Z" fill="#2D2A26"/>
<path d="M15.0401 13.3415L14.9676 13.3428L14.9742 13.6216L14.9068 13.6235L14.9002 13.3447L14.8277 13.346L14.8264 13.2907L15.0398 13.2852L15.0401 13.3415Z" fill="#2D2A26"/>
<path d="M15.1698 13.2825L15.2229 13.5168L15.2655 13.28L15.3661 13.278L15.374 13.6122L15.3126 13.6139L15.3055 13.348L15.2522 13.6156L15.1998 13.6174L15.1313 13.3522L15.1385 13.618L15.0771 13.6197L15.0691 13.2855L15.1698 13.2825Z" fill="#2D2A26"/>
<path d="M8.07922 11.6672L6.36719 13.3494L7.286 13.2158L7.7145 14.04L8.07922 11.6672Z" fill="#F6B318"/>
<path d="M7.3291 12.2611L6.59766 11.8875L6.97335 12.6109L7.3291 12.2611Z" fill="#F6B318"/>
<path d="M8.03863 12.625L7.96289 13.1233L8.77307 13.0057L8.03863 12.625Z" fill="#F6B318"/>
</svg>
