<svg width="82" height="82" viewBox="0 0 82 82" fill="none" xmlns="http://www.w3.org/2000/svg">
<circle cx="41" cy="41" r="41" fill="#F6B318" fill-opacity="0.07"/>
<path d="M59.2901 19.6694L65.3551 33.1441V68.6283H53.2207V33.1441L59.2901 19.6694Z" fill="#D9D9D9"/>
<path d="M57.0354 13.3809H24.4707C23.875 13.3809 23.3037 13.6175 22.8825 14.0387C22.4613 14.46 22.2246 15.0313 22.2246 15.627V19.6696H59.2816V15.627C59.2816 15.0313 59.0449 14.46 58.6237 14.0387C58.2024 13.6175 57.6311 13.3809 57.0354 13.3809Z" fill="#F2F2F2"/>
<path d="M16.1641 33.1441V68.6261H53.2166V33.1441L59.2816 19.6694H22.2269L16.1641 33.1441Z" fill="#FBFBFB"/>
<path d="M22.9113 45.2477C23.6926 43.1931 25.0103 41.3853 26.7271 40.0126C28.444 38.6398 30.4973 37.7522 32.6735 37.442C34.8497 37.1319 37.0693 37.4105 39.1013 38.249C41.1333 39.0875 42.9035 40.4552 44.2277 42.2097L46.963 41.8193C45.4494 39.382 43.2591 37.438 40.6595 36.2244C38.0598 35.0108 35.1631 34.58 32.3228 34.9847C29.4825 35.3893 26.8213 36.6119 24.664 38.5033C22.5067 40.3946 20.9466 42.873 20.1738 45.636L22.9113 45.2477Z" fill="#F6B318"/>
<path d="M43.9223 57.4194C42.7869 58.8036 41.363 59.9232 39.7501 60.7001C38.1371 61.477 36.374 61.8924 34.5838 61.9173C32.7937 61.9421 31.0197 61.5758 29.3858 60.844C27.7519 60.1122 26.2975 59.0325 25.1241 57.6804L22.2988 58.084C23.7266 60.127 25.6479 61.7758 27.884 62.8769C30.1201 63.9781 32.5984 64.4958 35.0883 64.382C37.5782 64.2681 39.9989 63.5265 42.1253 62.2259C44.2516 60.9254 46.0144 59.1082 47.2499 56.9434L43.9223 57.4194Z" fill="#F6B318"/>
<path d="M35.982 56.5069L35.9162 56.1669C35.8616 56.16 35.8064 56.16 35.7517 56.1669C35.4534 56.2108 35.313 56.3336 35.4095 56.9741C35.4885 57.5378 35.6508 57.6212 35.9843 57.5729C36.1169 57.5528 36.2461 57.5144 36.3681 57.4588L36.4537 57.7396C36.2967 57.805 36.1325 57.8514 35.9645 57.8778C35.403 57.9568 35.1222 57.812 35.0103 57.0399C34.8897 56.1976 35.1661 55.9541 35.7232 55.8773C35.8689 55.8586 36.0163 55.8586 36.1619 55.8773L36.2409 56.4762L35.982 56.5069Z" fill="#2D2A26"/>
<path d="M37.1817 57.4217L37.4011 57.3778L37.1992 55.963L36.9668 55.9849L36.9316 55.7327L37.7717 55.612L37.8069 55.8643L37.5875 55.9038L37.6643 56.4346L38.41 56.3293L38.3355 55.7985L38.1161 55.8204L38.081 55.5682L38.919 55.4497L38.9562 55.7019L38.7259 55.7458L38.9277 57.1606L39.1602 57.1387L39.1953 57.3909L38.3574 57.5094L38.3223 57.2571L38.5417 57.2177L38.4583 56.632L37.7103 56.7395L37.7937 57.3251L38.013 57.3032L38.0481 57.5554L37.208 57.6761L37.1817 57.4217Z" fill="#2D2A26"/>
<path d="M39.9297 57.0223L40.1491 56.9784L39.9473 55.5636L39.7148 55.5855L39.6797 55.3333L40.5374 55.2104L40.5724 55.4627L40.3531 55.5066L40.5549 56.9236L40.7874 56.9017L40.8225 57.1539L39.9649 57.2767L39.9297 57.0223Z" fill="#2D2A26"/>
<path d="M42.4723 55.5947L42.4065 55.2548C42.3519 55.2479 42.2966 55.2479 42.242 55.2548C41.9437 55.2986 41.8033 55.4215 41.8998 56.062C41.9787 56.6257 42.1411 56.7091 42.4745 56.6608C42.6071 56.6407 42.7362 56.6023 42.8583 56.5467L42.9439 56.8275C42.7869 56.8929 42.6227 56.9393 42.4547 56.9657C41.8932 57.0446 41.6124 56.8999 41.5006 56.1278C41.3799 55.2855 41.6563 55.042 42.2135 54.9652C42.3591 54.9465 42.5065 54.9465 42.6521 54.9652L42.7311 55.5641L42.4723 55.5947Z" fill="#2D2A26"/>
<path d="M43.672 56.4957L43.8913 56.4518L43.6895 55.037L43.457 55.059L43.4219 54.8067L44.2181 54.6926L44.2532 54.9361L44.0822 54.9668L44.1765 55.6249L44.6722 54.8922L44.4901 54.9098L44.455 54.6663L45.2513 54.5522L45.2864 54.8045L45.1284 54.8352L44.6108 55.5876L45.3631 56.2456L45.5277 56.2281L45.5628 56.4803L44.7358 56.5966L44.7007 56.3553L44.8828 56.3224L44.2028 55.7104L44.3037 56.4145L44.4748 56.3948L44.5099 56.6383L43.7137 56.7523L43.672 56.4957Z" fill="#2D2A26"/>
<path d="M47.2251 55.5329L47.1878 55.3728L46.7645 55.4342L46.8456 56.0133L47.405 55.9343L47.3852 55.6974L47.6551 55.6579L47.7296 56.1734L46.2578 56.3928L46.2227 56.1405L46.442 56.0966L46.2402 54.6797L46.0077 54.7016L45.9727 54.4493L47.4445 54.23L47.5147 54.7279L47.2449 54.7674L47.1988 54.548L46.6394 54.627L46.7162 55.1688L47.1396 55.1074V54.9472L47.3831 54.9122L47.4642 55.4912L47.2251 55.5329Z" fill="#2D2A26"/>
<path d="M48.5195 56.0616L48.4845 55.8093L48.7038 55.7655L48.502 54.3507L48.2695 54.3726L48.2344 54.1204L48.9867 54.0128L49.6953 54.9517C49.8182 55.117 49.9317 55.2891 50.0353 55.4672C49.987 55.2785 49.9431 55.0723 49.919 54.9188L49.8115 54.1554L49.5921 54.1774L49.557 53.9295L50.327 53.8198L50.3621 54.0721L50.1559 54.1094L50.395 55.7896L49.8795 55.8642L49.1688 54.9253C49.0459 54.76 48.9324 54.5879 48.8288 54.4099H48.8178C48.8661 54.5985 48.9122 54.8047 48.9341 54.9582L49.0416 55.7194L49.2609 55.6975L49.296 55.9453L48.5195 56.0616Z" fill="#2D2A26"/>
<path d="M46.1221 44.6705C46.195 44.6569 46.2699 44.6587 46.342 44.6757C46.4141 44.6927 46.4819 44.7245 46.5411 44.7692C46.7802 44.9513 46.9337 45.3614 47.039 46.1029L49.3093 45.5435C49.2634 44.5934 48.8449 43.6997 48.1445 43.0561C47.8405 42.8523 47.4982 42.7125 47.1385 42.645C46.7788 42.5775 46.4091 42.5838 46.0519 42.6634C45.1898 42.7468 44.3901 43.1498 43.8102 43.7931C43.5492 44.1317 43.3633 44.522 43.265 44.9381C43.1666 45.3541 43.1581 45.7863 43.2398 46.2059C43.5206 48.1516 44.8762 48.678 46.0738 49.1408H46.087C46.9644 49.4699 47.7409 49.755 47.8594 50.571C47.9018 50.7649 47.8834 50.9671 47.8067 51.1501C47.7675 51.2215 47.711 51.282 47.6424 51.3261C47.5739 51.3701 47.4954 51.3963 47.4141 51.4023C46.7889 51.4923 46.4643 51.0711 46.2713 49.902L43.9242 50.5052C43.9045 50.5103 43.8835 50.508 43.8653 50.4987C43.8471 50.4894 43.8329 50.4738 43.8255 50.4547L41.2986 43.747L38.1663 44.1989L37.6289 53.0606C37.6276 53.0785 37.6206 53.0955 37.609 53.1091C37.5973 53.1227 37.5815 53.1321 37.5641 53.1361C37.5466 53.14 37.5283 53.1382 37.5119 53.1309C37.4955 53.1237 37.482 53.1113 37.4731 53.0957L35.635 49.6059C35.6283 49.5874 35.6283 49.5673 35.635 49.5488L36.984 43.1021L34.3145 43.4772L33.6696 47.9629C33.667 47.9806 33.6588 47.997 33.6461 48.0096C33.6335 48.0222 33.6171 48.0305 33.5994 48.0331H33.5271C33.5092 48.0357 33.4909 48.0323 33.4751 48.0236C33.4593 48.0149 33.4467 48.0013 33.4393 47.9849L32.075 45.0412L18.5762 46.9495L18.8745 49.0224L20.5832 48.7789C20.6044 48.7758 20.6261 48.7811 20.6433 48.7939C20.6606 48.8066 20.6721 48.8257 20.6754 48.8469L21.816 56.9628L24.163 56.6338L23.0224 48.5179C23.0192 48.4962 23.0247 48.4741 23.0377 48.4565C23.0441 48.4475 23.0522 48.4399 23.0617 48.4342C23.0711 48.4285 23.0816 48.4249 23.0926 48.4236L24.5578 48.2174C24.5685 48.2158 24.5794 48.2164 24.5898 48.2191C24.6003 48.2218 24.6101 48.2266 24.6186 48.2332C24.6272 48.2397 24.6344 48.2478 24.6398 48.2572C24.6451 48.2665 24.6486 48.2769 24.65 48.2876L25.7906 56.4035L30.7172 55.7103H30.7281C30.7405 55.7101 30.7527 55.7126 30.7639 55.7177C30.7751 55.7228 30.7849 55.7305 30.7928 55.74C30.8006 55.7495 30.8061 55.7606 30.809 55.7726C30.8119 55.7846 30.812 55.7971 30.8093 55.8091L30.3136 58.382L33.2551 57.9894L33.946 51.8257C33.9485 51.8077 33.9567 51.7911 33.9693 51.778C33.9819 51.765 33.9983 51.7564 34.0162 51.7533H34.0732C34.0911 51.7507 34.1093 51.7541 34.1251 51.7628C34.141 51.7715 34.1535 51.7851 34.161 51.8015L35.5845 55.0391L39.9715 54.4206L40.0066 52.3214C40.0074 52.3022 40.0148 52.2838 40.0276 52.2694C40.0404 52.255 40.0578 52.2455 40.0768 52.2424L41.7746 51.9989C41.7939 51.996 41.8137 52.0002 41.8302 52.0107C41.8467 52.0211 41.8589 52.0372 41.8645 52.056L42.4919 54.0696L45.0319 53.7099L44.7029 52.7864C44.6985 52.7713 44.6984 52.7553 44.7026 52.7402C44.7069 52.725 44.7154 52.7114 44.727 52.7009C44.7416 52.6889 44.7598 52.6824 44.7786 52.6824C44.7974 52.6824 44.8156 52.6889 44.8301 52.7009C45.1975 53.019 45.6362 53.2436 46.1091 53.3555C46.5819 53.4674 47.0748 53.4633 47.5457 53.3436C47.9723 53.3201 48.3883 53.2017 48.7633 52.9969C49.1383 52.7922 49.4628 52.5063 49.7132 52.16C49.9635 51.8138 50.1334 51.416 50.2104 50.9958C50.2874 50.5755 50.2695 50.1434 50.1581 49.7309C49.8861 47.8401 48.4033 47.25 47.2298 46.7741L47.0697 46.7104C46.2735 46.3682 45.7536 46.0897 45.6417 45.3746C45.6127 45.2199 45.6366 45.0599 45.7097 44.9206C45.7545 44.8499 45.815 44.7905 45.8866 44.7471C45.9581 44.7037 46.0387 44.6775 46.1221 44.6705ZM32.0179 50.1718L31.3226 53.4181C31.3189 53.4343 31.3104 53.449 31.2983 53.4604C31.2862 53.4717 31.271 53.4791 31.2546 53.4818L27.8985 53.9512H27.8876C27.8693 53.9507 27.8517 53.9446 27.8371 53.9336C27.8282 53.9272 27.8207 53.919 27.815 53.9096C27.8094 53.9002 27.8057 53.8897 27.8042 53.8788L27.53 51.9178C27.5282 51.9071 27.5286 51.8961 27.5313 51.8855C27.5339 51.8749 27.5387 51.865 27.5454 51.8564C27.5518 51.8475 27.56 51.84 27.5694 51.8343C27.5789 51.8287 27.5893 51.825 27.6002 51.8235L29.956 51.4835L29.6665 49.4655L27.3173 49.8033C27.3065 49.8051 27.2955 49.8047 27.2849 49.802C27.2744 49.7994 27.2645 49.7946 27.2558 49.7879C27.2469 49.7815 27.2394 49.7733 27.2338 49.7639C27.2281 49.7545 27.2244 49.744 27.2229 49.7331L26.9751 47.9783C26.9732 47.9675 26.9737 47.9566 26.9763 47.946C26.979 47.9354 26.9838 47.9255 26.9904 47.9169C26.9969 47.908 27.005 47.9004 27.0145 47.8948C27.0239 47.8891 27.0344 47.8854 27.0453 47.884L30.4167 47.4102C30.4332 47.4077 30.45 47.4104 30.4649 47.4179C30.4798 47.4253 30.4921 47.4372 30.5 47.4518L32.0092 50.1126C32.0184 50.1309 32.0229 50.1519 32.0179 50.1718ZM41.1824 50.027C41.176 50.0369 41.1677 50.0453 41.1578 50.0518C41.148 50.0582 41.1369 50.0625 41.1253 50.0643L40.1141 50.2091H40.1031C40.0838 50.209 40.0651 50.202 40.0505 50.1893C40.0417 50.1816 40.0346 50.1722 40.0297 50.1616C40.0248 50.1511 40.0222 50.1396 40.022 50.1279L39.9957 46.6183C39.9959 46.5987 40.0031 46.5798 40.016 46.5649C40.0288 46.5501 40.0465 46.5403 40.0659 46.5372L40.1514 46.5262C40.1713 46.5233 40.1916 46.5276 40.2086 46.5385C40.2255 46.5494 40.2379 46.5661 40.2435 46.5854L41.1977 49.9722C41.1987 49.9916 41.1933 50.0109 41.1824 50.027Z" fill="#2D2A26"/>
<path d="M49.2479 42.7644L49.09 42.7864L49.1777 43.394L49.0308 43.4159L48.943 42.8083L48.7851 42.8302L48.7676 42.7096L49.2325 42.6416L49.2479 42.7644Z" fill="#2D2A26"/>
<path d="M49.5143 42.6019L49.6919 43.0999L49.7227 42.5713L49.942 42.5405L50.0473 43.2688L49.9134 43.2885L49.8279 42.7095L49.7818 43.3083L49.6678 43.3258L49.4485 42.7643L49.534 43.3433L49.4002 43.3631L49.2949 42.6348L49.5143 42.6019Z" fill="#2D2A26"/>
<path d="M33.9462 39.062L30.1777 42.7646L32.2002 42.4707L33.1434 44.2847L33.9462 39.062Z" fill="#F6B318"/>
<path d="M32.2936 40.3694L30.6836 39.5469L31.5105 41.1393L32.2936 40.3694Z" fill="#F6B318"/>
<path d="M33.8542 41.1699L33.6875 42.2667L35.4708 42.0078L33.8542 41.1699Z" fill="#F6B318"/>
</svg>
