<svg xmlns="http://www.w3.org/2000/svg" version="1.1" xmlns:xlink="http://www.w3.org/1999/xlink" x="0" y="0" viewBox="0 0 64 64" style="enable-background:new 0 0 512 512" xml:space="preserve"><g><path d="M63.567 27.042c-.11-.68-.74-1.21-1.43-1.15a9.03 9.03 0 0 1-7.05-2.62 8.885 8.885 0 0 1-1.83-2.64 1.42 1.42 0 0 0-1.169-.85 8.975 8.975 0 0 1-5.33-2.58 8.949 8.949 0 0 1-2.58-5.33c-.06-.52-.37-.96-.85-1.169a9.094 9.094 0 0 1-2.65-1.84 8.986 8.986 0 0 1-2.609-7.05c.05-.7-.48-1.32-1.16-1.43-10.199-1.59-21.008 1.76-28.598 10.06-11.039 12.069-11.009 31.137.05 43.187 12.39 13.489 33.388 13.819 46.207.99 7.52-7.51 10.519-17.82 9-27.578zm-45.946-11.96a3.239 3.239 0 1 1 0 6.48c-1.79 0-3.25-1.45-3.25-3.24 0-1.79 1.46-3.24 3.25-3.24zM20.97 46.9c-3.33 0-6.04-2.71-6.04-6.05 0-3.33 2.71-6.039 6.04-6.039 3.34 0 6.049 2.71 6.049 6.04 0 3.34-2.71 6.05-6.05 6.05zm16.358-17.279c-2.26 0-4.1-1.84-4.1-4.1 0-2.259 1.84-4.099 4.1-4.099s4.1 1.84 4.1 4.1-1.84 4.1-4.1 4.1zm8.04 19.989c-2.29 0-4.15-1.86-4.15-4.15s1.86-4.15 4.15-4.15 4.15 1.86 4.15 4.15-1.86 4.15-4.15 4.15z" fill="currentColor" opacity="1" data-original="#000000"/></g></svg>