<svg width="70" height="23" viewBox="0 0 70 23" fill="none" xmlns="http://www.w3.org/2000/svg">
<path d="M4.89186 22.3087H0V0.933766H4.95092C6.73845 0.83963 8.51877 1.22689 10.1056 2.05514C11.3671 2.82586 12.3042 4.03008 12.7415 5.44221C13.306 7.31061 13.5666 9.25758 13.5132 11.2087C13.5638 13.2799 13.2988 15.3468 12.727 17.3381C12.2984 18.8473 11.3571 20.1601 10.0655 21.0507C8.50193 21.9692 6.7026 22.4068 4.89186 22.3087ZM5.18335 17.8825H5.62014C5.88444 17.8953 6.14838 17.8542 6.39627 17.7616C6.64417 17.6691 6.8707 17.5271 7.06195 17.3442C7.50783 16.7885 7.7858 16.117 7.86289 15.4087C8.06495 14.0987 8.15254 12.7735 8.12514 11.4482C8.14024 10.3681 8.08228 9.2882 7.95119 8.21596C7.88419 7.57731 7.71702 6.95318 7.45622 6.36637C7.29858 6.00725 7.02753 5.70976 6.68452 5.51959C6.36132 5.36891 6.00798 5.29406 5.65145 5.30067H5.18571L5.18335 17.8825Z" fill="#2D2A26"/>
<path d="M68.7252 7.54335L63.6869 8.03811C63.7568 7.2019 63.6577 6.36022 63.3954 5.56316C63.3229 5.3665 63.1917 5.19681 63.0197 5.07697C62.8477 4.95714 62.6434 4.89291 62.4338 4.89298C62.2911 4.88023 62.1474 4.90278 62.0156 4.95869C61.8837 5.0146 61.7677 5.10216 61.6777 5.21356C61.5167 5.44342 61.4346 5.71933 61.4441 5.99981C61.4287 6.3072 61.4793 6.61431 61.5924 6.90057C61.7055 7.18682 61.8784 7.4456 62.0998 7.65949C62.635 8.14077 63.2152 8.56976 63.8322 8.94056C64.4152 9.27121 65.0171 9.63407 65.6381 10.0292C66.2673 10.4336 66.8531 10.9018 67.3862 11.4264C67.9446 11.9795 68.3956 12.6312 68.7166 13.3486C69.0741 14.1893 69.2479 15.0966 69.2261 16.0099C69.2763 17.3081 68.9904 18.5973 68.3962 19.7526C67.8781 20.6992 67.0795 21.462 66.1101 21.9361C65.0732 22.4261 63.9371 22.6704 62.7905 22.6498C60.4026 22.6498 58.6989 22.0478 57.6795 20.8437C56.5611 19.3419 55.9908 17.5024 56.0635 15.6313L61.3921 15.0482C61.3845 15.759 61.4626 16.4681 61.6246 17.1603C61.7015 17.5422 61.9068 17.8862 62.2064 18.1352C62.463 18.3116 62.7683 18.4035 63.0797 18.3978C63.7248 18.3978 64.0453 17.9413 64.0413 17.0284C64.0552 16.6653 63.9802 16.3043 63.8227 15.9769C63.6652 15.6495 63.4302 15.3655 63.1378 15.1498C62.4559 14.6434 61.7356 14.1908 60.9834 13.7962C60.4189 13.4663 59.8461 13.1167 59.2655 12.7474C58.6772 12.3732 58.1388 11.9261 57.6627 11.4168C57.1599 10.8748 56.7647 10.2422 56.4979 9.55264C56.1885 8.7192 56.0402 7.83452 56.0611 6.94575C56.0044 6.05929 56.1446 5.17127 56.4719 4.34551C56.7993 3.51975 57.3055 2.77676 57.9542 2.16996C59.3305 1.0231 61.0855 0.431313 62.8753 0.510348C63.7042 0.437116 64.5387 0.555178 65.3147 0.855515C66.0907 1.15585 66.7874 1.63038 67.351 2.24254C68.4062 3.79832 68.8917 5.67086 68.7252 7.54335Z" fill="#2D2A26"/>
<path d="M50.4958 17.7372V0.933594H45.3125V7.54324L47.744 7.5916C48.0057 7.59665 48.2592 7.68485 48.4675 7.84337C48.6758 8.0019 48.8282 8.22255 48.9028 8.47346C48.9776 8.72372 48.9712 8.99126 48.8842 9.23756C48.7973 9.48385 48.6344 9.69619 48.4191 9.84402L45.316 11.9585V22.3097H55.538V17.7384L50.4958 17.7372Z" fill="#2D2A26"/>
<path d="M27.9492 22.2931L35.5085 17.1411L35.5522 17.1738L42.8622 22.5774L35.8254 0L32.8496 8.47983L30.9383 13.8303L27.9492 22.2931Z" fill="#9A3324"/>
<path d="M23.6445 8.37695L30.2035 13.2266L31.8668 8.51967L23.6445 8.37695Z" fill="#9A3324"/>
<path d="M47.72 8.82445L39.459 8.66113L40.948 13.4394L47.72 8.82445Z" fill="#9A3324"/>
<path d="M20.0349 13.689H24.9861V10.9067L22.9114 9.37279C22.8561 9.33152 22.8044 9.28583 22.7566 9.23613H20.0349V5.50913H25.5679V0.936523H14.8223V22.3115H26.0915V17.7389H20.0349V13.689Z" fill="#2D2A26"/>
</svg>
