<svg width="266" height="266" viewBox="0 0 266 266" fill="none" xmlns="http://www.w3.org/2000/svg">
<circle cx="133" cy="133" r="133" fill="#F6B318" fill-opacity="0.07"/>
<g clipPath="url(#clip0_569_13593)">
<path d="M128.256 44H138.744V65.3262H128.256V44ZM128.256 201.674H138.744V223H128.256V201.674ZM74.1704 66.7547L89.0016 81.5858L81.586 89.001L66.7549 74.1702L74.1704 66.7547Z" fill="#D9D9D9"/>
<path d="M185.415 177.996L200.246 192.827L192.831 200.243L177.999 185.411L185.415 177.996Z" fill="#757575"/>
<path d="M44 128.256H65.3262V138.744H44V128.256Z" fill="#D9D9D9"/>
<path d="M201.674 128.256H223V138.744H201.674V128.256Z" fill="#757575"/>
<path d="M81.587 177.997L89.0022 185.413L74.1714 200.244L66.7559 192.829L81.587 177.997Z" fill="#D9D9D9"/>
<path d="M192.829 66.7533L200.244 74.1689L185.413 89L177.998 81.5844L192.829 66.7533Z" fill="#757575"/>
<path d="M133.5 181.695L130.652 179.858C96.3554 157.703 81.0586 138.897 81.0586 118.879C81.0586 100.612 93.7277 86.3027 109.901 86.3027C121.173 86.3027 129.023 91.7423 133.5 96.0796C137.977 91.7423 145.827 86.3027 157.099 86.3027C173.272 86.3027 185.941 100.612 185.941 118.879C185.941 138.898 170.645 157.703 136.348 179.858L133.5 181.695Z" fill="#F6B318" fill-opacity="0.2"/>
<path d="M133.5 44H138.744V65.3262H133.5V44Z" fill="#757575"/>
<path d="M133.5 201.674H138.744V223H133.5V201.674Z" fill="#757575"/>
<path d="M136.348 179.858C170.645 157.703 185.941 138.897 185.941 118.879C185.941 100.612 173.272 86.3027 157.099 86.3027C145.827 86.3027 137.977 91.7423 133.5 96.0796V181.695L136.348 179.858Z" fill="#F6B318"/>
</g>
<defs>
<clipPath id="clip0_569_13593">
<rect width="179" height="179" fill="white" transform="translate(44 44)"/>
</clipPath>
</defs>
</svg>
