<svg width="266" height="266" viewBox="0 0 266 266" fill="none" xmlns="http://www.w3.org/2000/svg">
<circle cx="133" cy="133" r="133" fill="#F6B318" fill-opacity="0.07"/>
<path d="M98.514 118.78C97.6423 118.78 96.8796 118.344 96.5527 117.582L59.9411 43.1599C59.2873 41.7434 60.268 40 61.9024 40H109.083C109.955 40 110.718 40.5448 111.045 41.3076L135.017 91.5395C135.562 92.7381 134.908 94.1547 133.6 94.5905L122.922 116.274L100.475 117.364C100.148 118.236 99.3858 118.78 98.514 118.78Z" fill="#F6B318" fill-opacity="0.2"/>
<path d="M66.5875 56.5626L64.4082 52.2041H116.275L118.345 56.5626H66.5875Z" fill="#757575"/>
<path d="M167.488 118.89C166.398 118.89 165.418 117.909 165.309 116.819L128.261 107.231C126.736 109.192 123.576 107.231 124.665 104.942L154.957 41.4169C155.284 40.6542 156.047 40.1094 156.918 40.1094H204.099C205.625 40.1094 206.715 41.8528 205.952 43.2693L169.449 117.691C169.122 118.454 168.36 118.89 167.488 118.89Z" fill="#F6B318" fill-opacity="0.2"/>
<path d="M147.656 56.5626L149.727 52.2041H201.593L199.414 56.5626H147.656Z" fill="#757575"/>
<path d="M132.945 226C99.0579 226 71.4902 198.432 71.4902 164.653C71.4902 130.766 99.0579 103.198 132.945 103.198C166.724 103.198 194.292 130.766 194.292 164.653C194.292 198.432 166.724 226 132.945 226Z" fill="#D9D9D9"/>
<path d="M131.42 103.308H134.362V118.018C134.362 119.979 131.42 119.979 131.42 118.018V103.308ZM175.223 120.197C175.986 120.851 176.64 121.613 177.293 122.267L166.833 132.728C165.525 134.035 163.455 132.074 164.763 130.657L175.223 120.197ZM194.292 163.237V166.07H179.473C177.62 166.07 177.62 163.237 179.473 163.237H194.292ZM177.293 206.932C176.64 207.694 175.986 208.348 175.223 209.002L164.872 198.541C163.455 197.234 165.525 195.164 166.833 196.58L177.293 206.932ZM132.945 226H131.42V211.181C131.42 209.329 134.362 209.329 134.362 211.181V226H132.945ZM90.5588 209.002C89.905 208.348 89.1423 207.694 88.4885 206.932L98.9489 196.58C100.256 195.272 102.327 197.234 101.019 198.541L90.5588 209.002ZM71.4902 166.07V163.237H86.3092C88.2705 163.237 88.2705 166.07 86.3092 166.07H71.4902ZM88.4885 122.267L90.5588 120.197L101.019 130.657C102.327 132.074 100.256 134.035 98.9489 132.728L88.4885 122.267Z" fill="#F5F4F4"/>
<path d="M132.947 212.597C106.469 212.597 84.8945 191.131 84.8945 164.653C84.8945 138.175 106.469 116.601 132.947 116.601C159.425 116.601 180.891 138.175 180.891 164.653C180.891 191.131 159.425 212.597 132.947 212.597Z" fill="#FBFBFB"/>
<path d="M151.36 194.401C150.488 194.401 135.016 185.684 132.945 184.485L115.184 194.292C114.095 194.837 112.787 193.965 113.005 192.766L116.819 172.826L102.109 158.988C101.237 158.116 101.673 156.7 102.872 156.482L123.03 153.976L131.638 135.67C132.074 134.58 133.708 134.58 134.253 135.67L142.861 153.976L162.91 156.482C164.109 156.7 164.545 158.116 163.782 158.988L148.963 172.826L152.777 192.766C152.886 193.638 152.232 194.401 151.36 194.401Z" fill="#F6B318"/>
</svg>
