<svg width="266" height="266" viewBox="0 0 266 266" fill="none" xmlns="http://www.w3.org/2000/svg">
<circle cx="133" cy="133" r="133" fill="#F6B318" fill-opacity="0.07"/>
<path d="M192.325 63.8066L212 107.517V222.624H172.637V107.517L192.325 63.8066Z" fill="#D9D9D9"/>
<path d="M185.013 43.4062H79.3761C77.4437 43.4063 75.5904 44.1739 74.2239 45.5403C72.8575 46.9068 72.0898 48.7601 72.0898 50.6925V63.8064H192.299V50.6925C192.299 48.7601 191.531 46.9068 190.165 45.5403C188.798 44.1739 186.945 43.4062 185.013 43.4062Z" fill="#F2F2F2"/>
<path d="M52.4316 107.517V222.617H172.627V107.517L192.301 63.8066H72.0989L52.4316 107.517Z" fill="#FBFBFB"/>
<path d="M74.3176 146.779C76.8522 140.114 81.1265 134.25 86.6958 129.797C92.2651 125.344 98.9259 122.465 105.985 121.459C113.045 120.452 120.245 121.356 126.836 124.076C133.428 126.796 139.17 131.233 143.466 136.924L152.339 135.658C147.429 127.752 140.324 121.446 131.891 117.509C123.458 113.572 114.061 112.174 104.848 113.487C95.6338 114.8 87.0013 118.766 80.0033 124.901C73.0052 131.037 67.9441 139.076 65.4375 148.039L74.3176 146.779Z" fill="#F6B318"/>
<path d="M142.475 186.265C138.791 190.755 134.172 194.387 128.94 196.907C123.708 199.427 117.988 200.775 112.181 200.856C106.374 200.936 100.62 199.748 95.3195 197.374C90.0193 195 85.3012 191.498 81.4948 187.111L72.3301 188.421C76.9617 195.048 83.1943 200.397 90.4479 203.969C97.7016 207.541 105.741 209.22 113.818 208.851C121.895 208.482 129.748 206.076 136.645 201.857C143.543 197.638 149.261 191.743 153.269 184.721L142.475 186.265Z" fill="#F6B318"/>
<path d="M116.713 183.305L116.5 182.202C116.323 182.179 116.143 182.179 115.966 182.202C114.999 182.344 114.543 182.742 114.856 184.82C115.112 186.649 115.639 186.919 116.721 186.763C117.151 186.698 117.57 186.573 117.966 186.393L118.243 187.303C117.734 187.516 117.201 187.666 116.656 187.752C114.835 188.008 113.924 187.538 113.561 185.034C113.17 182.301 114.066 181.511 115.874 181.262C116.346 181.202 116.824 181.202 117.297 181.262L117.553 183.205L116.713 183.305Z" fill="#2D2A26"/>
<path d="M120.606 186.272L121.318 186.13L120.663 181.54L119.909 181.611L119.795 180.793L122.52 180.401L122.634 181.22L121.922 181.348L122.171 183.07L124.591 182.728L124.349 181.006L123.637 181.077L123.523 180.259L126.242 179.875L126.363 180.693L125.615 180.836L126.27 185.425L127.024 185.354L127.138 186.172L124.42 186.556L124.306 185.738L125.018 185.61L124.747 183.71L122.321 184.059L122.591 185.959L123.303 185.888L123.417 186.706L120.692 187.097L120.606 186.272Z" fill="#2D2A26"/>
<path d="M129.522 184.977L130.234 184.835L129.579 180.245L128.825 180.316L128.711 179.498L131.493 179.1L131.607 179.918L130.895 180.06L131.55 184.657L132.304 184.586L132.418 185.404L129.636 185.802L129.522 184.977Z" fill="#2D2A26"/>
<path d="M137.766 180.345L137.553 179.243C137.375 179.22 137.196 179.22 137.019 179.243C136.051 179.385 135.596 179.783 135.909 181.861C136.165 183.69 136.692 183.96 137.773 183.804C138.203 183.738 138.622 183.614 139.018 183.434L139.296 184.344C138.787 184.557 138.254 184.707 137.709 184.793C135.888 185.049 134.977 184.579 134.614 182.075C134.223 179.342 135.119 178.552 136.927 178.303C137.399 178.243 137.877 178.243 138.35 178.303L138.606 180.246L137.766 180.345Z" fill="#2D2A26"/>
<path d="M141.659 183.269L142.371 183.127L141.716 178.537L140.962 178.609L140.848 177.79L143.431 177.42L143.544 178.21L142.99 178.31L143.296 180.444L144.904 178.068L144.313 178.125L144.199 177.335L146.782 176.965L146.896 177.783L146.384 177.883L144.704 180.323L147.145 182.458L147.679 182.401L147.792 183.219L145.11 183.597L144.996 182.814L145.587 182.707L143.381 180.722L143.708 183.006L144.263 182.942L144.377 183.732L141.794 184.102L141.659 183.269Z" fill="#2D2A26"/>
<path d="M153.188 180.145L153.067 179.625L151.694 179.824L151.957 181.703L153.771 181.447L153.707 180.678L154.583 180.55L154.824 182.222L150.05 182.934L149.936 182.116L150.648 181.973L149.993 177.377L149.239 177.448L149.125 176.629L153.899 175.918L154.127 177.533L153.252 177.661L153.102 176.95L151.288 177.206L151.537 178.963L152.91 178.764V178.245L153.7 178.131L153.963 180.009L153.188 180.145Z" fill="#2D2A26"/>
<path d="M157.384 181.86L157.27 181.042L157.982 180.899L157.327 176.31L156.573 176.381L156.459 175.563L158.9 175.214L161.198 178.26C161.597 178.796 161.965 179.354 162.301 179.932C162.144 179.32 162.002 178.651 161.924 178.153L161.575 175.677L160.863 175.748L160.75 174.944L163.247 174.588L163.361 175.406L162.692 175.527L163.468 180.978L161.796 181.22L159.49 178.174C159.092 177.638 158.723 177.079 158.387 176.502H158.352C158.508 177.114 158.658 177.783 158.729 178.281L159.078 180.75L159.789 180.679L159.903 181.483L157.384 181.86Z" fill="#2D2A26"/>
<path d="M149.61 144.908C149.847 144.864 150.09 144.87 150.324 144.925C150.558 144.98 150.777 145.084 150.969 145.229C151.745 145.819 152.243 147.15 152.585 149.555L159.949 147.74C159.8 144.658 158.443 141.759 156.171 139.671C155.184 139.01 154.074 138.557 152.907 138.338C151.74 138.119 150.541 138.139 149.383 138.398C146.586 138.668 143.992 139.975 142.111 142.062C141.264 143.161 140.661 144.427 140.342 145.776C140.023 147.126 139.995 148.528 140.26 149.889C141.171 156.201 145.569 157.908 149.454 159.41H149.496C152.343 160.477 154.861 161.402 155.246 164.049C155.383 164.678 155.324 165.334 155.075 165.928C154.948 166.159 154.764 166.356 154.542 166.498C154.32 166.641 154.065 166.726 153.801 166.746C151.773 167.038 150.72 165.671 150.094 161.879L142.481 163.836C142.416 163.852 142.348 163.845 142.289 163.815C142.23 163.785 142.184 163.734 142.16 163.672L133.963 141.913L123.802 143.379L122.059 172.125C122.055 172.183 122.032 172.238 121.994 172.282C121.957 172.326 121.905 172.357 121.849 172.37C121.792 172.383 121.733 172.377 121.68 172.353C121.627 172.33 121.582 172.29 121.554 172.239L115.591 160.918C115.569 160.859 115.569 160.793 115.591 160.733L119.967 139.821L111.308 141.038L109.216 155.589C109.207 155.646 109.18 155.699 109.139 155.74C109.098 155.781 109.045 155.808 108.988 155.816H108.753C108.695 155.825 108.636 155.814 108.585 155.786C108.533 155.757 108.493 155.713 108.468 155.66L104.043 146.111L60.2539 152.301L61.2216 159.026L66.7646 158.236C66.8334 158.226 66.9035 158.243 66.9595 158.284C67.0155 158.326 67.0529 158.387 67.0634 158.456L70.7635 184.784L78.377 183.716L74.677 157.389C74.6668 157.319 74.6846 157.247 74.7268 157.19C74.7474 157.161 74.7738 157.136 74.8045 157.118C74.8351 157.099 74.8692 157.087 74.9047 157.083L79.6578 156.414C79.6925 156.409 79.7277 156.411 79.7616 156.42C79.7954 156.429 79.8272 156.444 79.8551 156.465C79.8829 156.487 79.9062 156.513 79.9236 156.543C79.9411 156.574 79.9523 156.607 79.9567 156.642L83.6568 182.969L99.6381 180.721H99.6737C99.7137 180.72 99.7533 180.728 99.7896 180.745C99.8259 180.761 99.858 180.786 99.8833 180.817C99.9087 180.848 99.9267 180.884 99.936 180.923C99.9453 180.961 99.9456 181.002 99.937 181.041L98.3289 189.387L107.871 188.114L110.112 168.119C110.12 168.061 110.147 168.007 110.188 167.965C110.229 167.922 110.282 167.894 110.34 167.884H110.525C110.583 167.876 110.642 167.887 110.693 167.915C110.745 167.943 110.785 167.987 110.809 168.041L115.427 178.543L129.658 176.537L129.772 169.727C129.775 169.665 129.799 169.605 129.84 169.558C129.882 169.512 129.938 169.481 130 169.471L135.507 168.681C135.57 168.672 135.634 168.685 135.688 168.719C135.741 168.753 135.781 168.805 135.799 168.866L137.834 175.398L146.074 174.231L145.007 171.236C144.992 171.187 144.992 171.135 145.006 171.086C145.019 171.037 145.047 170.992 145.085 170.958C145.132 170.919 145.191 170.898 145.252 170.898C145.313 170.898 145.372 170.919 145.419 170.958C146.611 171.99 148.034 172.719 149.568 173.082C151.102 173.445 152.701 173.431 154.228 173.043C155.612 172.967 156.962 172.583 158.178 171.919C159.394 171.254 160.447 170.327 161.259 169.204C162.071 168.081 162.622 166.79 162.872 165.427C163.122 164.064 163.064 162.662 162.703 161.324C161.82 155.19 157.01 153.276 153.204 151.732L152.684 151.526C150.101 150.416 148.415 149.512 148.052 147.192C147.958 146.691 148.035 146.172 148.273 145.72C148.418 145.49 148.614 145.298 148.846 145.157C149.078 145.016 149.34 144.931 149.61 144.908ZM103.858 162.754L101.602 173.285C101.59 173.337 101.563 173.385 101.523 173.422C101.484 173.459 101.435 173.483 101.381 173.491L90.4947 175.014H90.4591C90.4 175.013 90.3428 174.993 90.2955 174.957C90.2666 174.936 90.2422 174.91 90.2239 174.879C90.2055 174.849 90.1936 174.815 90.1888 174.779L89.2993 168.418C89.2935 168.383 89.2948 168.347 89.3034 168.313C89.312 168.279 89.3275 168.247 89.3491 168.219C89.37 168.19 89.3966 168.165 89.4271 168.147C89.4577 168.129 89.4917 168.117 89.527 168.112L97.169 167.009L96.2298 160.463L88.6091 161.559C88.5743 161.565 88.5386 161.563 88.5043 161.555C88.47 161.546 88.4379 161.53 88.4099 161.509C88.381 161.488 88.3566 161.461 88.3383 161.431C88.3199 161.4 88.308 161.366 88.3032 161.331L87.4991 155.639C87.4932 155.604 87.4946 155.568 87.5032 155.534C87.5117 155.499 87.5273 155.467 87.5489 155.439C87.5698 155.41 87.5964 155.386 87.6269 155.368C87.6575 155.349 87.6915 155.337 87.7268 155.333L98.6633 153.796C98.7168 153.788 98.7715 153.796 98.8199 153.821C98.8682 153.845 98.908 153.883 98.9337 153.931L103.829 162.562C103.859 162.621 103.874 162.69 103.858 162.754ZM133.586 162.284C133.566 162.317 133.538 162.344 133.507 162.365C133.475 162.386 133.439 162.399 133.401 162.405L130.121 162.875H130.085C130.023 162.875 129.962 162.852 129.915 162.811C129.886 162.786 129.863 162.755 129.847 162.721C129.831 162.687 129.823 162.65 129.822 162.612L129.737 151.227C129.738 151.163 129.761 151.102 129.803 151.054C129.844 151.006 129.901 150.974 129.964 150.964L130.242 150.928C130.306 150.919 130.372 150.933 130.427 150.968C130.482 151.003 130.523 151.058 130.541 151.12L133.636 162.107C133.639 162.17 133.622 162.232 133.586 162.284Z" fill="#2D2A26"/>
<path d="M159.853 138.657L159.336 138.653L159.333 140.644L158.851 140.646L158.854 138.655L158.337 138.651L158.337 138.255L159.862 138.255L159.853 138.657Z" fill="#2D2A26"/>
<path d="M160.783 138.259L161.12 139.941L161.466 138.258L162.184 138.262L162.181 140.649L161.742 140.65L161.739 138.751L161.31 140.652L160.936 140.654L160.495 138.749L160.498 140.648L160.06 140.649L160.063 138.262L160.783 138.259Z" fill="#2D2A26"/>
<path d="M110.115 126.715L97.8906 138.726L104.451 137.772L107.511 143.657L110.115 126.715Z" fill="#F6B318"/>
<path d="M104.752 130.955L99.5293 128.287L102.212 133.453L104.752 130.955Z" fill="#F6B318"/>
<path d="M109.818 133.553L109.277 137.11L115.062 136.271L109.818 133.553Z" fill="#F6B318"/>
</svg>
