<svg width="266" height="266" viewBox="0 0 266 266" fill="none" xmlns="http://www.w3.org/2000/svg">
<circle cx="133" cy="133" r="133" fill="#F6B318" fill-opacity="0.07"/>
<path d="M192.326 63.8057L212.001 107.516V222.623H172.638V107.516L192.326 63.8057Z" fill="#D9D9D9"/>
<path d="M185.013 43.4058H79.3761C77.4437 43.4058 75.5904 44.1734 74.2239 45.5399C72.8575 46.9063 72.0898 48.7596 72.0898 50.692V63.8059H192.299V50.692C192.299 48.7596 191.531 46.9063 190.165 45.5399C188.798 44.1734 186.945 43.4058 185.013 43.4058Z" fill="#F2F2F2"/>
<path d="M52.4316 107.516V222.616H172.627V107.516L192.301 63.8057H72.0989L52.4316 107.516Z" fill="#FBFBFB"/>
<path d="M78.2358 149.57C83.6295 135.38 97.3536 125.295 113.436 125.295C125.714 125.295 136.617 131.174 143.49 140.27L151.865 139.076C143.881 126.248 129.657 117.707 113.436 117.707C92.6738 117.707 75.1814 131.696 69.8623 150.764L78.2358 149.57Z" fill="#F5AF2D"/>
<path d="M142.543 186.822C135.639 195.23 125.164 200.595 113.435 200.595C101.706 200.595 91.9067 195.571 85.0052 187.625L76.3564 188.857C84.535 200.542 98.0929 208.183 113.435 208.183C130.258 208.183 144.934 198.998 152.727 185.37L142.543 186.822Z" fill="#F5AF2D"/>
<path d="M112.019 130.628L100.486 141.963L106.678 141.067L109.565 146.616L112.019 130.628Z" fill="#F5AF2D"/>
<path d="M106.952 134.63L102.021 132.113L104.556 136.985L106.952 134.63Z" fill="#F5AF2D"/>
<path d="M111.738 137.081L111.227 140.409L116.683 139.619L111.738 137.081Z" fill="#F5AF2D"/>
<path d="M66.9176 184.394L66.426 184.392L66.4231 186.27H65.9688L65.9731 184.392L65.4814 184.391V184.02L66.9176 184.021V184.394Z" fill="#2D2A26"/>
<path d="M67.7961 184.024L68.1143 185.612H68.1215L68.4483 184.024L69.1191 184.026L69.1148 186.276L68.6991 186.274L68.7034 184.479H68.6963L68.2935 186.274L67.9409 186.273L67.5439 184.477H67.5381L67.5338 186.273L67.1182 186.272L67.1225 184.023L67.7961 184.024Z" fill="#2D2A26"/>
<path d="M155.246 163.731L153.82 163.935L153.629 163.724L142.36 150.023L148.407 149.161L153.357 142.211L133.905 144.983L134.786 151.169L145.39 164.889C145.409 165.018 145.319 165.137 145.191 165.156L136.068 166.456C135.939 166.474 135.82 166.384 135.801 166.257L134.166 154.784L127.98 155.666L129.615 167.138C129.634 167.267 129.543 167.386 129.416 167.405L127.904 167.62C127.775 167.638 127.656 167.548 127.637 167.42L126.377 158.581L120.191 159.463L121.452 168.312C121.471 168.441 121.38 168.56 121.253 168.579L119.741 168.794C119.612 168.812 119.493 168.722 119.474 168.594L117.839 157.113L111.652 157.995L113.288 169.476C113.306 169.605 113.216 169.724 113.089 169.742L111.576 169.957C111.447 169.976 111.328 169.886 111.31 169.758L108.3 148.635L101.172 149.651L105.134 177.454L162.586 169.267L159.997 151.105L153.811 151.986L155.446 163.467C155.465 163.596 155.375 163.715 155.247 163.734L155.246 163.731Z" fill="#2D2A26"/>
<path d="M94.3792 160.453L96.0146 171.934C96.0333 172.063 95.943 172.182 95.8154 172.201L94.3032 172.416C94.1742 172.434 94.0553 172.344 94.0366 172.216L92.7753 163.367L86.589 164.249L87.8504 173.098C87.869 173.227 87.7787 173.346 87.6511 173.365L86.139 173.58C86.01 173.598 85.891 173.508 85.8724 173.38L84.2369 161.899L78.0507 162.781L80.1663 177.623C80.3483 178.9 79.4596 180.084 78.1825 180.266C76.9054 180.448 75.7 179.409 75.3445 176.912L72.9236 159.92L65.8301 160.93C66.4278 165.124 66.9911 169.082 67.6604 173.77C68.3284 178.459 69.6356 185.072 75.0192 186.222C77.0645 186.657 79.2074 186.383 81.2112 185.786C84.0363 184.943 86.4672 183.174 86.827 180.061L103.156 177.735L100.567 159.573L94.3806 160.454L94.3792 160.453Z" fill="#2D2A26"/>
<path d="M159.042 143.859L156.516 147.225L159.86 149.734L162.386 146.369L159.042 143.859Z" fill="#2D2A26"/>
<path d="M153.15 144.698L150.641 148.042L154.006 150.568L156.516 147.224L153.15 144.698Z" fill="#2D2A26"/>
<path d="M119.952 185.85C119.513 185.913 119.317 186.196 119.384 186.667C119.451 187.136 119.718 187.349 120.157 187.288C120.595 187.225 120.792 186.945 120.724 186.476C120.657 186.005 120.39 185.788 119.952 185.85Z" fill="#2D2A26"/>
<path d="M152.666 179.558L152.641 179.542C152.219 179.257 151.797 178.375 151.425 177.153C151.145 176.238 150.771 175.583 150.324 175.272C149.874 174.96 149.297 174.851 148.611 174.948L148.546 174.954C147.986 175.034 147.47 175.179 146.993 175.381L147.236 177.094L148.227 176.954L148.181 176.181C148.263 176.148 148.466 176.068 148.751 176.028C149.163 175.969 149.491 176.049 149.727 176.266C149.97 176.489 150.2 176.935 150.413 177.593C150.728 178.582 151.068 179.406 151.394 179.74L124.858 183.521L124.031 177.715L124.637 177.601L124.527 176.823L122.139 177.163L122.248 177.934L122.861 177.872L123.811 184.536L152.786 180.407L153.725 180.272L153.61 179.468L152.664 179.555L152.666 179.558Z" fill="#2D2A26"/>
<path d="M120.454 185.015L121.393 184.88L121.278 184.076L120.332 184.163L120.308 184.147C119.885 183.862 119.464 182.981 119.091 181.758C118.812 180.844 118.437 180.189 117.99 179.878C117.54 179.565 116.964 179.456 116.277 179.554L116.213 179.559C115.652 179.64 115.136 179.784 114.659 179.986L114.903 181.699L115.893 181.559L115.847 180.786C115.929 180.753 116.133 180.673 116.418 180.633C116.829 180.574 117.157 180.654 117.394 180.871C117.636 181.094 117.867 181.54 118.079 182.198C118.394 183.187 118.734 184.011 119.061 184.345L116.961 184.645C115.35 184.874 114.608 185.518 114.805 186.905C114.903 187.593 115.177 188.115 115.62 188.457C116.062 188.8 116.641 188.923 117.341 188.823C117.953 188.736 118.486 188.542 118.925 188.247L118.972 188.215L118.549 187.361L118.49 187.39C118.069 187.59 117.652 187.722 117.251 187.78C116.924 187.825 116.656 187.761 116.432 187.58C116.21 187.4 116.071 187.132 116.021 186.78C115.916 186.045 116.266 185.614 117.093 185.495L120.451 185.016L120.454 185.015Z" fill="#2D2A26"/>
<path d="M149.74 181.605C149.302 181.668 149.107 181.95 149.173 182.422C149.239 182.893 149.507 183.104 149.944 183.042C150.382 182.979 150.579 182.7 150.511 182.231C150.444 181.76 150.177 181.543 149.739 181.605H149.74Z" fill="#2D2A26"/>
<path d="M161.897 178.242C161.019 175.494 159.697 173.799 157.997 173.397L157.936 173.383L157.653 174.449L157.714 174.468C159.009 174.858 160.021 176.124 160.751 178.405L156.895 178.954L156.758 178.236L155.922 178.355L156.147 179.928L156.993 179.806L162.019 179.089L161.897 178.241V178.242Z" fill="#2D2A26"/>
</svg>
