<svg width="82" height="82" viewBox="0 0 82 82" fill="none" xmlns="http://www.w3.org/2000/svg">
<circle cx="41" cy="41" r="41" fill="#F6B318" fill-opacity="0.07"/>
<g clipPath="url(#clip0_4549_32810)">
<path d="M39.5371 13.564H42.7704V20.1382H39.5371V13.564ZM39.5371 62.1702H42.7704V68.7444H39.5371V62.1702ZM22.8641 20.5786L27.4361 25.1506L25.1501 27.4365L20.5781 22.8646L22.8641 20.5786Z" fill="#D9D9D9"/>
<path d="M57.159 54.8711L61.731 59.4431L59.4452 61.7291L54.873 57.1571L57.159 54.8711Z" fill="#757575"/>
<path d="M13.5645 39.5376H20.1387V42.7708H13.5645V39.5376Z" fill="#D9D9D9"/>
<path d="M62.1699 39.5376H68.7442V42.7708H62.1699V39.5376Z" fill="#757575"/>
<path d="M25.1521 54.8716L27.438 57.1576L22.8661 61.7296L20.5801 59.4437L25.1521 54.8716Z" fill="#D9D9D9"/>
<path d="M59.4431 20.5781L61.729 22.8641L57.157 27.4361L54.8711 25.1501L59.4431 20.5781Z" fill="#757575"/>
<path d="M41.1544 56.0113L40.2766 55.4447C29.7038 48.6152 24.9883 42.8178 24.9883 36.6469C24.9883 31.0157 28.8938 26.6045 33.8797 26.6045C37.3545 26.6045 39.7744 28.2814 41.1544 29.6184C42.5345 28.2814 44.9543 26.6045 48.4292 26.6045C53.4151 26.6045 57.3206 31.0157 57.3206 36.6469C57.3206 42.8182 52.605 48.6152 42.0322 55.4447L41.1544 56.0113Z" fill="#F6B318" fill-opacity="0.2"/>
<path d="M41.1543 13.564H42.7709V20.1382H41.1543V13.564Z" fill="#757575"/>
<path d="M41.1543 62.1704H42.7709V68.7446H41.1543V62.1704Z" fill="#757575"/>
<path d="M42.0321 55.4447C52.6049 48.6152 57.3204 42.8178 57.3204 36.6469C57.3204 31.0157 53.4149 26.6045 48.4291 26.6045C44.9542 26.6045 42.5343 28.2814 41.1543 29.6184V56.0113L42.0321 55.4447Z" fill="#F6B318"/>
</g>
<defs>
<clipPath id="clip0_4549_32810">
<rect width="55.1805" height="55.1805" fill="white" transform="translate(13.5645 13.564)"/>
</clipPath>
</defs>
</svg>
