<svg width="20" height="20" viewBox="0 0 20 20" fill="none" xmlns="http://www.w3.org/2000/svg">
<path d="M17.8142 14.1181C17.7438 14.0332 17.6747 13.9484 17.6068 13.8666C16.6738 12.738 16.1093 12.0569 16.1093 8.8621C16.1093 7.20808 15.7136 5.85094 14.9337 4.83308C14.3586 4.08114 13.5812 3.51071 12.5566 3.08915C12.5434 3.08182 12.5316 3.0722 12.5218 3.06074C12.1532 1.82658 11.1447 1 10.0073 1C8.8698 1 7.86169 1.82658 7.49315 3.05946C7.48331 3.0705 7.4717 3.07982 7.45879 3.08703C5.06768 4.07138 3.90562 5.95993 3.90562 8.86083C3.90562 12.0569 3.34199 12.738 2.4081 13.8653C2.34024 13.9471 2.27111 14.0303 2.20071 14.1168C2.01886 14.3361 1.90363 14.6029 1.86868 14.8857C1.83374 15.1684 1.88052 15.4553 2.0035 15.7123C2.26518 16.2636 2.82288 16.6059 3.45946 16.6059H16.5597C17.1933 16.6059 17.7472 16.264 18.0097 15.7152C18.1332 15.4582 18.1805 15.1711 18.1458 14.888C18.1112 14.6049 17.9961 14.3377 17.8142 14.1181ZM10.0073 20C10.6201 19.9995 11.2214 19.8331 11.7473 19.5186C12.2733 19.204 12.7043 18.7529 12.9947 18.2132C13.0083 18.1874 13.0151 18.1584 13.0143 18.1292C13.0135 18.0999 13.0051 18.0714 12.99 18.0463C12.9749 18.0213 12.9535 18.0005 12.928 17.9862C12.9026 17.9718 12.8738 17.9643 12.8445 17.9643H7.17082C7.14153 17.9642 7.11271 17.9717 7.08716 17.986C7.06162 18.0004 7.04023 18.0211 7.02507 18.0461C7.00991 18.0712 7.0015 18.0998 7.00066 18.1291C6.99981 18.1583 7.00657 18.1873 7.02027 18.2132C7.31058 18.7529 7.74152 19.2039 8.2674 19.5185C8.79327 19.833 9.39447 19.9994 10.0073 20Z" fill="#2D2A26"/>
</svg>
