<svg width="266" height="266" viewBox="0 0 266 266" fill="none" xmlns="http://www.w3.org/2000/svg">
<circle cx="133" cy="133" r="133" fill="#F6B318" fill-opacity="0.07"/>
<path d="M125.927 186.576L90.0486 146.169C67.9294 121.263 72.6319 82.5983 99.9761 63.7883C118.96 50.7258 144.04 50.7258 163.024 63.7883C190.369 82.7725 195.071 121.263 172.952 146.169L137.074 186.576C134.113 190.059 128.888 190.059 125.927 186.576Z" fill="#F6B318"/>
<path d="M131.5 139.377C148.237 139.377 161.805 125.809 161.805 109.072C161.805 92.3347 148.237 78.7667 131.5 78.7667C114.763 78.7667 101.195 92.3347 101.195 109.072C101.195 125.809 114.763 139.377 131.5 139.377Z" fill="white"/>
<path d="M131.5 218.623C127.494 218.623 91.79 218.274 91.79 206.257C91.79 194.239 127.494 193.891 131.5 193.891C135.506 193.891 171.21 194.239 171.21 206.257C171.21 218.274 135.506 218.623 131.5 218.623ZM99.105 206.257C101.892 208.347 113.561 211.656 131.5 211.656C149.439 211.656 161.108 208.347 163.895 206.257C161.108 204.167 149.439 200.858 131.5 200.858C113.561 200.858 101.892 203.993 99.105 206.257Z" fill="#757575"/>
</svg>
