<svg width="22" height="22" viewBox="0 0 22 22" fill="none" xmlns="http://www.w3.org/2000/svg">
<path d="M9.9998 21.95V19.95C7.91647 19.7167 6.12914 18.8543 4.6378 17.363C3.1458 15.871 2.28314 14.0833 2.0498 12H0.0498047V10H2.0498C2.28314 7.91667 3.1458 6.129 4.6378 4.637C6.12914 3.14567 7.91647 2.28333 9.9998 2.05V0.05H11.9998V2.05C14.0831 2.28333 15.8708 3.14567 17.3628 4.637C18.8541 6.129 19.7165 7.91667 19.9498 10H21.9498V12H19.9498C19.7165 14.0833 18.8541 15.871 17.3628 17.363C15.8708 18.8543 14.0831 19.7167 11.9998 19.95V21.95H9.9998ZM10.9998 18C12.9331 18 14.5831 17.3167 15.9498 15.95C17.3165 14.5833 17.9998 12.9333 17.9998 11C17.9998 9.06667 17.3165 7.41667 15.9498 6.05C14.5831 4.68333 12.9331 4 10.9998 4C9.06647 4 7.41647 4.68333 6.0498 6.05C4.68314 7.41667 3.9998 9.06667 3.9998 11C3.9998 12.9333 4.68314 14.5833 6.0498 15.95C7.41647 17.3167 9.06647 18 10.9998 18ZM10.9998 15C9.8998 15 8.95814 14.6083 8.1748 13.825C7.39147 13.0417 6.9998 12.1 6.9998 11C6.9998 9.9 7.39147 8.95833 8.1748 8.175C8.95814 7.39167 9.8998 7 10.9998 7C12.0998 7 13.0415 7.39167 13.8248 8.175C14.6081 8.95833 14.9998 9.9 14.9998 11C14.9998 12.1 14.6081 13.0417 13.8248 13.825C13.0415 14.6083 12.0998 15 10.9998 15Z" fill="#F6B318"/>
</svg>
