<svg width="92" height="92" viewBox="0 0 92 92" fill="none" xmlns="http://www.w3.org/2000/svg">
<circle cx="46" cy="46" r="41" fill="#F6B318" fill-opacity="0.07"/>
<path d="M55.997 30.3C56.0308 28.8171 55.7747 27.3426 55.2444 25.9673C54.7141 24.5921 53.9208 23.3451 52.9135 22.3032C51.581 20.8796 49.905 19.8617 48.064 19.3577C46.223 18.8538 44.2861 18.8828 42.4596 19.4415C40.6331 20.0003 38.9855 21.068 37.6923 22.5307C36.399 23.9935 35.5087 25.7966 35.1161 27.7479C35.0038 28.0455 34.9722 28.3698 35.0247 28.685C35.0773 29.0002 35.2121 29.2941 35.414 29.5341C35.6155 29.7848 35.8688 29.9841 36.1548 30.1168C36.4407 30.2495 36.7518 30.3122 37.0643 30.3C37.5232 30.289 37.9635 30.1083 38.3075 29.7898C38.7258 29.4191 39.0586 28.9538 39.2809 28.429C39.662 27.0563 40.4363 25.8393 41.4989 24.9429C42.599 24.0092 43.9803 23.5163 45.3954 23.5524C46.2297 23.5353 47.0585 23.6975 47.8307 24.029C48.6029 24.3605 49.3021 24.8543 49.8852 25.4798C50.4894 26.1092 50.9642 26.8615 51.2805 27.6905C51.5968 28.5195 51.7478 29.4075 51.7243 30.3V35H55.9984L55.997 30.3Z" fill="#2D2A26"/>
<path d="M62.6978 35.269C62.2893 34.861 61.8021 34.5391 61.2652 34.3224C60.7283 34.1058 60.1528 33.9989 59.5733 34.0082H56.311V34H51.942V34.0082H31.3676C30.7922 33.9975 30.2207 34.1039 29.6883 34.3207C29.1559 34.5376 28.674 34.8603 28.2721 35.269C27.8563 35.6766 27.529 36.1644 27.3105 36.7023C27.092 37.2402 26.9867 37.8167 27.0013 38.3965V61.6645C26.9957 62.2308 27.1053 62.7925 27.3237 63.3158C27.542 63.8391 27.8646 64.3132 28.2721 64.7099C28.6698 65.1259 29.1504 65.4554 29.6833 65.6774C30.2162 65.8994 30.7897 66.009 31.3676 65.9994H59.5747C60.1566 66.0074 60.734 65.8971 61.2714 65.6753C61.8087 65.4536 62.2946 65.125 62.6992 64.7099C63.1138 64.3171 63.4429 63.8443 63.6665 63.3205C63.89 62.7968 64.0031 62.2332 63.9989 61.6645V38.3965C64.0125 37.8143 63.9039 37.2357 63.6802 36.6973C63.4565 36.1589 63.121 35.6725 62.6978 35.269ZM48.484 53.0465C47.6745 53.82 46.5943 54.2522 45.4705 54.2522C44.3466 54.2522 43.2664 53.82 42.4569 53.0465C42.0583 52.6735 41.7421 52.2222 41.5286 51.7215C41.3151 51.2208 41.2088 50.6815 41.2165 50.1378C41.2172 49.0178 41.6629 47.9432 42.4569 47.1471C42.8348 46.7242 43.2988 46.3856 43.8183 46.1538C44.3377 45.9219 44.9009 45.802 45.4705 45.802C46.0401 45.802 46.6032 45.9219 47.1227 46.1538C47.6421 46.3856 48.1061 46.7242 48.484 47.1471C49.2721 47.9471 49.7168 49.0192 49.7244 50.1378C49.7288 50.6812 49.621 51.2197 49.4076 51.7202C49.1943 52.2207 48.88 52.6725 48.484 53.0479V53.0465Z" fill="#F6B318"/>
</svg>
