<svg width="24" height="24" viewBox="0 0 24 24" fill="none" xmlns="http://www.w3.org/2000/svg">
<path d="M12.9231 24C12.7998 24 12.6777 23.9754 12.5641 23.9275C12.4505 23.8796 12.3477 23.8094 12.2616 23.7211C12.1756 23.6328 12.1081 23.5282 12.0632 23.4134C12.0182 23.2986 11.9967 23.1759 12 23.0527V12.4689C12 12.3465 11.9513 12.2291 11.8648 12.1425C11.7782 12.056 11.6608 12.0073 11.5384 12.0073H0.946393C0.752241 12.0096 0.56213 11.9518 0.402131 11.8418C0.242133 11.7318 0.120082 11.575 0.0527145 11.3929C-0.0240042 11.1757 -0.0167655 10.9377 0.0730087 10.7256C0.162783 10.5135 0.328607 10.3426 0.53792 10.2465L22.6924 0.0838968C22.8635 0.00547263 23.0546 -0.0187394 23.2399 0.0145078C23.4252 0.0477551 23.5959 0.136872 23.7292 0.269906C23.8624 0.40294 23.9517 0.573529 23.9853 0.758795C24.0188 0.94406 23.9948 1.13514 23.9166 1.30641L13.7625 23.4606C13.689 23.6215 13.5708 23.7578 13.422 23.8535C13.2731 23.9491 13.1 24 12.9231 24Z" fill="#F6B318"/>
</svg>
