<svg class="w-7 h-7" viewBox="0 0 20 20" fill="none"
  xmlns="http://www.w3.org/2000/svg">
  <path d="M14 0.735352H5.99997C5.61612 0.735585 5.24808 0.888189 4.97669 1.15963C4.7053 1.43108 4.55277 1.79916 4.55261 2.183V17.8171C4.55277 18.201 4.70534 18.5691 4.97679 18.8406C5.24824 19.112 5.61637 19.2646 6.00026 19.2648H13.9997C14.3836 19.2646 14.7517 19.112 15.0231 18.8406C15.2946 18.5691 15.4472 18.201 15.4473 17.8171V2.183C15.4472 1.79911 15.2946 1.43098 15.0231 1.15953C14.7517 0.888077 14.3839 0.735507 14 0.735352ZM10.0911 2.00918H11.0756C11.2347 2.00918 11.365 2.13653 11.365 2.29888C11.3647 2.37557 11.3342 2.44904 11.2799 2.50327C11.2257 2.55749 11.1522 2.58806 11.0756 2.58829H10.0911C10.0531 2.58841 10.0154 2.581 9.98025 2.5665C9.94509 2.552 9.91313 2.53068 9.88624 2.50379C9.85934 2.47689 9.83803 2.44494 9.82352 2.40977C9.80902 2.37461 9.80161 2.33692 9.80173 2.29888C9.80173 2.13653 9.92908 2.00918 10.0911 2.00918ZM8.92438 2.00918H9.02585C9.18761 2.00918 9.31526 2.13653 9.31526 2.29888C9.31538 2.33692 9.30797 2.37461 9.29347 2.40977C9.27896 2.44494 9.25765 2.47689 9.23075 2.50379C9.20386 2.53068 9.1719 2.552 9.13674 2.5665C9.10157 2.581 9.06389 2.58841 9.02585 2.58829H8.92438C8.84769 2.58806 8.77421 2.55749 8.71999 2.50327C8.66576 2.44904 8.6352 2.37557 8.63496 2.29888C8.63496 2.13653 8.76526 2.00918 8.92438 2.00918ZM10.4935 17.9965H9.50644C9.4297 17.9964 9.35615 17.9658 9.30186 17.9116C9.24757 17.8574 9.21696 17.7839 9.21673 17.7071C9.21657 17.669 9.22396 17.6313 9.23847 17.5961C9.25298 17.5609 9.27432 17.5289 9.30125 17.502C9.32819 17.4751 9.36019 17.4538 9.39541 17.4393C9.43063 17.4249 9.46836 17.4175 9.50644 17.4177H10.4935C10.6529 17.4177 10.7832 17.5451 10.7832 17.7071C10.783 17.7839 10.7524 17.8574 10.6981 17.9116C10.6438 17.9658 10.5702 17.9964 10.4935 17.9965ZM14.56 16.1436H5.43997V3.85653H14.56V16.1436Z" fill="#2D2A26"></path>
  <path d="M9.44815 15.5122H10.5517C10.7526 15.5122 10.9152 15.3387 10.9152 15.1243V13.9402C10.9152 13.7261 10.7526 13.5522 10.5517 13.5522H9.44815C9.24727 13.5522 9.08462 13.7258 9.08462 13.9405V15.1243C9.08462 15.3387 9.24727 15.5122 9.44815 15.5122ZM6.62521 12.6402H7.72874C7.92933 12.6402 8.09227 12.4637 8.09227 12.2496V11.0681C8.09227 10.854 7.92933 10.6802 7.72874 10.6802H6.62521C6.42433 10.6802 6.25903 10.8537 6.25903 11.0684V12.2496C6.25903 12.4637 6.42433 12.6402 6.62521 12.6402ZM12.2711 12.6402H13.3746C13.5755 12.6402 13.7408 12.4637 13.7408 12.2496V11.0681C13.7408 10.854 13.5755 10.6802 13.3746 10.6802H12.2711C12.0705 10.6802 11.9076 10.8537 11.9076 11.0684V12.2496C11.9076 12.4637 12.0705 12.6402 12.2711 12.6402ZM12.2711 15.5122H13.3746C13.5755 15.5122 13.7408 15.3387 13.7408 15.1243V13.9402C13.7408 13.7261 13.5755 13.5522 13.3746 13.5522H12.2711C12.0705 13.5522 11.9076 13.7258 11.9076 13.9405V15.1243C11.9076 15.3387 12.0705 15.5122 12.2711 15.5122ZM6.62521 15.5122H7.72874C7.92933 15.5122 8.09227 15.3387 8.09227 15.1243V13.9402C8.09227 13.7261 7.92933 13.5522 7.72874 13.5522H6.62521C6.42433 13.5522 6.25903 13.7258 6.25903 13.9405V15.1243C6.25903 15.3387 6.42433 15.5122 6.62521 15.5122ZM9.44815 12.6402H10.5517C10.7526 12.6402 10.9152 12.4637 10.9152 12.2496V11.0681C10.9152 10.854 10.7526 10.6802 10.5517 10.6802H9.44815C9.24727 10.6802 9.08462 10.8537 9.08462 11.0684V12.2496C9.08462 12.4637 9.24727 12.6402 9.44815 12.6402Z" fill="#2D2A26"></path>
</svg>