<svg width="266" height="266" viewBox="0 0 266 266" fill="none" xmlns="http://www.w3.org/2000/svg">
<circle cx="133" cy="133" r="133" fill="#F6B318" fill-opacity="0.07"/>
<g clipPath="url(#clip0_4977_37087)">
<path d="M129.863 81.0781L103.951 93.6997C101.621 94.8703 99.7718 96.8162 98.7212 99.2027L66.3948 180.241C63.0532 187.809 66.4615 196.656 74.0082 199.999L106.162 214.247H130.041L129.863 81.0781Z" fill="#CB8000"/>
<path d="M201.889 191.423V207.034C201.889 215.725 194.618 223 185.923 223H120.283C111.588 223 104.672 215.725 104.672 207.034V115.139C104.672 112.398 105.449 109.799 107.194 107.685L126.93 83.7729C129.172 81.055 132.37 79.3037 135.895 79.3037H170.311C173.836 79.3037 177.034 81.055 179.277 83.7729L199.012 107.685C200.757 109.799 201.889 112.398 201.889 115.139V191.423H201.889Z" fill="#F6B318"/>
<path fill-rule="evenodd" clip-rule="evenodd" d="M147.757 141.577L147.758 141.573L147.666 141.481C147.618 141.432 147.569 141.383 147.52 141.335L143.849 137.662L143.328 138.699C142.082 138.252 140.768 138.023 139.444 138.024H139.089C132.731 138.024 127.558 143.197 127.558 149.555C127.558 150.872 127.783 152.137 128.191 153.317L127.113 153.87L130.915 157.68L130.963 157.728L131.014 157.779L131.015 157.778C133.097 159.822 135.948 161.087 139.089 161.087H139.444C145.802 161.087 150.975 155.913 150.975 149.555C150.975 146.461 149.748 143.65 147.757 141.577ZM139.444 155.764H139.089C135.666 155.764 132.88 152.979 132.88 149.555C132.88 146.132 135.666 143.346 139.089 143.346H139.444C142.867 143.346 145.653 146.132 145.653 149.555C145.653 152.979 142.867 155.764 139.444 155.764ZM181.064 139.158L177.516 135.61L128.337 184.789L131.885 188.337C132.405 188.856 133.086 189.116 133.767 189.116C134.448 189.116 135.129 188.857 135.649 188.337L181.064 142.922C181.563 142.422 181.843 141.746 181.843 141.04C181.843 140.334 181.563 139.658 181.064 139.158ZM181.762 168.878L181.765 168.876L178.83 165.9L179.02 167.107C177.514 166.412 175.874 166.053 174.215 166.054H173.86C167.502 166.054 162.329 171.227 162.329 177.585C162.329 179.228 162.677 180.791 163.299 182.207L161.996 182.017L165.527 185.543C165.653 185.675 165.782 185.804 165.915 185.93L165.995 186.011L165.996 186.008C168.058 187.934 170.823 189.116 173.86 189.116H174.215C180.573 189.116 185.746 183.943 185.746 177.585C185.746 174.111 184.2 170.994 181.762 168.878ZM174.215 183.794H173.86C170.437 183.794 167.651 181.009 167.651 177.585C167.651 174.162 170.437 171.376 173.86 171.376H174.215C177.638 171.376 180.424 174.162 180.424 177.585C180.424 181.009 177.638 183.794 174.215 183.794Z" fill="#F8C201"/>
<path d="M130.219 185.569C129.693 185.569 129.178 185.413 128.74 185.12C128.303 184.828 127.962 184.412 127.76 183.926C127.559 183.44 127.506 182.905 127.609 182.389C127.711 181.872 127.965 181.398 128.337 181.026L173.752 135.611C174.252 135.115 174.928 134.838 175.631 134.84C176.335 134.841 177.01 135.121 177.507 135.619C178.005 136.117 178.285 136.791 178.287 137.495C178.288 138.198 178.011 138.874 177.516 139.374L132.1 184.789C131.854 185.037 131.56 185.233 131.237 185.367C130.915 185.501 130.568 185.569 130.219 185.569ZM135.896 157.539H135.541C129.182 157.539 124.01 152.366 124.01 146.008C124.01 139.65 129.182 134.477 135.541 134.477H135.896C142.254 134.477 147.427 139.65 147.427 146.008C147.427 152.366 142.254 157.539 135.896 157.539ZM135.541 139.799C132.117 139.799 129.332 142.584 129.332 146.008C129.332 149.431 132.117 152.217 135.541 152.217H135.896C139.319 152.217 142.105 149.431 142.105 146.008C142.105 142.584 139.319 139.799 135.896 139.799H135.541ZM170.667 185.569H170.312C163.954 185.569 158.781 180.396 158.781 174.038C158.781 167.679 163.954 162.506 170.312 162.506H170.667C177.025 162.506 182.198 167.679 182.198 174.038C182.198 180.396 177.025 185.569 170.667 185.569ZM170.312 167.828C166.889 167.828 164.103 170.614 164.103 174.038C164.103 177.461 166.889 180.247 170.312 180.247H170.667C174.09 180.247 176.876 177.461 176.876 174.038C176.876 170.614 174.09 167.828 170.667 167.828H170.312Z" fill="#F5F5F5"/>
<path d="M158.887 100.944C158.246 100.945 157.626 100.713 157.141 100.293C156.657 99.8724 156.341 99.2911 156.251 98.656C156.161 98.0208 156.304 97.3746 156.652 96.8363C157.001 96.298 157.533 95.9038 158.149 95.7262C158.452 95.6385 158.753 95.5436 159.052 95.4417C167.167 92.6717 172.618 85.0455 172.618 76.4648V46.6611C172.618 45.9553 172.899 45.2784 173.398 44.7794C173.897 44.2804 174.573 44 175.279 44C175.985 44 176.662 44.2804 177.161 44.7794C177.66 45.2784 177.94 45.9553 177.94 46.6611V76.4648C177.94 87.3226 171.041 96.9727 160.771 100.478C160.393 100.607 160.012 100.727 159.628 100.839C159.387 100.909 159.138 100.944 158.887 100.944Z" fill="#E0A446"/>
<path d="M153.281 107.511C148.684 107.511 144.943 103.771 144.943 99.1729C144.943 94.5753 148.684 90.835 153.281 90.835C157.879 90.835 161.619 94.5753 161.619 99.1729C161.619 103.771 157.879 107.511 153.281 107.511Z" fill="#F5F5F5"/>
</g>
<defs>
<clipPath id="clip0_4977_37087">
<rect width="179" height="179" fill="white" transform="translate(44 44)"/>
</clipPath>
</defs>
</svg>
