<svg width="266" height="266" viewBox="0 0 266 266" fill="none" xmlns="http://www.w3.org/2000/svg">
<circle cx="133" cy="133" r="133" fill="#F6B318" fill-opacity="0.07"/>
<path d="M146.834 188.334C146.834 203.614 134.446 216 119.166 216C103.886 216 91.5 203.614 91.5 188.334C91.5 173.054 103.886 160.666 119.166 160.666C134.446 160.666 146.834 173.054 146.834 188.334Z" fill="#F6B318"/>
<path d="M167.638 132.454C144.191 129.105 126.084 108.943 126.084 84.5837C126.084 77.6662 127.563 71.1034 130.184 65.1468C126.644 64.3175 122.964 63.8337 119.166 63.8337C92.4688 63.8337 70.75 85.5512 70.75 112.25V131.534C70.75 145.221 64.7533 158.142 54.2327 167.036C52.904 168.171 51.8374 169.581 51.1067 171.168C50.3759 172.755 49.9983 174.481 50 176.229C50 182.904 55.4294 188.334 62.1037 188.334H176.229C182.904 188.334 188.334 182.904 188.334 176.229C188.334 172.688 186.791 169.333 184.031 166.975C173.822 158.336 167.902 145.795 167.638 132.454Z" fill="#D9D9D9"/>
<path d="M209.084 84.5838C209.084 103.683 193.6 119.166 174.5 119.166C155.4 119.166 139.916 103.683 139.916 84.5838C139.916 65.484 155.4 50 174.5 50C193.6 50 209.084 65.484 209.084 84.5838Z" fill="#F6B318"/>
</svg>
