<svg width="148" height="186" viewBox="0 0 148 186" fill="none" xmlns="http://www.w3.org/2000/svg">
<path d="M39.5131 78.7803C38.6414 78.7803 37.8786 78.3445 37.5517 77.5817L0.940135 3.15993C0.286357 1.74341 1.26702 0 2.90147 0H50.0825C50.9542 0 51.7169 0.544815 52.0438 1.30756L76.0157 51.5395C76.5605 52.7381 75.9067 54.1547 74.5992 54.5905L63.9208 76.2742L41.4744 77.3638C41.1475 78.2355 40.3848 78.7803 39.5131 78.7803Z" fill="#F6B318" fill-opacity="0.2"/>
<path d="M7.58649 16.5624L5.40723 12.2039H57.2737L59.344 16.5624H7.58649Z" fill="#757575"/>
<path d="M108.487 78.8893C107.397 78.8893 106.417 77.9087 106.308 76.819L69.2602 67.2303C67.7347 69.1916 64.5748 67.2303 65.6644 64.942L95.9561 1.41657C96.283 0.653824 97.0458 0.109009 97.9175 0.109009H145.098C146.624 0.109009 147.714 1.85242 146.951 3.26894L110.448 77.6907C110.121 78.4535 109.359 78.8893 108.487 78.8893Z" fill="#F6B318" fill-opacity="0.2"/>
<path d="M88.6553 16.5624L90.7256 12.2039H142.592L140.413 16.5624H88.6553Z" fill="#757575"/>
<path d="M73.9454 186C40.0579 186 12.4902 158.432 12.4902 124.654C12.4902 90.7663 40.0579 63.1986 73.9454 63.1986C107.724 63.1986 135.292 90.7663 135.292 124.654C135.292 158.432 107.724 186 73.9454 186Z" fill="#D9D9D9"/>
<path d="M72.4199 63.3076H75.3619V78.0176C75.3619 79.979 72.4199 79.979 72.4199 78.0176V63.3076ZM116.223 80.1969C116.986 80.8507 117.64 81.6134 118.293 82.2672L107.833 92.7277C106.525 94.0352 104.455 92.0739 105.763 90.6574L116.223 80.1969ZM135.292 123.237V126.07H120.473C118.62 126.07 118.62 123.237 120.473 123.237H135.292ZM118.293 166.932C117.64 167.694 116.986 168.348 116.223 169.002L105.872 158.541C104.455 157.234 106.525 155.164 107.833 156.58L118.293 166.932ZM73.9454 186H72.4199V171.181C72.4199 169.329 75.3619 169.329 75.3619 171.181V186H73.9454ZM31.5588 169.002C30.905 168.348 30.1423 167.694 29.4885 166.932L39.9489 156.58C41.2565 155.272 43.3268 157.234 42.0192 158.541L31.5588 169.002ZM12.4902 126.07V123.237H27.3092C29.2705 123.237 29.2705 126.07 27.3092 126.07H12.4902ZM29.4885 82.2672L31.5588 80.1969L42.0192 90.6574C43.3268 92.0739 41.2565 94.0352 39.9489 92.7277L29.4885 82.2672Z" fill="#F5F4F4"/>
<path d="M73.9453 172.598C47.4673 172.598 25.8926 151.132 25.8926 124.654C25.8926 98.1758 47.4673 76.6011 73.9453 76.6011C100.423 76.6011 121.889 98.1758 121.889 124.654C121.889 151.132 100.423 172.598 73.9453 172.598Z" fill="#FBFBFB"/>
<path d="M92.3602 154.401C91.4885 154.401 76.0157 145.684 73.9454 144.485L56.1844 154.292C55.0948 154.837 53.7873 153.965 54.0052 152.766L57.8189 132.826L43.1089 118.988C42.2372 118.116 42.673 116.7 43.8716 116.482L64.0298 113.975L72.6379 95.6696C73.0737 94.58 74.7082 94.58 75.253 95.6696L83.8611 113.975L103.91 116.482C105.109 116.7 105.545 118.116 104.782 118.988L89.963 132.826L93.7767 152.766C93.8857 153.638 93.2319 154.401 92.3602 154.401Z" fill="#F6B318"/>
</svg>
