<svg width="90" height="22" viewBox="0 0 90 22" fill="none" xmlns="http://www.w3.org/2000/svg">
<path d="M4.22426 13.1297V21.6241H0V0.416813H4.34321C5.41971 0.389218 6.49303 0.569405 7.52326 0.950614C8.36095 1.26341 9.08283 1.92228 9.56439 2.81364C10.0911 3.95711 10.3381 5.26028 10.2759 6.56919C10.2834 7.65077 10.1388 8.72597 9.84846 9.74817C9.57032 10.7208 9.02587 11.5473 8.30645 12.0888L10.9643 21.6241H6.47905L4.48654 13.1297H4.22426ZM4.22426 8.96899H4.60548C4.97886 8.99216 5.34491 8.83664 5.62546 8.53573C5.77194 8.31457 5.88087 8.06019 5.94591 7.78732C6.01094 7.51445 6.0308 7.22853 6.00431 6.94624C6.00431 6.0995 5.87395 5.5574 5.6133 5.31984C5.38124 5.09168 5.09313 4.96465 4.79491 4.95904H4.22545L4.22426 8.96899Z" fill="#2D2A26"/>
<path d="M20.3593 8.65124V13.0722H16.3257V17.088H21.2651V21.6243H12.082V0.416992H20.8365V4.95326H16.3293V8.64971L20.3593 8.65124Z" fill="#2D2A26"/>
<path d="M70.3026 21.6243H66.3164V0.417062H70.3501C71.8067 0.323611 73.2571 0.708106 74.55 1.53042C75.5782 2.29707 76.3416 3.49418 76.6968 4.8972C77.1566 6.75128 77.3689 8.68322 77.3257 10.6193C77.3666 12.6743 77.1505 14.7249 76.6847 16.7006C76.335 18.1986 75.5671 19.5011 74.5135 20.3838C73.2401 21.2909 71.7758 21.7222 70.3026 21.6243ZM70.5456 17.2329H70.9013C71.1168 17.2456 71.3321 17.2047 71.5342 17.1127C71.7363 17.0207 71.9209 16.8794 72.0767 16.6977C72.4406 16.1461 72.6669 15.479 72.7287 14.7755C72.8936 13.4761 72.9652 12.1616 72.9424 10.847C72.9546 9.77529 72.907 8.70382 72.8003 7.63993C72.7453 7.00644 72.6094 6.38728 72.3973 5.80498C72.2687 5.44917 72.0476 5.15469 71.7682 4.96669C71.5049 4.81778 71.2171 4.74395 70.9268 4.75082H70.5456V17.2329Z" fill="#2D2A26"/>
<path d="M88.9238 6.97566L84.8197 7.4666C84.875 6.6364 84.7923 5.80114 84.5768 5.01066C84.5176 4.81571 84.4108 4.64751 84.2709 4.52857C84.1309 4.40964 83.9644 4.34565 83.7937 4.34528C83.6774 4.33255 83.5603 4.35491 83.4527 4.41035C83.3451 4.46579 83.2503 4.55265 83.1768 4.66322C83.0464 4.8913 82.9799 5.16459 82.9874 5.4424C82.9747 5.74735 83.0158 6.05211 83.1078 6.33618C83.1997 6.62026 83.3403 6.87711 83.5204 7.08955C83.9567 7.56732 84.4297 7.9931 84.9327 8.36111C85.407 8.68935 85.8974 9.05012 86.4042 9.44342C86.9164 9.84494 87.3933 10.3098 87.8272 10.8304C88.3219 11.4213 88.7103 12.131 88.9676 12.9145C89.225 13.698 89.3457 14.538 89.322 15.3814C89.3629 16.6687 89.1299 17.9472 88.6457 19.0926C88.224 20.0324 87.5731 20.7898 86.783 21.2602C85.9381 21.7467 85.0124 21.9891 84.0779 21.9685C83.3182 22.0612 82.5509 21.9487 81.831 21.639C81.1111 21.3292 80.4562 20.8299 79.913 20.1765C79.0015 18.6853 78.537 16.8589 78.5969 15.0014L82.9401 14.4233C82.934 15.1284 82.9976 15.8319 83.1296 16.5185C83.1923 16.8978 83.3599 17.2396 83.6043 17.4869C83.8133 17.662 84.0621 17.7531 84.3158 17.7472C84.8379 17.7472 85.099 17.2947 85.099 16.3898C85.1096 16.0297 85.048 15.6719 84.9196 15.3473C84.7912 15.0227 84.5997 14.7411 84.3619 14.5268C83.806 14.0242 83.2191 13.5748 82.6062 13.1827C82.1472 12.8555 81.6805 12.5105 81.2061 12.1478C80.7273 11.7783 80.2888 11.3366 79.9009 10.8333C79.4912 10.2959 79.1691 9.66873 78.9514 8.98506C78.6991 8.15835 78.5784 7.28078 78.5957 6.39909C78.5501 5.52074 78.6648 4.64097 78.9314 3.82295C79.198 3.00492 79.6098 2.26889 80.1376 1.66762C81.2582 0.530222 82.6871 -0.0571435 84.1446 0.0204626C84.8193 -0.0513285 85.4986 0.0663579 86.1301 0.364477C86.7616 0.662597 87.3285 1.13324 87.7872 1.74009C88.6482 3.27477 89.0496 5.12334 88.9238 6.97566Z" fill="#2D2A26"/>
<path d="M46.708 0.391602L44.3937 8.42171L42.9464 13.3617L40.6211 21.3771L46.4651 16.5288L52.1501 21.6462L47.1524 2.11709L46.708 0.391602Z" fill="#F6B318"/>
<path d="M37.291 8.27051L42.472 12.9355L43.7859 8.40804L37.291 8.27051Z" fill="#F6B318"/>
<path d="M55.9061 8.69191L49.3809 8.53516L50.5574 13.1305L55.9061 8.69191Z" fill="#F6B318"/>
<path d="M62.5212 12.0901C63.2406 11.5486 63.7852 10.7221 64.0633 9.74952C64.3537 8.72734 64.4983 7.65222 64.4908 6.57063C64.553 5.26171 64.306 3.9584 63.7792 2.81499C63.2976 1.92363 62.5759 1.26476 61.7382 0.951963C60.708 0.570254 59.6347 0.389602 58.5581 0.416719H54.2148V7.24043L55.9281 7.28177C56.1737 7.28809 56.4112 7.38926 56.6065 7.57055C56.8018 7.75184 56.9448 8.0039 57.0149 8.29053C57.0849 8.57715 57.0785 8.8835 56.9965 9.16537C56.9144 9.44724 56.7609 9.69014 56.5582 9.85899L54.216 11.8033V21.6255H58.4403V13.131H58.7013L60.6938 21.6255H65.1779L62.5212 12.0901ZM59.8402 8.54159C59.5596 8.84237 59.1937 8.99777 58.8203 8.97477H58.4403V4.9501H59.0097C59.308 4.95571 59.5962 5.08266 59.8282 5.31081C60.0889 5.55231 60.2191 6.09451 60.2191 6.9373C60.2457 7.2197 60.2258 7.50574 60.1605 7.77866C60.0953 8.05158 59.986 8.30592 59.839 8.52679L59.8402 8.54159Z" fill="#2D2A26"/>
<path d="M37.2893 6.86301H37.31L40.467 6.92952L41.2902 0.423828H36.8304L36.4395 7.33318C36.5474 7.18678 36.6793 7.06956 36.8268 6.98908C36.9742 6.9086 37.1338 6.86668 37.2954 6.86598L37.2893 6.86301Z" fill="#2D2A26"/>
<path d="M36.6018 9.40482C36.4978 9.31044 36.4074 9.19551 36.3346 9.06478L35.9461 15.9313H35.8502L34.1175 0.415039H29.3007L27.6639 16.0466H27.5218L26.525 0.415039H21.9219L24.864 21.6223H30.4166L31.5798 7.89818H31.7012L33.0769 21.6223H38.6004L39.783 12.2703L36.6018 9.40482Z" fill="#2D2A26"/>
</svg>
