<svg width="39" height="38" viewBox="0 0 39 38" fill="none" xmlns="http://www.w3.org/2000/svg">
<g clipPath="url(#clip0_1790_14333)">
<path d="M16.5 0C7.95296 0 1 6.95296 1 15.5C1 24.047 7.95296 31 16.5 31C25.047 31 32 24.047 32 15.5C32 6.95296 25.047 0 16.5 0ZM23.2812 16.7916H17.7916V22.2812C17.7916 22.9943 17.2131 23.5728 16.5 23.5728C15.7869 23.5728 15.2084 22.9943 15.2084 22.2812V16.7916H9.71875C9.00569 16.7916 8.42716 16.2131 8.42716 15.5C8.42716 14.7869 9.00569 14.2084 9.71875 14.2084H15.2084V8.71875C15.2084 8.00569 15.7869 7.42716 16.5 7.42716C17.2131 7.42716 17.7916 8.00569 17.7916 8.71875V14.2084H23.2812C23.9943 14.2084 24.5728 14.7869 24.5728 15.5C24.5728 16.2131 23.9943 16.7916 23.2812 16.7916Z" fill="#E16101"/>
</g>
<defs>
<clipPath id="clip0_1790_14333">
<rect width="31" height="31" fill="white" transform="translate(1)"/>
</clipPath>
</defs>
</svg>
