<svg width="83" height="83" viewBox="0 0 83 83" fill="none" xmlns="http://www.w3.org/2000/svg">
<g clipPath="url(#clip0_4555_37722)">
<path d="M41.7852 82.875C64.4288 82.875 82.7852 64.5187 82.7852 41.875C82.7852 19.2313 64.4288 0.875 41.7852 0.875C19.1415 0.875 0.785156 19.2313 0.785156 41.875C0.785156 64.5187 19.1415 82.875 41.7852 82.875Z" fill="#2D2A26"/>
<path d="M31.2075 37.2598L32.3073 39.0097C32.9633 40.0574 33.6405 41.0916 34.2618 42.1624C34.4509 42.5618 34.8696 42.7972 35.3095 42.7489C43.5442 42.7316 51.7809 42.7316 60.0156 42.7489H60.9108C60.0793 52.1104 59.2554 61.3928 58.4257 70.7119H34.038C33.0559 59.5888 32.0738 48.46 31.0898 37.3254L31.2056 37.2598H31.2075ZM46.4557 67.376C52.6433 67.376 57.6598 62.3633 57.6617 56.1757C57.6617 49.9881 52.6491 44.9716 46.4615 44.9697C40.2873 44.9697 35.2767 49.9611 35.2554 56.1352C35.2612 62.3248 40.2642 67.347 46.4557 67.376Z" fill="#F8B02D"/>
<path d="M30.8223 36.9835H62.2254C62.6634 36.9411 63.0801 37.1726 63.275 37.5662C64.3825 39.4011 65.5362 41.207 66.6707 43.0264C66.7904 43.2194 66.8984 43.4181 67.0721 43.7172H35.6651C35.2522 43.7557 34.8567 43.5377 34.6695 43.1692C33.4328 41.1395 32.1651 39.1309 30.8223 36.9835Z" fill="#FFDA57"/>
<path d="M25.1758 42.6311C26.6711 43.1539 27.1843 42.2297 27.7515 41.2727C28.7201 39.6327 29.76 38.0371 30.9042 36.4492C31.9133 47.852 32.9204 59.2703 33.9276 70.7021H27.6686C26.8428 61.4139 26.017 52.118 25.1738 42.6311H25.1758Z" fill="#E29A27"/>
<path d="M30.2431 30.9602C30.5576 27.9561 30.7216 27.7786 33.6601 27.5548V26.4762C33.6466 25.2395 34.6383 24.2265 35.8751 24.213C37.1118 24.1995 38.1248 25.1912 38.1383 26.428V27.5258C41.2061 27.6011 41.5379 28.5696 41.5649 30.9563C41.9527 30.9563 42.3444 30.9409 42.7322 30.9563C43.9651 31.0181 44.9144 32.0677 44.8526 33.3006C44.843 33.48 44.8141 33.6575 44.762 33.8292C44.6616 34.1437 44.5227 34.3251 44.131 34.3212H27.7002C27.3702 34.3637 27.0673 34.1341 27.0191 33.8041C26.6892 32.6098 27.3895 31.3731 28.5838 31.0412C28.7247 31.0026 28.8694 30.9775 29.016 30.966C29.4135 30.937 29.8109 30.9602 30.2431 30.9602Z" fill="#F8B02D"/>
<path d="M57.118 34.2863H46.979C47.4015 32.1929 46.6645 30.5818 44.9512 29.3335C46.8864 27.9173 49.1264 26.9777 51.4938 26.5899C52.856 26.3352 53.6663 26.8619 54.6465 27.6993C56.4254 29.1965 56.763 31.1683 57.0235 33.2232C57.0795 33.5454 57.0872 33.8734 57.118 34.2863Z" fill="#F8B02D"/>
<path d="M31.059 36.1272C30.3914 37.1999 29.7971 38.1607 29.1894 39.1197C28.4986 40.2271 27.8176 41.3269 27.1056 42.4305C26.9821 42.6351 26.7815 42.7798 26.548 42.8319C24.2211 42.8608 21.8981 42.8511 19.4883 42.8511C19.5983 42.6273 19.6677 42.4633 19.7603 42.3148C20.9546 40.3969 22.1432 38.4772 23.3645 36.5767C23.5208 36.3432 23.7677 36.1889 24.0456 36.1484C26.328 36.1175 28.6105 36.1291 31.0609 36.1291L31.059 36.1272Z" fill="#FFDA57"/>
<path d="M37.1554 13.5858L38.3883 12.4609C40.8386 14.1453 40.5955 16.9295 39.1678 18.363C38.3844 19.1444 38.3844 20.412 39.1658 21.1954C39.1851 21.2147 39.2044 21.234 39.2257 21.2513C39.4881 21.4944 39.764 21.7202 40.0514 21.9324L38.8571 23.1055C36.4049 21.4153 36.6036 18.6698 38.0121 17.2189C38.8166 16.4394 38.8359 15.1563 38.0564 14.3518C38.0236 14.319 37.9908 14.2862 37.9561 14.2553C37.7014 14.018 37.4352 13.7961 37.1593 13.5877L37.1554 13.5858Z" fill="#F8B02D"/>
<path d="M44.0325 21.954L42.8652 23.1039C40.7081 21.5778 40.3994 19.1178 42.1204 17.1363C42.8304 16.3336 42.8092 15.122 42.0702 14.3463C41.8213 14.082 41.5242 13.8582 41.2213 13.59L42.4484 12.4902C44.5476 13.9932 44.8563 16.434 43.1333 18.4174C42.4233 19.2181 42.4445 20.4278 43.1816 21.2054C43.4343 21.4601 43.7276 21.6839 44.0325 21.9559V21.954Z" fill="#F8B02D"/>
<path d="M46.8906 23.1054C45.5072 22.0056 44.7027 20.6743 45.1599 18.8954C45.3394 18.2896 45.6423 17.7281 46.0494 17.2458C46.8655 16.2463 46.879 15.1041 45.9683 14.1915C45.7445 13.9677 45.5014 13.7651 45.2467 13.5355L46.4237 12.4512C48.2258 13.5355 48.8104 15.8759 47.726 17.6779C47.5794 17.923 47.4038 18.1507 47.2051 18.3571C46.4256 19.1771 46.4546 20.4717 47.2707 21.2551C47.5331 21.4963 47.809 21.7201 48.0965 21.9304L46.8925 23.1073L46.8906 23.1054Z" fill="#F8B02D"/>
<path d="M46.4561 67.376C40.2685 67.376 35.2539 62.3595 35.2539 56.1738C35.2539 49.9862 40.2704 44.9717 46.4561 44.9717C52.6418 44.9717 57.6582 49.9881 57.6582 56.1738C57.6582 56.1873 57.6582 56.2009 57.6582 56.2144C57.61 62.375 52.6167 67.3509 46.4561 67.376Z" fill="#F8B02D"/>
<path d="M48.8986 51.0723L45.9949 53.9413L44.1928 55.6971L41.2852 58.5564L45.3736 57.9641L47.2779 61.6281L48.7693 51.9289L48.8986 51.0723Z" fill="white"/>
<path d="M42.2969 52.0527L44.0353 55.3925L45.6772 53.7776L42.2969 52.0527Z" fill="white"/>
<path d="M51.9794 57.0089L48.5875 55.2686L48.2363 57.551L51.9794 57.0089Z" fill="white"/>
<path d="M53.1244 57.0844L53.1437 56.93V56.7795C53.1437 56.7294 53.1437 56.6464 53.1591 56.5808C53.1746 56.5152 53.1591 56.4998 53.1591 56.4554V55.7801C53.1591 55.7454 53.1591 55.6219 53.1398 55.5428V55.4424L53.1109 55.2186C53.1109 55.18 53.1109 55.1434 53.0955 55.1048L53.0569 54.8964C53.0569 54.8559 53.0414 54.8154 53.0318 54.7729C53.0221 54.7305 53.0028 54.6475 52.9874 54.5839C52.972 54.5202 52.9662 54.4893 52.9527 54.4449C52.9392 54.4006 52.9218 54.3311 52.9044 54.2751C52.8871 54.2192 52.8755 54.171 52.8562 54.1208C52.8369 54.0706 52.8253 54.0205 52.806 53.9722C52.7867 53.924 52.7675 53.8584 52.7462 53.8044L52.6961 53.6712C52.671 53.6076 52.6459 53.5478 52.6208 53.4918C52.6208 53.4513 52.5861 53.4127 52.5707 53.376C52.5552 53.3394 52.5108 53.2468 52.48 53.1831C52.4491 53.1194 52.4452 53.1175 52.4259 53.0828C52.4067 53.048 52.3565 52.9496 52.3179 52.884C52.2793 52.8184 52.287 52.8242 52.2677 52.7953C52.2484 52.7664 52.1886 52.6602 52.1443 52.5927C52.0999 52.5252 52.1095 52.5367 52.0902 52.5078C52.0709 52.4789 52.0053 52.3747 51.9571 52.3129L51.9262 52.2647L51.8954 52.2203C51.8548 52.1644 51.8105 52.1065 51.7661 52.0525L51.6812 51.9425L51.5731 51.8132C51.5326 51.765 51.494 51.7187 51.4535 51.6743L51.3744 51.5894L51.2162 51.4254L51.1757 51.3849L50.9731 51.192C50.6567 50.9025 50.3132 50.644 49.9447 50.4221L49.9139 50.4028C49.8347 50.3546 49.7556 50.3083 49.6746 50.2639L49.5357 50.1906L49.3929 50.1173L49.1402 50.0034L49.1054 49.988C48.7118 49.8182 48.3028 49.687 47.886 49.5963C47.7954 49.5751 47.7027 49.5577 47.6121 49.5423H47.5523L47.3284 49.5076H47.2127L47.0332 49.4883H46.0782L45.8409 49.5076H45.7367L45.5129 49.5365H45.4029L45.1945 49.5751L45.0691 49.6002L44.88 49.6446L44.7411 49.6793L44.5713 49.7275L44.4208 49.7758L44.2703 49.8259L44.1025 49.8857L43.9693 49.9359L43.7899 50.0112L43.6741 50.0652L43.4851 50.1539L43.3847 50.208L43.186 50.316L43.0953 50.3662C43.0297 50.4067 42.9603 50.4453 42.8927 50.4896L42.8078 50.5437C42.7442 50.588 42.6786 50.6286 42.6149 50.6768L42.5647 50.7077L42.5242 50.7385L42.3544 50.8678L42.2444 50.9527L42.1152 51.0607L41.9801 51.1804L41.8952 51.2595L41.7274 51.4177C41.7139 51.4312 41.7003 51.4466 41.6868 51.4582C41.6212 51.5238 41.5576 51.5913 41.4939 51.6608C41.2045 51.9772 40.9479 52.3226 40.7241 52.6892L40.7048 52.72L40.5659 52.9593L40.4964 53.1021C40.4713 53.1464 40.4462 53.1928 40.4231 53.241C40.3999 53.2892 40.344 53.4088 40.3073 53.4937L40.2919 53.5285C40.124 53.9221 39.9928 54.333 39.9041 54.7517C39.8848 54.8424 39.8655 54.935 39.85 55.0257V55.0855C39.85 55.1588 39.8288 55.2341 39.8192 55.3093C39.8095 55.3846 39.8192 55.3884 39.8037 55.4251C39.7883 55.4617 39.8037 55.5447 39.8037 55.6045V56.9107C39.8037 56.9455 39.8192 57.0593 39.8327 57.1345C39.8462 57.2098 39.8327 57.2098 39.8481 57.2445C39.8635 57.2792 39.8693 57.3834 39.8867 57.4529C39.9041 57.5223 39.8867 57.5378 39.9079 57.5783C39.9291 57.6188 39.9369 57.7037 39.9523 57.7674C39.9677 57.8311 39.9735 57.8581 39.987 57.9063C40.0005 57.9545 40.0179 58.0201 40.0372 58.0761C40.0565 58.132 40.0661 58.1764 40.0816 58.2266C40.097 58.2768 40.1163 58.3269 40.1317 58.3771C40.1472 58.4272 40.1723 58.4909 40.1915 58.5449L40.2456 58.6781C40.2668 58.7379 40.2938 58.7977 40.3189 58.8575C40.344 58.9173 40.3536 58.9327 40.3729 58.9733C40.3922 59.0138 40.4327 59.0987 40.4636 59.1624L40.5138 59.2627C40.5485 59.3283 40.5832 59.3977 40.6218 59.4614L40.672 59.5521L40.7955 59.7547C40.8147 59.7836 40.834 59.8106 40.8495 59.8396L40.9826 60.0325L41.0173 60.0827C41.0308 60.0981 41.0424 60.1155 41.0521 60.1328L41.1466 60.2583L41.2547 60.3914C41.2797 60.4223 41.3029 60.4551 41.3299 60.4859L41.4881 60.6692L41.5228 60.7078C41.8103 61.0223 42.1267 61.3079 42.4683 61.5625C42.5474 61.6224 42.6284 61.6783 42.7114 61.7323L42.7364 61.7516L42.9795 61.9098H43.0046C43.0934 61.96 43.1821 62.014 43.2728 62.0603L43.3577 62.1047C43.4117 62.1356 43.4677 62.1645 43.5275 62.1935L43.6876 62.2687L43.7783 62.3092L43.9713 62.3903L44.0253 62.4095C45.7907 63.1041 47.7683 63.0212 49.4701 62.1799L49.5087 62.1607C49.5936 62.1201 49.6785 62.0719 49.7614 62.0275L49.8212 61.9928C49.9061 61.9426 49.9949 61.8925 50.0759 61.8384H50.1049L50.3788 61.6532H50.3981L50.4464 61.6146L50.566 61.5297C51.8355 60.5496 52.7115 59.1469 53.0356 57.5764C53.0511 57.4973 53.0646 57.422 53.08 57.3429V57.2677L53.1302 57.0824L53.1244 57.0844ZM49.7576 60.7078L49.7035 60.7483C49.6283 60.8024 49.5492 60.8564 49.4739 60.9027H49.4527L49.2386 61.032L49.1884 61.057C49.1189 61.0976 49.0495 61.1361 48.9781 61.1709H48.9491L48.6945 61.2905C47.9902 61.5953 47.23 61.7516 46.4621 61.7516C45.9007 61.7516 45.3411 61.6687 44.8028 61.5027C44.6697 61.4622 44.5385 61.414 44.4092 61.3638L44.3649 61.3445L44.2047 61.3098L44.1295 61.2751L43.9944 61.2114L43.8516 61.1381L43.7822 61.0995C43.7069 61.059 43.6317 61.0184 43.5584 60.9741H43.5371L43.3346 60.8409H43.3133L43.1107 60.6962C42.8213 60.4743 42.5551 60.2255 42.3139 59.9515L42.285 59.9206L42.1518 59.7663L42.0882 59.691L41.9994 59.5772L41.9242 59.473L41.8643 59.392C41.8258 59.3379 41.7891 59.2839 41.7544 59.228L41.71 59.1585L41.6097 58.9906C41.5942 58.9655 41.5788 58.9405 41.5653 58.9154L41.4765 58.7475C41.4611 58.7186 41.4457 58.6916 41.4322 58.6626L41.3569 58.5044C41.3569 58.4736 41.328 58.4407 41.3125 58.406C41.2971 58.3713 41.272 58.3076 41.2527 58.2575C41.2334 58.2073 41.2219 58.1841 41.2083 58.1475C41.1948 58.1108 41.1736 58.0568 41.1582 58.0086C41.1427 57.9603 41.1292 57.9237 41.1138 57.8832L41.0752 57.7577C41.0752 57.7095 41.0463 57.6632 41.0347 57.613L41.0058 57.4992C41.0058 57.4452 40.9807 57.395 40.971 57.341C40.9614 57.287 40.971 57.2715 40.9498 57.2368C40.9286 57.2021 40.9286 57.121 40.9189 57.0632C40.9093 57.0053 40.9189 56.9995 40.9189 56.9725C40.9189 56.9455 40.9035 56.8471 40.8977 56.7834V55.4502C40.8977 55.4193 40.8977 55.3248 40.9267 55.2611C40.9267 55.2456 40.9267 55.2302 40.9267 55.2128C40.9421 55.1376 40.9556 55.0624 40.971 54.9852C41.0443 54.636 41.1505 54.2964 41.2855 53.9664V53.9375L41.3801 53.7272L41.4399 53.6114C41.4611 53.5728 41.4804 53.5323 41.4997 53.4957C41.519 53.459 41.5749 53.3625 41.6155 53.2969V53.268C41.7987 52.9631 42.0091 52.6757 42.2464 52.4113L42.4065 52.2435C42.4181 52.2319 42.4297 52.2203 42.4412 52.2088C42.4856 52.1624 42.5319 52.1181 42.5802 52.0756L42.6496 52.01L42.7635 51.9116L42.8715 51.8209L42.966 51.7476L43.105 51.6434L43.1802 51.5875L43.3442 51.4794L43.4137 51.4312L43.5815 51.3309L43.6568 51.2865L43.8246 51.1977L43.9095 51.1534L44.0677 51.08L44.1661 51.0357L44.3147 50.972L44.4247 50.9276L44.5636 50.8794L44.689 50.835L44.8144 50.7964L44.9591 50.7559L45.073 50.727L45.2312 50.6884L45.3354 50.6691L45.509 50.6382H45.5997L45.7888 50.6131H47.122L47.3111 50.6382H47.3593C47.4346 50.6382 47.5098 50.6633 47.587 50.6826C47.9362 50.7559 48.2758 50.862 48.6057 50.9971H48.6347L48.845 51.0955L48.9607 51.1553L49.0765 51.2151L49.2752 51.3289L49.3042 51.3444C49.609 51.5277 49.8946 51.7399 50.1608 51.9753L50.3287 52.1335L50.3673 52.1682C50.4116 52.2165 50.456 52.2589 50.4965 52.3072L50.5621 52.3805C50.5969 52.4152 50.6277 52.4557 50.6605 52.4943C50.6933 52.5329 50.7242 52.5638 50.7512 52.6024L50.8245 52.693L50.9326 52.8358L50.9827 52.9111L51.0927 53.0712L51.141 53.1445C51.1757 53.1985 51.2104 53.2545 51.2413 53.3124L51.2857 53.3876L51.3744 53.5555C51.3744 53.5806 51.4034 53.6095 51.4188 53.6365L51.494 53.7967L51.5346 53.8912C51.5558 53.9414 51.5789 53.9915 51.5982 54.0417C51.6175 54.0919 51.6272 54.115 51.6426 54.1517C51.658 54.1883 51.6773 54.2424 51.6928 54.2906C51.7082 54.3388 51.7217 54.3716 51.7333 54.416L51.7719 54.5414C51.7873 54.5896 51.8008 54.636 51.8124 54.6842L51.8413 54.7999L51.8799 54.9582L51.8992 55.0624C51.8992 55.1183 51.9204 55.1762 51.9301 55.2321C51.9397 55.2881 51.9301 55.2958 51.9455 55.3267C51.961 55.3576 51.9455 55.4521 51.9667 55.5119V56.7564C51.9667 56.8008 51.9667 56.8374 51.9513 56.8799C51.9359 56.9223 51.9513 56.9879 51.9301 57.04C51.9089 57.0921 51.9301 57.0805 51.9301 57.0998C51.7043 58.5353 50.9268 59.8261 49.7634 60.6982L49.7576 60.7078Z" fill="white"/>
<path d="M46.46 56.5656C46.6763 56.5656 46.8517 56.3902 46.8517 56.1739C46.8517 55.9576 46.6763 55.7822 46.46 55.7822C46.2437 55.7822 46.0684 55.9576 46.0684 56.1739C46.0684 56.3902 46.2437 56.5656 46.46 56.5656Z" fill="white"/>
</g>
<defs>
<clipPath id="clip0_4555_37722">
<rect width="82" height="82" fill="white" transform="translate(0.785156 0.875)"/>
</clipPath>
</defs>
</svg>
