<svg width="73" height="79" viewBox="0 0 73 79" fill="none" xmlns="http://www.w3.org/2000/svg">
<circle cx="36.5" cy="42.5" r="36.5" fill="#F6B318" fill-opacity="0.2"/>
<path d="M54.1482 21.7085L59.6538 33.9403V66.1514H48.6387V33.9403L54.1482 21.7085Z" fill="#D9D9D9"/>
<path d="M52.1018 16H22.5409C22.0001 16 21.4815 16.2148 21.0992 16.5972C20.7168 16.9796 20.502 17.4982 20.502 18.039V21.7087H54.1408V18.039C54.1408 17.4982 53.926 16.9796 53.5436 16.5972C53.1612 16.2148 52.6426 16 52.1018 16Z" fill="#F2F2F2"/>
<path d="M15 33.9403V66.1494H48.6348V33.9403L54.1404 21.7085H20.5036L15 33.9403Z" fill="#FBFBFB"/>
<path d="M21.1256 44.9276C21.8349 43.0624 23.031 41.4214 24.5894 40.1753C26.1479 38.9292 28.0119 38.1234 29.9874 37.8419C31.9628 37.5603 33.9777 37.8133 35.8222 38.5744C37.6668 39.3356 39.2737 40.5771 40.4758 42.1698L42.9588 41.8154C41.5848 39.6029 39.5966 37.8382 37.2367 36.7366C34.8768 35.6349 32.2473 35.2438 29.669 35.6112C27.0906 35.9785 24.675 37.0883 22.7167 38.8052C20.7583 40.5221 19.3421 42.7719 18.6406 45.28L21.1256 44.9276Z" fill="#F6B318"/>
<path d="M40.1973 55.977C39.1667 57.2336 37.8741 58.2499 36.4099 58.9552C34.9457 59.6604 33.3452 60.0375 31.7202 60.06C30.0952 60.0826 28.4848 59.7501 27.0016 59.0858C25.5184 58.4215 24.1981 57.4414 23.133 56.214L20.5684 56.5803C21.8645 58.4349 23.6085 59.9316 25.6384 60.9312C27.6682 61.9308 29.9179 62.4007 32.1782 62.2974C34.4384 62.1941 36.6358 61.5208 38.566 60.3402C40.4962 59.1596 42.0964 57.51 43.2179 55.5449L40.1973 55.977Z" fill="#F6B318"/>
<path d="M32.9894 55.1492L32.9297 54.8406C32.8801 54.8343 32.83 54.8343 32.7804 54.8406C32.5096 54.8804 32.3821 54.9919 32.4697 55.5733C32.5414 56.085 32.6888 56.1607 32.9915 56.1169C33.1118 56.0986 33.2291 56.0638 33.3399 56.0133L33.4176 56.2682C33.2751 56.3276 33.126 56.3697 32.9735 56.3937C32.4638 56.4653 32.2089 56.3339 32.1074 55.633C31.9979 54.8684 32.2487 54.6474 32.7545 54.5777C32.8867 54.5607 33.0205 54.5607 33.1527 54.5777L33.2244 55.1213L32.9894 55.1492Z" fill="#2D2A26"/>
<path d="M34.0786 55.979L34.2777 55.9392L34.0945 54.6549L33.8834 54.6748L33.8516 54.4458L34.6142 54.3363L34.646 54.5653L34.4469 54.6011L34.5166 55.083L35.1936 54.9874L35.1259 54.5056L34.9268 54.5255L34.8949 54.2965L35.6556 54.189L35.6894 54.4179L35.4803 54.4578L35.6635 55.7421L35.8746 55.7221L35.9064 55.9511L35.1458 56.0587L35.114 55.8297L35.3131 55.7938L35.2374 55.2622L34.5584 55.3598L34.6341 55.8914L34.8332 55.8715L34.8651 56.1005L34.1025 56.21L34.0786 55.979Z" fill="#2D2A26"/>
<path d="M36.5727 55.6164L36.7718 55.5766L36.5886 54.2923L36.3776 54.3122L36.3457 54.0832L37.1243 53.9717L37.1561 54.2007L36.957 54.2405L37.1402 55.5268L37.3513 55.5069L37.3831 55.7359L36.6046 55.8474L36.5727 55.6164Z" fill="#2D2A26"/>
<path d="M38.8801 54.3205L38.8203 54.0119C38.7708 54.0057 38.7206 54.0057 38.671 54.0119C38.4002 54.0517 38.2728 54.1633 38.3604 54.7447C38.4321 55.2564 38.5794 55.3321 38.8821 55.2883C39.0025 55.27 39.1197 55.2352 39.2305 55.1847L39.3082 55.4396C39.1657 55.499 39.0166 55.5411 38.8642 55.565C38.3544 55.6367 38.0995 55.5053 37.998 54.8044C37.8885 54.0398 38.1394 53.8188 38.6451 53.7491C38.7773 53.7321 38.9112 53.7321 39.0434 53.7491L39.115 54.2927L38.8801 54.3205Z" fill="#2D2A26"/>
<path d="M39.9692 55.1387L40.1683 55.0989L39.9851 53.8145L39.7741 53.8345L39.7422 53.6055L40.465 53.5019L40.4968 53.723L40.3416 53.7508L40.4272 54.3482L40.8772 53.6831L40.7119 53.6991L40.68 53.4781L41.4029 53.3745L41.4347 53.6035L41.2913 53.6314L40.8214 54.3143L41.5044 54.9117L41.6538 54.8958L41.6856 55.1247L40.9349 55.2303L40.9031 55.0113L41.0683 54.9814L40.4511 54.4258L40.5427 55.065L40.698 55.0471L40.7298 55.2681L40.0071 55.3717L39.9692 55.1387Z" fill="#2D2A26"/>
<path d="M43.1955 54.2648L43.1617 54.1194L42.7774 54.1752L42.851 54.7009L43.3588 54.6292L43.3409 54.4141L43.5858 54.3783L43.6535 54.8462L42.3175 55.0453L42.2856 54.8163L42.4847 54.7765L42.3015 53.4902L42.0904 53.5101L42.0586 53.2811L43.3946 53.082L43.4584 53.534L43.2134 53.5699L43.1716 53.3708L42.6639 53.4424L42.7336 53.9342L43.1179 53.8785V53.7331L43.3389 53.7013L43.4126 54.2269L43.1955 54.2648Z" fill="#2D2A26"/>
<path d="M44.3702 54.7445L44.3383 54.5155L44.5374 54.4757L44.3543 53.1913L44.1432 53.2112L44.1113 52.9823L44.7943 52.8847L45.4375 53.7369C45.549 53.887 45.6521 54.0432 45.7461 54.2049C45.7023 54.0336 45.6625 53.8464 45.6406 53.7071L45.543 53.0141L45.3438 53.0341L45.312 52.809L46.0109 52.7095L46.0428 52.9385L45.8556 52.9723L46.0727 54.4975L45.6047 54.5653L44.9596 53.713C44.848 53.5629 44.745 53.4067 44.6509 53.2451H44.641C44.6848 53.4163 44.7266 53.6035 44.7465 53.7429L44.8441 54.4338L45.0432 54.4139L45.0751 54.6389L44.3702 54.7445Z" fill="#2D2A26"/>
<path d="M42.1946 44.4042C42.2607 44.3919 42.3287 44.3935 42.3942 44.4089C42.4597 44.4243 42.5212 44.4532 42.5749 44.4938C42.7919 44.6591 42.9313 45.0314 43.0269 45.7044L45.0877 45.1967C45.0461 44.3342 44.6662 43.5229 44.0304 42.9387C43.7544 42.7537 43.4438 42.6268 43.1172 42.5655C42.7907 42.5042 42.4551 42.5099 42.1309 42.5823C41.3483 42.658 40.6223 43.0238 40.0959 43.6077C39.859 43.9151 39.6902 44.2694 39.601 44.6471C39.5117 45.0247 39.5039 45.4171 39.5782 45.798C39.833 47.5642 41.0636 48.0421 42.1508 48.4622H42.1627C42.9592 48.7609 43.6641 49.0197 43.7716 49.7604C43.8101 49.9364 43.7934 50.12 43.7238 50.2861C43.6882 50.3509 43.6369 50.4059 43.5746 50.4459C43.5124 50.4858 43.4411 50.5096 43.3674 50.5151C42.7999 50.5967 42.5052 50.2144 42.33 49.1531L40.1994 49.7007C40.1815 49.7054 40.1624 49.7033 40.1459 49.6949C40.1294 49.6864 40.1165 49.6722 40.1098 49.6549L37.816 43.5659L34.9726 43.9761L34.4848 52.0204C34.4836 52.0366 34.4773 52.0521 34.4667 52.0644C34.4561 52.0767 34.4418 52.0853 34.4259 52.0889C34.41 52.0925 34.3934 52.0908 34.3786 52.0843C34.3637 52.0777 34.3514 52.0664 34.3434 52.0523L32.6748 48.8843C32.6687 48.8676 32.6687 48.8493 32.6748 48.8326L33.8994 42.9805L31.4761 43.321L30.8907 47.3929C30.8883 47.409 30.8808 47.4238 30.8694 47.4353C30.8579 47.4468 30.843 47.4543 30.827 47.4566H30.7613C30.745 47.4589 30.7285 47.4559 30.7141 47.448C30.6998 47.4401 30.6884 47.4278 30.6816 47.4129L29.4431 44.7407L17.1895 46.473L17.4602 48.3547L19.0114 48.1337C19.0306 48.1308 19.0503 48.1357 19.0659 48.1472C19.0816 48.1588 19.0921 48.1761 19.095 48.1954L20.1304 55.5627L22.261 55.264L21.2256 47.8967C21.2227 47.877 21.2277 47.857 21.2395 47.841C21.2452 47.8328 21.2527 47.8259 21.2612 47.8207C21.2698 47.8156 21.2793 47.8123 21.2893 47.8111L22.6194 47.6239C22.6291 47.6225 22.6389 47.623 22.6484 47.6255C22.6579 47.628 22.6668 47.6323 22.6746 47.6382C22.6823 47.6442 22.6889 47.6516 22.6937 47.6601C22.6986 47.6685 22.7018 47.6779 22.703 47.6876L23.7384 55.055L28.2106 54.4257H28.2205C28.2317 54.4255 28.2428 54.4278 28.253 54.4324C28.2631 54.4371 28.2721 54.444 28.2792 54.4526C28.2863 54.4613 28.2913 54.4714 28.2939 54.4822C28.2965 54.4931 28.2966 54.5045 28.2942 54.5154L27.8442 56.851L30.5144 56.4946L31.1416 50.8994C31.1439 50.8831 31.1513 50.868 31.1627 50.8561C31.1742 50.8443 31.1891 50.8365 31.2053 50.8337H31.2571C31.2733 50.8313 31.2898 50.8344 31.3042 50.8423C31.3186 50.8502 31.33 50.8625 31.3367 50.8775L32.629 53.8164L36.6113 53.2549L36.6432 51.3494C36.6439 51.3319 36.6506 51.3152 36.6622 51.3022C36.6738 51.2891 36.6896 51.2805 36.7069 51.2777L38.2481 51.0567C38.2656 51.054 38.2836 51.0578 38.2986 51.0673C38.3136 51.0768 38.3246 51.0914 38.3297 51.1084L38.8992 52.9363L41.205 52.6098L40.9063 51.7715C40.9022 51.7578 40.9021 51.7433 40.906 51.7295C40.9099 51.7158 40.9176 51.7034 40.9282 51.6939C40.9414 51.683 40.9579 51.6771 40.975 51.6771C40.992 51.6771 41.0086 51.683 41.0218 51.6939C41.3552 51.9826 41.7535 52.1865 42.1827 52.2881C42.6119 52.3896 43.0594 52.3859 43.4868 52.2773C43.8741 52.256 44.2517 52.1485 44.5921 51.9626C44.9325 51.7767 45.2271 51.5172 45.4544 51.2029C45.6816 50.8886 45.8359 50.5275 45.9057 50.146C45.9756 49.7645 45.9594 49.3722 45.8583 48.9978C45.6114 47.2814 44.2654 46.7458 43.2001 46.3137L43.0548 46.256C42.332 45.9453 41.86 45.6925 41.7585 45.0434C41.7321 44.9029 41.7539 44.7577 41.8202 44.6312C41.8609 44.567 41.9158 44.5131 41.9807 44.4737C42.0457 44.4344 42.1189 44.4106 42.1946 44.4042ZM29.3913 49.398L28.7601 52.345C28.7568 52.3596 28.7491 52.373 28.7381 52.3833C28.7271 52.3936 28.7133 52.4003 28.6984 52.4027L25.6519 52.8288H25.642C25.6254 52.8284 25.6094 52.8228 25.5962 52.8129C25.5881 52.807 25.5813 52.7996 25.5761 52.7911C25.571 52.7825 25.5677 52.773 25.5663 52.7631L25.3174 50.983C25.3158 50.9733 25.3162 50.9633 25.3186 50.9537C25.3209 50.9441 25.3253 50.9351 25.3313 50.9273C25.3372 50.9192 25.3446 50.9124 25.3532 50.9072C25.3617 50.9021 25.3712 50.8988 25.3811 50.8974L27.5196 50.5888L27.2568 48.7569L25.1243 49.0635C25.1145 49.0652 25.1045 49.0648 25.0949 49.0624C25.0853 49.06 25.0763 49.0556 25.0685 49.0496C25.0604 49.0437 25.0536 49.0363 25.0485 49.0278C25.0433 49.0192 25.04 49.0097 25.0386 48.9998L24.8136 47.4069C24.812 47.3971 24.8124 47.3871 24.8148 47.3776C24.8172 47.368 24.8215 47.3589 24.8276 47.3511C24.8334 47.343 24.8409 47.3362 24.8494 47.3311C24.858 47.3259 24.8675 47.3226 24.8774 47.3213L27.9378 46.8912C27.9528 46.8889 27.9681 46.8914 27.9816 46.8981C27.9951 46.9049 28.0063 46.9157 28.0134 46.929L29.3834 49.3443C29.3918 49.3609 29.3959 49.38 29.3913 49.398ZM37.7105 49.2666C37.7047 49.2756 37.6971 49.2833 37.6882 49.2891C37.6793 49.2949 37.6692 49.2988 37.6587 49.3005L36.7408 49.4319H36.7308C36.7132 49.4318 36.6963 49.4254 36.683 49.414C36.675 49.407 36.6686 49.3984 36.6641 49.3888C36.6597 49.3792 36.6573 49.3688 36.6571 49.3582L36.6332 46.1724C36.6335 46.1545 36.64 46.1374 36.6517 46.1239C36.6633 46.1104 36.6793 46.1015 36.6969 46.0987L36.7746 46.0887C36.7927 46.0861 36.8111 46.09 36.8265 46.0999C36.8419 46.1098 36.8531 46.1249 36.8582 46.1425L37.7244 49.2168C37.7253 49.2345 37.7204 49.252 37.7105 49.2666Z" fill="#2D2A26"/>
<path d="M45.0318 42.6735L44.8884 42.6934L44.968 43.245L44.8346 43.2649L44.755 42.7133L44.6116 42.7332L44.5957 42.6237L45.0178 42.562L45.0318 42.6735Z" fill="#2D2A26"/>
<path d="M45.2733 42.526L45.4346 42.978L45.4625 42.4981L45.6616 42.4702L45.7572 43.1313L45.6357 43.1492L45.558 42.6236L45.5162 43.1671L45.4127 43.1831L45.2136 42.6733L45.2913 43.199L45.1698 43.2169L45.0742 42.5558L45.2733 42.526Z" fill="#2D2A26"/>
<path d="M31.1415 39.3125L27.7207 42.6736L29.5566 42.4068L30.4128 44.0535L31.1415 39.3125Z" fill="#F6B318"/>
<path d="M29.6412 40.4991L28.1797 39.7524L28.9304 41.198L29.6412 40.4991Z" fill="#F6B318"/>
<path d="M31.0595 41.2261L30.9082 42.2217L32.527 41.9867L31.0595 41.2261Z" fill="#F6B318"/>
<g clipPath="url(#clip0_5615_33477)">
<path d="M60 0C53.383 0 48 5.383 48 12C48 18.617 53.383 24 60 24C66.617 24 72 18.617 72 12C72 5.383 66.617 0 60 0ZM65.25 13H54.75C54.4848 13 54.2304 12.8946 54.0429 12.7071C53.8554 12.5196 53.75 12.2652 53.75 12C53.75 11.7348 53.8554 11.4804 54.0429 11.2929C54.2304 11.1054 54.4848 11 54.75 11H65.25C65.5152 11 65.7696 11.1054 65.9571 11.2929C66.1446 11.4804 66.25 11.7348 66.25 12C66.25 12.2652 66.1446 12.5196 65.9571 12.7071C65.7696 12.8946 65.5152 13 65.25 13Z" fill="#9A3324"/>
</g>
<defs>
<clipPath id="clip0_5615_33477">
<rect width="24" height="24" fill="white" transform="translate(48)"/>
</clipPath>
</defs>
</svg>
