<svg xmlns="http://www.w3.org/2000/svg" version="1.1" xmlns:xlink="http://www.w3.org/1999/xlink" x="0" y="0" viewBox="0 0 480 480" style="enable-background:new 0 0 512 512" xml:space="preserve" class=""><g><path fill="#cccccc" d="M158.32 432c-5.039-18.48-22-32-42-32H43.68C19.602 400 0 419.602 0 443.68V480h160zm0 0" opacity="1" data-original="#cccccc"/><path fill="#66d1ff" d="m304 120 16 56h64l16-56zm0 0" opacity="1" data-original="#66d1ff"/><path fill="#ef476f" d="M228.48 314.031c-3.945-1.222-8.136-1.886-12.48-1.886s-8.535.664-12.48 1.886c-21.625 6.73-32.489 31.067-25.329 52.555L216 480l37.809-113.414c7.16-21.488-3.704-45.824-25.329-52.555zM216 368c-8.84 0-16-7.16-16-16s7.16-16 16-16 16 7.16 16 16-7.16 16-16 16zm0 0" opacity="1" data-original="#ef476f"/><path fill="#26547c" d="M384 184h-64c-3.45 0-6.496-2.2-7.594-5.473L290.23 112H264V96h32c3.45 0 6.496 2.2 7.594 5.473L325.77 168h52.199l11.43-40H328v-16h72a7.996 7.996 0 0 1 6.383 3.176 7.984 7.984 0 0 1 1.305 7.015l-16 56A7.993 7.993 0 0 1 384 184zM324 216c-6.617 0-12-5.383-12-12s5.383-12 12-12 12 5.383 12 12-5.383 12-12 12zM372 216c-6.617 0-12-5.383-12-12s5.383-12 12-12 12 5.383 12 12-5.383 12-12 12zm0 0" opacity="1" data-original="#26547c"/><path fill="#cf3e60" d="M480 144c0-62.078-41.945-116.246-102-131.754l-4 15.508C426.992 41.426 464 89.223 464 144c0 47.375-27.719 89.488-69.488 108.863l12.64-25.277-14.312-7.16-24 48a7.964 7.964 0 0 0 .07 7.285 8.02 8.02 0 0 0 5.953 4.21l56 8 2.266-15.843-32.113-4.582C448.488 245.586 480 197.786 480 144zM313.137 8.078l-56-8-2.266 15.844 32.113 4.582C239.512 42.414 208 90.214 208 144c0 62.078 41.945 116.246 102 131.754l4-15.508c-52.992-13.672-90-61.469-90-116.246 0-47.375 27.719-89.488 69.488-108.863l-12.64 25.277 14.312 7.16 24-48a7.964 7.964 0 0 0-.07-7.285 8.034 8.034 0 0 0-5.953-4.21zm0 0" opacity="1" data-original="#cf3e60"/><g fill="#ffd166"><path d="M0 16h16v16H0zM32 16h16v16H32zM16 0h16v16H16zM16 32h16v16H16zM432 448h16v16h-16zM464 448h16v16h-16zM448 432h16v16h-16zM448 464h16v16h-16zm0 0" fill="#ffd166" opacity="1" data-original="#ffd166"/></g><path fill="#f2c38d" d="M128 336c0-26.512-21.488-48-48-48s-48 21.488-48 48c0 17.762 9.664 33.223 24 41.527V400l24 24 24-24v-22.473c14.336-8.304 24-23.765 24-41.527zm0 0" opacity="1" data-original="#f2c38d"/><path fill="#ffcd94" d="M128 336c0 26.508-21.492 48-48 48s-48-21.492-48-48 21.492-48 48-48 48 21.492 48 48zm0 0" opacity="1" data-original="#ffcd94"/><path fill="#26547c" d="M80 288c-23.223 0-42.594 16.488-47.04 38.398C38.185 328.734 43.938 330 50 330c11.762 0 22.441-4.855 30-12.664A41.71 41.71 0 0 0 110 330c6.055 0 11.816-1.258 17.04-3.602C122.593 304.488 103.222 288 80 288zm0 0" opacity="1" data-original="#26547c"/><path fill="#c4c4c4" d="M150.176 416.367C137.039 445.754 112.457 468.81 82.07 480H160l-1.68-48c-1.593-5.824-4.465-11.063-8.144-15.633zm0 0" opacity="1" data-original="#c4c4c4"/></g></svg>