<svg width="47" height="52" viewBox="0 0 47 52" fill="none" xmlns="http://www.w3.org/2000/svg">
<path d="M42.1214 5.46411L47.0001 16.303V44.8463H37.2393V16.303L42.1214 5.46411Z" fill="#D9D9D9"/>
<path d="M40.3073 0.405762H14.1124C13.6333 0.405762 13.1737 0.596119 12.8349 0.934956C12.496 1.27379 12.3057 1.73336 12.3057 2.21254V5.4644H42.114V2.21254C42.114 1.73336 41.9237 1.27379 41.5848 0.934956C41.246 0.596119 40.7864 0.405762 40.3073 0.405762Z" fill="#F2F2F2"/>
<path d="M7.43164 16.303V44.8445H37.2365V16.303L42.1151 5.46411H12.3085L7.43164 16.303Z" fill="#FBFBFB"/>
<path d="M13.1429 25.9862C14.554 22.2737 18.1446 19.6352 22.3521 19.6352C25.5644 19.6352 28.417 21.1734 30.2151 23.5532L32.4063 23.2408C30.3175 19.8845 26.596 17.6499 22.3521 17.6499C16.9203 17.6499 12.3438 21.3099 10.9521 26.2985L13.1429 25.9862Z" fill="#F5AF2D"/>
<path d="M29.9677 35.7324C28.1614 37.9322 25.4209 39.3358 22.3522 39.3358C19.2836 39.3358 16.7197 38.0214 14.9141 35.9424L12.6514 36.2649C14.7911 39.3219 18.3382 41.321 22.3522 41.321C26.7536 41.321 30.5932 38.918 32.6321 35.3525L29.9677 35.7324Z" fill="#F5AF2D"/>
<path d="M21.9821 21.0305L18.9648 23.996L20.5848 23.7616L21.3401 25.2133L21.9821 21.0305Z" fill="#F5AF2D"/>
<path d="M20.6562 22.0774L19.3662 21.4189L20.0292 22.6936L20.6562 22.0774Z" fill="#F5AF2D"/>
<path d="M21.9083 22.7188L21.7744 23.5895L23.202 23.3829L21.9083 22.7188Z" fill="#F5AF2D"/>
<path d="M10.1824 35.0971L10.0538 35.0968L10.053 35.588H9.93414L9.93527 35.0968L9.80664 35.0964V34.9993L10.1824 34.9996V35.0971Z" fill="#2D2A26"/>
<path d="M10.4117 35.0006L10.495 35.4161H10.4969L10.5824 35.0006L10.7579 35.001L10.7567 35.5897L10.648 35.5894L10.6491 35.1195H10.6472L10.5419 35.5894L10.4496 35.589L10.3458 35.1191H10.3442L10.3431 35.589L10.2344 35.5886L10.2355 35.0002L10.4117 35.0006Z" fill="#2D2A26"/>
<path d="M33.2908 29.6913L32.9177 29.7445L32.8678 29.6894L29.9196 26.1048L31.5017 25.8794L32.7966 24.061L27.7074 24.7863L27.9381 26.4048L30.7123 29.9943C30.7172 30.028 30.6936 30.0592 30.6602 30.064L28.2733 30.4042C28.2396 30.409 28.2084 30.3854 28.2036 30.352L27.7757 27.3505L26.1572 27.5812L26.5851 30.5827C26.5899 30.6164 26.5663 30.6475 26.5329 30.6524L26.1373 30.7087C26.1036 30.7135 26.0724 30.6899 26.0676 30.6565L25.7379 28.3439L24.1194 28.5745L24.4494 30.8898C24.4543 30.9235 24.4307 30.9547 24.3973 30.9595L24.0017 31.0158C23.9679 31.0207 23.9368 30.997 23.9319 30.9637L23.5041 27.9599L21.8856 28.1905L22.3134 31.1943C22.3183 31.228 22.2947 31.2592 22.2613 31.264L21.8657 31.3203C21.8319 31.3252 21.8008 31.3015 21.7959 31.2682L21.0084 25.7418L19.1436 26.0077L20.1801 33.2815L35.2112 31.1395L34.5339 26.3879L32.9154 26.6185L33.3433 29.6223C33.3482 29.656 33.3246 29.6872 33.2912 29.692L33.2908 29.6913Z" fill="#2D2A26"/>
<path d="M17.3667 28.8335L17.7946 31.8373C17.7995 31.871 17.7758 31.9021 17.7425 31.907L17.3468 31.9633C17.3131 31.9681 17.282 31.9445 17.2771 31.9111L16.9471 29.5959L15.3286 29.8265L15.6586 32.1418C15.6635 32.1755 15.6398 32.2066 15.6065 32.2115L15.2108 32.2678C15.1771 32.2726 15.146 32.249 15.1411 32.2156L14.7132 29.2119L13.0947 29.4425L13.6482 33.3256C13.6958 33.6598 13.4633 33.9695 13.1292 34.0171C12.7951 34.0648 12.4797 33.7929 12.3867 33.1396L11.7533 28.694L9.89746 28.9584C10.0538 30.0556 10.2012 31.091 10.3763 32.3176C10.5511 33.5443 10.8931 35.2745 12.3016 35.5753C12.8367 35.6893 13.3973 35.6176 13.9216 35.4613C14.6607 35.2408 15.2967 34.778 15.3908 33.9635L19.6628 33.3549L18.9856 28.6033L17.3671 28.8339L17.3667 28.8335Z" fill="#2D2A26"/>
<path d="M34.284 24.4922L33.623 25.3728L34.4979 26.0294L35.1588 25.1489L34.284 24.4922Z" fill="#2D2A26"/>
<path d="M32.7426 24.7116L32.0859 25.5864L32.9665 26.2473L33.6231 25.3725L32.7426 24.7116Z" fill="#2D2A26"/>
<path d="M24.0572 35.4783C23.9424 35.4948 23.891 35.5687 23.9087 35.692C23.9263 35.8147 23.996 35.8705 24.1108 35.8544C24.2255 35.8379 24.2769 35.7648 24.2593 35.6421C24.2417 35.5188 24.1719 35.4621 24.0572 35.4783Z" fill="#2D2A26"/>
<path d="M32.6157 33.832L32.6093 33.8279C32.4987 33.7532 32.3884 33.5226 32.2909 33.2027C32.2178 32.9635 32.1199 32.7921 32.0029 32.7107C31.8852 32.629 31.7344 32.6005 31.5548 32.626L31.5379 32.6275C31.3913 32.6485 31.2563 32.6864 31.1314 32.7392L31.1952 33.1874L31.4543 33.1506L31.4423 32.9485C31.4637 32.9399 31.5169 32.9189 31.5915 32.9084C31.6992 32.893 31.785 32.914 31.8469 32.9706C31.9103 33.0291 31.9707 33.1457 32.0262 33.3179C32.1087 33.5766 32.1975 33.7922 32.283 33.8796L25.3403 34.8689L25.1239 33.3497L25.2825 33.3201L25.2537 33.1165L24.6289 33.2054L24.6574 33.4071L24.8179 33.391L25.0665 35.1344L32.6472 34.054L32.8928 34.0187L32.8628 33.8084L32.6153 33.8312L32.6157 33.832Z" fill="#2D2A26"/>
<path d="M24.189 35.2596L24.4346 35.2243L24.4046 35.0139L24.1571 35.0368L24.1507 35.0327C24.0401 34.9581 23.9299 34.7274 23.8324 34.4076C23.7592 34.1683 23.6614 33.9969 23.5444 33.9156C23.4266 33.8338 23.2759 33.8053 23.0962 33.8308L23.0794 33.8323C22.9327 33.8533 22.7977 33.8912 22.6729 33.9441L22.7366 34.3922L22.9957 34.3554L22.9837 34.1533C23.0051 34.1447 23.0584 34.1237 23.133 34.1132C23.2406 34.0978 23.3265 34.1188 23.3884 34.1754C23.4517 34.2339 23.5121 34.3506 23.5676 34.5227C23.6501 34.7814 23.739 34.9971 23.8245 35.0844L23.2751 35.1628C22.8536 35.2228 22.6594 35.3912 22.7111 35.7542C22.7366 35.9342 22.8082 36.0707 22.9241 36.1603C23.04 36.2499 23.1915 36.2822 23.3745 36.2559C23.5346 36.2331 23.6741 36.1824 23.7889 36.1052L23.8012 36.0969L23.6906 35.8734L23.6752 35.8809C23.565 35.9334 23.4559 35.9679 23.3509 35.9829C23.2654 35.9949 23.1952 35.9781 23.1367 35.9308C23.0786 35.8836 23.0422 35.8134 23.0291 35.7216C23.0017 35.5292 23.0932 35.4163 23.3096 35.3852L24.1882 35.2599L24.189 35.2596Z" fill="#2D2A26"/>
<path d="M31.851 34.3674C31.7362 34.3839 31.6852 34.4578 31.7025 34.5812C31.7197 34.7046 31.7899 34.7597 31.9042 34.7436C32.019 34.7271 32.0704 34.6539 32.0527 34.5313C32.0351 34.4079 31.9654 34.3513 31.8506 34.3674H31.851Z" fill="#2D2A26"/>
<path d="M35.0311 33.4878C34.8013 32.7689 34.4555 32.3253 34.0108 32.2203L33.9947 32.2166L33.9208 32.4956L33.9365 32.5004C34.2755 32.6024 34.5403 32.9336 34.7311 33.5306L33.7224 33.6742L33.6864 33.4863L33.4678 33.5174L33.5266 33.9288L33.7479 33.8969L35.063 33.7094L35.0311 33.4874V33.4878Z" fill="#2D2A26"/>
</svg>
