<svg width="52" height="38" viewBox="0 0 52 38" fill="none" xmlns="http://www.w3.org/2000/svg">
<path d="M4.15262 27.1854V8.00246H0V2.7666H15.9414V8.00246H10.1508V27.1854H4.15262Z" fill="#2D2A26"/>
<path d="M26.9462 12.278V17.3767H21.2479V21.9952H28.2381V27.1854H15.2266V2.7666H31.5602V8.00246H21.2479V12.278H26.9462Z" fill="#2D2A26"/>
<path d="M47.4323 0L42.2184 14.6558L46.7171 27.1853H39.9575L37.6967 19.3201H37.5813L35.4127 27.1853H28.584L33.3134 14.7702L28.6993 2.76655H35.4127L37.6736 10.2659H37.8351L40.9034 0" fill="#2D2A26"/>
<path d="M20.7879 31.7352L22.4028 31.7581L22.8181 29.083H20.5572L20.3496 31.941C20.465 31.8038 20.6264 31.7352 20.7879 31.7352Z" fill="#9A3324"/>
<path d="M4.0381 34.3188V37.817H1.89258V29.0601H4.08424C4.70713 29.0601 5.23774 29.1287 5.69915 29.2887C6.13748 29.4259 6.48353 29.7002 6.7373 30.0661C6.968 30.4319 7.10642 30.9578 7.10642 31.6208C7.10642 32.101 7.03721 32.5354 6.89879 32.9241C6.76037 33.3356 6.48353 33.6557 6.11441 33.8844L7.45248 37.817H5.16853L4.15345 34.3188H4.0381ZM4.0381 32.604H4.22266C4.43029 32.604 4.61485 32.5354 4.7302 32.4211C4.86862 32.3067 4.91476 32.0781 4.91476 31.758C4.91476 31.4151 4.84555 31.1864 4.70713 31.095C4.56871 31.0035 4.43029 30.9349 4.29187 30.9349H3.99196V32.604H4.0381Z" fill="#9A3324"/>
<path d="M12.2046 32.4897V34.296H10.1745V35.9651H12.666V37.8399H8.00586V29.083H12.4584V30.9579H10.1745V32.4897H12.2046Z" fill="#9A3324"/>
<path d="M37.536 37.8399H35.5059V29.083H37.5591C38.4588 29.083 39.174 29.2431 39.6816 29.5403C40.1891 29.8375 40.5582 30.3177 40.7658 30.935C40.9735 31.5523 41.0888 32.3526 41.0888 33.29C41.0888 34.296 40.9735 35.1191 40.7658 35.805C40.5582 36.4681 40.1891 36.994 39.6585 37.3141C39.1509 37.657 38.4358 37.8399 37.536 37.8399ZM37.6514 36.0108H37.8359C38.0897 36.0108 38.2743 35.9422 38.4358 35.7822C38.5742 35.645 38.6895 35.3706 38.7587 34.9819C38.828 34.5932 38.8741 34.0674 38.8741 33.3586C38.8741 32.8098 38.851 32.3754 38.8049 32.0325C38.7587 31.6895 38.6895 31.438 38.5973 31.278C38.505 31.1179 38.4127 30.9807 38.2743 30.935C38.1589 30.8664 37.9974 30.8435 37.8359 30.8435H37.6514V36.0108Z" fill="#9A3324"/>
<path d="M46.9725 31.7809L44.8962 31.9867C44.8962 31.4837 44.8731 31.1636 44.7808 30.9807C44.6886 30.7978 44.5501 30.7063 44.3887 30.7063C44.2502 30.7063 44.1349 30.7521 44.0657 30.8435C43.9965 30.935 43.9734 31.0493 43.9734 31.1636C43.9734 31.4608 44.0657 31.6666 44.2502 31.8495C44.4348 32.0096 44.6655 32.1925 44.9654 32.3754C45.1961 32.5126 45.4499 32.6498 45.7037 32.8327C45.9574 32.9927 46.2112 33.1756 46.4188 33.4043C46.6495 33.6329 46.8341 33.8844 46.9725 34.1817C47.1109 34.4789 47.1801 34.8447 47.1801 35.2791C47.1801 35.8965 47.0648 36.3995 46.8341 36.811C46.6034 37.2226 46.2804 37.5198 45.8882 37.7027C45.496 37.9085 45.0346 37.9999 44.5271 37.9999C43.5351 37.9999 42.843 37.7484 42.4046 37.2683C41.9894 36.7653 41.7587 36.0565 41.7356 35.1419L43.9273 34.9133C43.9273 35.302 43.9734 35.5764 44.0195 35.7821C44.0657 35.9879 44.158 36.1022 44.2502 36.1708C44.3656 36.2394 44.4809 36.2851 44.6194 36.2851C44.8731 36.2851 45.0115 36.1022 45.0115 35.7135C45.0115 35.3935 44.8962 35.1419 44.6424 34.9362C44.3887 34.7533 44.0887 34.5703 43.7427 34.3874C43.512 34.2503 43.2813 34.1131 43.0275 33.953C42.7968 33.793 42.5661 33.6101 42.3585 33.4043C42.1509 33.1985 41.9894 32.947 41.874 32.6498C41.7587 32.3525 41.6895 31.9867 41.6895 31.5752C41.6895 30.7292 41.9432 30.0661 42.4738 29.6317C43.0044 29.1744 43.6735 28.9458 44.504 28.9458C45.3345 28.9458 45.9574 29.1744 46.3496 29.6546C46.7879 30.089 46.9725 30.8206 46.9725 31.7809Z" fill="#9A3324"/>
<path d="M20.4403 32.787C20.3942 32.7413 20.348 32.6955 20.3019 32.6498L20.0942 35.4849H20.0481L19.1714 29.083H16.7491L15.9186 35.5307H15.8493L15.3418 29.083H13.0117L14.5113 37.8399H17.3258L17.9257 32.1696H17.9949L18.687 37.8399H21.4784L22.0783 33.9759L20.4403 32.787Z" fill="#9A3324"/>
<path d="M25.5621 29.083L24.3855 32.3754L23.6703 34.4332L22.4707 37.7256L25.4467 35.7364L28.3305 37.8399L25.7928 29.7918L25.5621 29.083Z" fill="#F6B318"/>
<path d="M20.7871 32.3296L23.4171 34.2502L24.0861 32.3753L20.7871 32.3296Z" fill="#F6B318"/>
<path d="M30.2229 32.4895L26.9238 32.4209L27.5237 34.3186L30.2229 32.4895Z" fill="#F6B318"/>
<path d="M29.3691 32.4897V33.0842L30.2227 32.4897H29.3691Z" fill="#F6B318"/>
<path d="M33.591 33.9073C33.9601 33.6787 34.2369 33.3357 34.3754 32.947C34.5138 32.5355 34.583 32.1011 34.583 31.6438C34.583 30.9807 34.4676 30.4549 34.2139 30.089C33.9832 29.7232 33.6371 29.4717 33.1757 29.3116C32.7374 29.1745 32.1837 29.083 31.5608 29.083H29.3691V31.8953L30.2458 31.9181C30.4996 31.9181 30.7303 32.1011 30.7995 32.3297C30.8687 32.5812 30.7764 32.8327 30.5688 32.9699L29.3922 33.7701V37.8171H31.5377V34.3189H31.6762L32.6912 37.8171H34.9752L33.591 33.9073ZM32.2298 32.444C32.0914 32.5583 31.9299 32.6269 31.7223 32.6269H31.5377V30.9807H31.8376C31.9761 30.9807 32.1145 31.0264 32.2529 31.1408C32.3913 31.2322 32.4605 31.4609 32.4605 31.8038C32.4144 32.1011 32.3452 32.3068 32.2298 32.444Z" fill="#9A3324"/>
<path d="M48.7477 37.8628V36.0108H48.3555V35.5078H49.7397V36.0108H49.3244V37.8628H48.7477Z" fill="#2D2A26"/>
<path d="M51.1932 37.8628H50.6395L50.3857 36.2852H50.3626V37.8628H49.832V35.5078H50.6626L50.9163 37.1769L51.147 35.5078H52.0006V37.8628H51.4469V36.2852H51.4239L51.1932 37.8628Z" fill="#2D2A26"/>
</svg>
