<svg width="104" height="94" viewBox="0 0 104 94" fill="none" xmlns="http://www.w3.org/2000/svg">
<path d="M0 6.12198V17.661H9.11279V59.996H22.1948V17.661H33.2949V59.996H61.7368V48.529H46.45V38.311H58.9438V27.068H46.45V17.661H67.1599L72.8379 32.581L62.521 59.996H77.4399L82.1709 42.65H82.4648L87.3889 59.996H102.16L92.312 32.36L103.728 0H89.4709L82.7578 22.658H82.3909L77.4668 6.12198H0Z" fill="white"/>
<path d="M15.0872 92.9003H8.53516V64.2734H15.166C17.5588 64.1475 19.9414 64.6655 22.0659 65.7734C23.7565 66.8079 25.0116 68.4235 25.5959 70.3174C26.3517 72.8198 26.7007 75.4273 26.6292 78.0404C26.6968 80.8146 26.3415 83.583 25.5759 86.2504C25.0009 88.2727 23.739 90.0313 22.0071 91.2233C19.9149 92.4491 17.5084 93.0323 15.0872 92.9003ZM15.4771 86.9714H16.062C16.4159 86.9884 16.7695 86.9331 17.1013 86.809C17.4331 86.6848 17.7361 86.4944 17.9919 86.2493C18.59 85.5049 18.9623 84.6047 19.0649 83.6554C19.3353 81.9022 19.4528 80.1289 19.416 78.3554C19.4364 76.9087 19.3583 75.4624 19.1821 74.0264C19.0923 73.1711 18.8684 72.3352 18.519 71.5494C18.3073 71.0701 17.9445 70.6732 17.4861 70.4194C17.053 70.2178 16.5797 70.1175 16.1021 70.1264H15.478L15.4771 86.9714Z" fill="white"/>
<path d="M100.58 73.1274L93.8326 73.7903C93.9266 72.6703 93.7938 71.5429 93.4425 70.4753C93.3458 70.2117 93.1704 69.9841 92.9403 69.8232C92.7102 69.6622 92.4365 69.5758 92.1556 69.5754C91.9644 69.5581 91.7717 69.5882 91.5949 69.663C91.418 69.7378 91.2623 69.8551 91.1415 70.0044C90.9267 70.3126 90.8172 70.6819 90.8295 71.0574C90.809 71.4691 90.8768 71.8804 91.0282 72.2638C91.1796 72.6472 91.4114 72.9938 91.7076 73.2804C92.4247 73.9252 93.2018 74.4997 94.0285 74.9963C94.8084 75.439 95.6147 75.9267 96.4467 76.4593C97.2892 77.0009 98.0732 77.6283 98.7865 78.3313C99.5321 79.0723 100.134 79.9451 100.562 80.9054C101.041 82.0327 101.274 83.2496 101.244 84.4743C101.31 86.2129 100.927 87.9393 100.131 89.4864C99.4377 90.7545 98.368 91.7764 97.0695 92.4114C95.6805 93.068 94.1586 93.3952 92.6224 93.3674C89.4224 93.3674 87.1408 92.5613 85.7775 90.9493C84.4141 89.3373 83.6924 87.01 83.6124 83.9673L90.7506 83.1874C90.7405 84.1391 90.845 85.0886 91.0617 86.0154C91.165 86.5272 91.44 86.9884 91.8414 87.3224C92.1853 87.5585 92.5945 87.6812 93.0116 87.6733C93.8703 87.6733 94.2991 87.0624 94.2985 85.8404C94.3172 85.3542 94.2169 84.8709 94.0062 84.4324C93.7955 83.9939 93.4807 83.6135 93.0895 83.3243C92.176 82.6461 91.2111 82.0399 90.2035 81.5113C89.4488 81.0693 88.6821 80.6027 87.9035 80.1114C87.1163 79.6123 86.3953 79.0159 85.7575 78.3363C85.0838 77.6094 84.5546 76.761 84.1976 75.8363C83.7831 74.7203 83.5844 73.5355 83.6124 72.3453C83.5357 71.1575 83.7234 69.9675 84.1618 68.8608C84.6001 67.7542 85.2783 66.7585 86.1476 65.9454C87.9912 64.4089 90.3421 63.6161 92.7396 63.7223C95.4696 63.7223 97.4651 64.496 98.7264 66.0434C99.9878 67.5907 100.606 69.952 100.58 73.1274Z" fill="white"/>
<path d="M76.1677 86.7794V64.2734H69.2246V73.1254L72.4817 73.1894C72.832 73.1964 73.1709 73.3146 73.4497 73.5269C73.7285 73.7392 73.9327 74.0346 74.0327 74.3704C74.1326 74.7062 74.123 75.0649 74.0056 75.395C73.8882 75.725 73.6691 76.0091 73.3796 76.2064L69.2246 79.0384V92.9004H82.9155V86.7774L76.1677 86.7794Z" fill="white"/>
<path d="M45.9668 92.8873L56.0918 85.9873L56.1499 86.0313L65.9409 93.2683L56.5149 63.0293L52.5288 74.3873L49.9697 81.5543L45.9668 92.8873Z" fill="white"/>
<path d="M40.2031 74.2422L48.9893 80.7422L51.2163 74.4422L40.2031 74.2422Z" fill="white"/>
<path d="M72.4487 74.8371L61.3848 74.6191L63.3799 81.0191L72.4487 74.8371Z" fill="white"/>
<path d="M35.3696 81.3574H42.0007V77.6263L39.2217 75.5723C39.1477 75.5176 39.0784 75.4568 39.0146 75.3904H35.3687V70.4003H42.7798V64.2764H28.3867V92.9003H43.4817V86.7764H35.3687L35.3696 81.3574Z" fill="white"/>
</svg>
