<svg xmlns="http://www.w3.org/2000/svg" version="1.1" xmlns:xlink="http://www.w3.org/1999/xlink" x="0" y="0" viewBox="0 0 32 32" style="enable-background:new 0 0 512 512" xml:space="preserve" class=""><g><path d="M30 24v4c0 1.103-.897 2-2 2H4c-1.103 0-2-.897-2-2v-4a1 1 0 1 1 2 0v4h24v-4a1 1 0 1 1 2 0z" fill="currentColor" opacity="1" data-original="#000000"/><path d="M8.293 10.707a.999.999 0 0 1 0-1.414l6.999-6.999a1.004 1.004 0 0 1 1.416 0l6.999 6.999a.999.999 0 1 1-1.414 1.414L17 5.414V23a1 1 0 1 1-2 0V5.414l-5.293 5.293a.999.999 0 0 1-1.414 0z" fill="currentColor" opacity="1" data-original="#000000"/></g></svg>