<svg width="18" height="18" viewBox="0 0 18 18" fill="none" xmlns="http://www.w3.org/2000/svg">
<path d="M9 1.6875C10.4463 1.6875 11.8601 2.11637 13.0626 2.91988C14.2651 3.72339 15.2024 4.86544 15.7559 6.20163C16.3093 7.53781 16.4541 9.00811 16.172 10.4266C15.8898 11.8451 15.1934 13.148 14.1707 14.1707C13.148 15.1934 11.8451 15.8898 10.4266 16.172C9.00811 16.4541 7.53781 16.3093 6.20163 15.7559C4.86544 15.2024 3.72338 14.2651 2.91988 13.0626C2.11637 11.8601 1.6875 10.4463 1.6875 9C1.68936 7.06118 2.46038 5.20229 3.83133 3.83134C5.20229 2.46038 7.06117 1.68936 9 1.6875ZM9.14062 5.0625C8.97374 5.0625 8.81061 5.11199 8.67186 5.2047C8.53311 5.29741 8.42496 5.42919 8.3611 5.58336C8.29724 5.73754 8.28053 5.90719 8.31308 6.07086C8.34564 6.23453 8.426 6.38487 8.544 6.50287C8.662 6.62087 8.81234 6.70123 8.97601 6.73379C9.13969 6.76634 9.30934 6.74963 9.46351 6.68577C9.61769 6.62191 9.74946 6.51377 9.84217 6.37501C9.93489 6.23626 9.98437 6.07313 9.98437 5.90625C9.98437 5.68247 9.89548 5.46786 9.73724 5.30963C9.57901 5.15139 9.3644 5.0625 9.14062 5.0625ZM8.4375 12.9375L9 12.9375C9.14918 12.9375 9.29226 12.8782 9.39774 12.7727C9.50323 12.6673 9.5625 12.5242 9.5625 12.375L9.5625 9C9.71168 9 9.85476 8.94074 9.96024 8.83525C10.0657 8.72976 10.125 8.58668 10.125 8.4375C10.125 8.28832 10.0657 8.14524 9.96024 8.03975C9.85475 7.93426 9.71168 7.875 9.5625 7.875L9 7.875C8.85081 7.875 8.70774 7.93426 8.60225 8.03975C8.49676 8.14524 8.4375 8.28832 8.4375 8.4375L8.4375 11.8125C8.28831 11.8125 8.14524 11.8718 8.03975 11.9773C7.93426 12.0827 7.875 12.2258 7.875 12.375C7.875 12.5242 7.93426 12.6673 8.03975 12.7727C8.14524 12.8782 8.28831 12.9375 8.4375 12.9375Z" fill="#2D2A26"/>
</svg>
